<svg width="176" height="58" viewBox="0 0 176 58" fill="none" xmlns="http://www.w3.org/2000/svg">
<rect x="0.5" y="0.5" width="175" height="57" rx="7.5" fill="white"/>
<rect x="0.5" y="0.5" width="175" height="57" rx="7.5" stroke="#D9D9D9"/>
<g clip-path="url(#clip0_317_624)">
<path fill-rule="evenodd" clip-rule="evenodd" d="M35.2497 25.9691L33.2087 19.0381C33.1148 18.7192 32.8222 18.5002 32.4897 18.5H23.5103C23.1778 18.5002 22.8852 18.7192 22.7913 19.0381L20.7503 25.9691C20.0971 28.1361 20.7301 30.4861 22.3834 32.0319C23.7167 33.2822 25.4297 34.0507 27.25 34.2153V38H24.25C23.8358 38 23.5 38.3358 23.5 38.75C23.5 39.1642 23.8358 39.5 24.25 39.5H31.75C32.1642 39.5 32.5 39.1642 32.5 38.75C32.5 38.3358 32.1642 38 31.75 38H28.75V34.2153C30.5703 34.0506 32.2833 33.282 33.6166 32.0319C35.2699 30.4861 35.9029 28.1361 35.2497 25.9691ZM24.0709 20H31.9291L33.8125 26.3928C33.8209 26.4209 33.8284 26.4491 33.8359 26.4772C31.8278 27.1972 29.5666 26.3272 28.3394 25.7056C25.9778 24.5103 24.1028 24.3584 22.72 24.5872L24.0709 20ZM32.5938 30.9359C30.0093 33.3559 25.9907 33.3559 23.4062 30.9359C22.1691 29.7766 21.6967 28.0157 22.1875 26.3928L22.2297 26.2503C23.3547 25.8697 25.1425 25.7684 27.6606 27.0444C28.7059 27.5741 30.3944 28.2491 32.2009 28.2491C32.8047 28.252 33.4059 28.1699 33.9869 28.0053C33.9104 29.1234 33.4125 30.1707 32.5938 30.9359Z" fill="#171212"/>
</g>
<path d="M53.088 35V23.16H57.568C58.528 23.16 59.3707 23.3307 60.096 23.672C60.832 24.0027 61.44 24.4507 61.92 25.016C62.4 25.5813 62.7627 26.216 63.008 26.92C63.2533 27.624 63.376 28.344 63.376 29.08C63.376 29.816 63.2533 30.536 63.008 31.24C62.7627 31.944 62.4 32.5787 61.92 33.144C61.44 33.7093 60.832 34.1627 60.096 34.504C59.3707 34.8347 58.528 35 57.568 35H53.088ZM57.456 25.32H55.552V32.808H57.456C58.2347 32.808 58.8747 32.6267 59.376 32.264C59.888 31.9013 60.2667 31.432 60.512 30.856C60.768 30.28 60.896 29.6827 60.896 29.064C60.896 28.4453 60.768 27.8533 60.512 27.288C60.2667 26.712 59.888 26.2427 59.376 25.88C58.8747 25.5067 58.2347 25.32 57.456 25.32ZM66.3836 25.368C65.957 25.368 65.6103 25.2347 65.3436 24.968C65.077 24.6907 64.9436 24.3653 64.9436 23.992C64.9436 23.5973 65.077 23.2667 65.3436 23C65.6103 22.7227 65.957 22.584 66.3836 22.584C66.789 22.584 67.1303 22.7227 67.4076 23C67.685 23.2667 67.8236 23.5973 67.8236 23.992C67.8236 24.3653 67.685 24.6907 67.4076 24.968C67.1303 25.2347 66.789 25.368 66.3836 25.368ZM65.1676 35V26.52H67.5996V35H65.1676ZM73.246 35.16C72.542 35.16 71.9607 35.064 71.502 34.872C71.0433 34.68 70.6753 34.4453 70.398 34.168C70.1313 33.88 69.9287 33.5973 69.79 33.32C69.662 33.032 69.5767 32.792 69.534 32.6C69.502 32.408 69.486 32.312 69.486 32.312H71.742C71.742 32.312 71.758 32.3653 71.79 32.472C71.822 32.5787 71.8913 32.7013 71.998 32.84C72.1153 32.9787 72.2807 33.1013 72.494 33.208C72.7073 33.3147 72.9953 33.368 73.358 33.368C73.806 33.368 74.11 33.2773 74.27 33.096C74.4407 32.9147 74.526 32.7333 74.526 32.552C74.526 32.168 74.2113 31.912 73.582 31.784L72.43 31.56C71.9393 31.464 71.4753 31.3253 71.038 31.144C70.6113 30.952 70.2647 30.6907 69.998 30.36C69.742 30.0187 69.614 29.5813 69.614 29.048C69.614 28.536 69.7473 28.0773 70.014 27.672C70.2807 27.2667 70.6593 26.9467 71.15 26.712C71.6513 26.4773 72.2487 26.36 72.942 26.36C73.5927 26.36 74.1313 26.4507 74.558 26.632C74.9953 26.8027 75.342 27.0213 75.598 27.288C75.854 27.544 76.046 27.8053 76.174 28.072C76.302 28.328 76.382 28.5467 76.414 28.728C76.4567 28.8987 76.478 28.984 76.478 28.984H74.302C74.302 28.984 74.27 28.9147 74.206 28.776C74.142 28.6267 74.0087 28.4827 73.806 28.344C73.614 28.1947 73.3153 28.12 72.91 28.12C72.494 28.12 72.206 28.2053 72.046 28.376C71.886 28.536 71.806 28.7067 71.806 28.888C71.806 29.1013 71.8967 29.2613 72.078 29.368C72.27 29.4747 72.5153 29.56 72.814 29.624L73.918 29.848C74.7287 30.008 75.3953 30.2907 75.918 30.696C76.4407 31.0907 76.702 31.6667 76.702 32.424C76.702 32.936 76.5687 33.4 76.302 33.816C76.0353 34.232 75.646 34.5627 75.134 34.808C74.622 35.0427 73.9927 35.16 73.246 35.16ZM78.338 35V22.84H80.77V27.736H80.85C80.946 27.5653 81.0847 27.3733 81.266 27.16C81.458 26.9467 81.7087 26.76 82.018 26.6C82.338 26.44 82.7433 26.36 83.234 26.36C83.8953 26.36 84.434 26.5147 84.85 26.824C85.266 27.1227 85.57 27.512 85.762 27.992C85.954 28.4613 86.05 28.9573 86.05 29.48V35H83.618V29.896C83.618 29.4907 83.506 29.1333 83.282 28.824C83.0687 28.5147 82.722 28.36 82.242 28.36C81.8793 28.36 81.5913 28.4453 81.378 28.616C81.1647 28.7867 81.01 29.0053 80.914 29.272C80.818 29.5387 80.77 29.8213 80.77 30.12V35H78.338ZM92.0426 35.16C91.296 35.16 90.6506 35.0373 90.1066 34.792C89.5626 34.536 89.1146 34.2 88.7626 33.784C88.4106 33.3573 88.144 32.8827 87.9626 32.36C87.792 31.8373 87.7066 31.2987 87.7066 30.744C87.7066 30.2107 87.7866 29.688 87.9466 29.176C88.1173 28.6533 88.3733 28.1787 88.7146 27.752C89.0666 27.3253 89.5093 26.9893 90.0426 26.744C90.5866 26.488 91.2266 26.36 91.9626 26.36C92.7413 26.36 93.4293 26.5307 94.0266 26.872C94.6346 27.2133 95.1093 27.72 95.4506 28.392C95.792 29.0533 95.9626 29.8587 95.9626 30.808V31.4H90.1546C90.1866 31.912 90.3626 32.3547 90.6826 32.728C91.0133 33.1013 91.4666 33.288 92.0426 33.288C92.3733 33.288 92.64 33.24 92.8426 33.144C93.056 33.0373 93.2213 32.92 93.3386 32.792C93.456 32.6533 93.536 32.5307 93.5786 32.424C93.6213 32.3173 93.6426 32.264 93.6426 32.264H95.8826C95.8826 32.264 95.856 32.3653 95.8026 32.568C95.76 32.76 95.664 33 95.5146 33.288C95.3653 33.576 95.1466 33.864 94.8586 34.152C94.5813 34.44 94.2133 34.68 93.7546 34.872C93.296 35.064 92.7253 35.16 92.0426 35.16ZM90.1546 29.928H93.6266C93.5946 29.3413 93.4186 28.904 93.0986 28.616C92.7786 28.328 92.384 28.184 91.9146 28.184C91.4453 28.184 91.0453 28.3387 90.7146 28.648C90.384 28.9467 90.1973 29.3733 90.1546 29.928ZM101.277 35.16C100.573 35.16 99.9919 35.064 99.5333 34.872C99.0746 34.68 98.7066 34.4453 98.4293 34.168C98.1626 33.88 97.9599 33.5973 97.8213 33.32C97.6933 33.032 97.6079 32.792 97.5653 32.6C97.5333 32.408 97.5173 32.312 97.5173 32.312H99.7733C99.7733 32.312 99.7893 32.3653 99.8213 32.472C99.8533 32.5787 99.9226 32.7013 100.029 32.84C100.147 32.9787 100.312 33.1013 100.525 33.208C100.739 33.3147 101.027 33.368 101.389 33.368C101.837 33.368 102.141 33.2773 102.301 33.096C102.472 32.9147 102.557 32.7333 102.557 32.552C102.557 32.168 102.243 31.912 101.613 31.784L100.461 31.56C99.9706 31.464 99.5066 31.3253 99.0693 31.144C98.6426 30.952 98.2959 30.6907 98.0293 30.36C97.7733 30.0187 97.6453 29.5813 97.6453 29.048C97.6453 28.536 97.7786 28.0773 98.0453 27.672C98.3119 27.2667 98.6906 26.9467 99.1813 26.712C99.6826 26.4773 100.28 26.36 100.973 26.36C101.624 26.36 102.163 26.4507 102.589 26.632C103.027 26.8027 103.373 27.0213 103.629 27.288C103.885 27.544 104.077 27.8053 104.205 28.072C104.333 28.328 104.413 28.5467 104.445 28.728C104.488 28.8987 104.509 28.984 104.509 28.984H102.333C102.333 28.984 102.301 28.9147 102.237 28.776C102.173 28.6267 102.04 28.4827 101.837 28.344C101.645 28.1947 101.347 28.12 100.941 28.12C100.525 28.12 100.237 28.2053 100.077 28.376C99.9173 28.536 99.8373 28.7067 99.8373 28.888C99.8373 29.1013 99.9279 29.2613 100.109 29.368C100.301 29.4747 100.547 29.56 100.845 29.624L101.949 29.848C102.76 30.008 103.427 30.2907 103.949 30.696C104.472 31.0907 104.733 31.6667 104.733 32.424C104.733 32.936 104.6 33.4 104.333 33.816C104.067 34.232 103.677 34.5627 103.165 34.808C102.653 35.0427 102.024 35.16 101.277 35.16Z" fill="#171212"/>
<defs>
<clipPath id="clip0_317_624">
<rect width="24" height="24" fill="white" transform="translate(16 17)"/>
</clipPath>
</defs>
</svg>
