<svg width="176" height="58" viewBox="0 0 176 58" fill="none" xmlns="http://www.w3.org/2000/svg">
<rect x="0.5" y="0.5" width="175" height="57" rx="7.5" fill="white"/>
<rect x="0.5" y="0.5" width="175" height="57" rx="7.5" stroke="#D9D9D9"/>
<g clip-path="url(#clip0_317_678)">
<path fill-rule="evenodd" clip-rule="evenodd" d="M38.5 35H37.75V22.25C37.75 21.4216 37.0784 20.75 36.25 20.75H19.75C18.9216 20.75 18.25 21.4216 18.25 22.25V35H17.5C17.0858 35 16.75 35.3358 16.75 35.75C16.75 36.1642 17.0858 36.5 17.5 36.5H38.5C38.9142 36.5 39.25 36.1642 39.25 35.75C39.25 35.3358 38.9142 35 38.5 35ZM19.75 22.25H36.25V35H34.75V32.75C34.75 32.3358 34.4142 32 34 32H27.25C26.8358 32 26.5 32.3358 26.5 32.75V35H22.75V25.25H33.25V29.75C33.25 30.1642 33.5858 30.5 34 30.5C34.4142 30.5 34.75 30.1642 34.75 29.75V24.5C34.75 24.0858 34.4142 23.75 34 23.75H22C21.5858 23.75 21.25 24.0858 21.25 24.5V35H19.75V22.25ZM33.25 35H28V33.5H33.25V35Z" fill="#171212"/>
</g>
<path d="M53.088 35V23.16H55.552V27.88H60.16V23.16H62.624V35H60.16V30.024H55.552V35H53.088ZM68.889 35.16C67.9397 35.16 67.1343 34.9573 66.473 34.552C65.8117 34.136 65.305 33.5973 64.953 32.936C64.6117 32.264 64.441 31.5387 64.441 30.76C64.441 29.9813 64.6117 29.2613 64.953 28.6C65.305 27.928 65.8117 27.3893 66.473 26.984C67.1343 26.568 67.9397 26.36 68.889 26.36C69.8383 26.36 70.6437 26.568 71.305 26.984C71.9663 27.3893 72.4677 27.928 72.809 28.6C73.161 29.2613 73.337 29.9813 73.337 30.76C73.337 31.5387 73.161 32.264 72.809 32.936C72.4677 33.5973 71.9663 34.136 71.305 34.552C70.6437 34.9573 69.8383 35.16 68.889 35.16ZM68.889 33.176C69.3157 33.176 69.673 33.064 69.961 32.84C70.2597 32.616 70.489 32.3227 70.649 31.96C70.809 31.5867 70.889 31.1867 70.889 30.76C70.889 30.3227 70.809 29.9227 70.649 29.56C70.489 29.1973 70.2597 28.904 69.961 28.68C69.673 28.456 69.3157 28.344 68.889 28.344C68.4623 28.344 68.0997 28.456 67.801 28.68C67.5023 28.904 67.273 29.1973 67.113 29.56C66.9637 29.9227 66.889 30.3227 66.889 30.76C66.889 31.1867 66.9637 31.5867 67.113 31.96C67.273 32.3227 67.5023 32.616 67.801 32.84C68.0997 33.064 68.4623 33.176 68.889 33.176ZM74.9905 35V26.52H77.4225V27.672H77.5025C77.6838 27.3627 77.9558 27.0693 78.3185 26.792C78.6812 26.504 79.1772 26.36 79.8065 26.36C80.4465 26.36 80.9585 26.5093 81.3425 26.808C81.7372 27.1067 82.0252 27.4747 82.2065 27.912H82.2385C82.3772 27.6667 82.5585 27.4267 82.7825 27.192C83.0172 26.9467 83.3052 26.7493 83.6465 26.6C83.9985 26.44 84.4092 26.36 84.8785 26.36C85.4652 26.36 85.9505 26.4933 86.3345 26.76C86.7185 27.0267 87.0012 27.3787 87.1825 27.816C87.3745 28.2427 87.4705 28.7013 87.4705 29.192V35H85.0385V29.8C85.0385 29.384 84.9318 29.0427 84.7185 28.776C84.5158 28.4987 84.2065 28.36 83.7905 28.36C83.4705 28.36 83.2092 28.44 83.0065 28.6C82.8145 28.76 82.6705 28.968 82.5745 29.224C82.4892 29.4693 82.4465 29.7253 82.4465 29.992V35H80.0145V29.8C80.0145 29.384 79.9078 29.0427 79.6945 28.776C79.4918 28.4987 79.1825 28.36 78.7665 28.36C78.4465 28.36 78.1852 28.44 77.9825 28.6C77.7905 28.76 77.6465 28.968 77.5505 29.224C77.4652 29.4693 77.4225 29.7253 77.4225 29.992V35H74.9905ZM93.4645 35.16C92.7178 35.16 92.0725 35.0373 91.5285 34.792C90.9845 34.536 90.5365 34.2 90.1845 33.784C89.8325 33.3573 89.5658 32.8827 89.3845 32.36C89.2138 31.8373 89.1285 31.2987 89.1285 30.744C89.1285 30.2107 89.2085 29.688 89.3685 29.176C89.5392 28.6533 89.7952 28.1787 90.1365 27.752C90.4885 27.3253 90.9312 26.9893 91.4645 26.744C92.0085 26.488 92.6485 26.36 93.3845 26.36C94.1632 26.36 94.8512 26.5307 95.4485 26.872C96.0565 27.2133 96.5312 27.72 96.8725 28.392C97.2138 29.0533 97.3845 29.8587 97.3845 30.808V31.4H91.5765C91.6085 31.912 91.7845 32.3547 92.1045 32.728C92.4352 33.1013 92.8885 33.288 93.4645 33.288C93.7952 33.288 94.0618 33.24 94.2645 33.144C94.4778 33.0373 94.6432 32.92 94.7605 32.792C94.8778 32.6533 94.9578 32.5307 95.0005 32.424C95.0432 32.3173 95.0645 32.264 95.0645 32.264H97.3045C97.3045 32.264 97.2778 32.3653 97.2245 32.568C97.1818 32.76 97.0858 33 96.9365 33.288C96.7872 33.576 96.5685 33.864 96.2805 34.152C96.0032 34.44 95.6352 34.68 95.1765 34.872C94.7178 35.064 94.1472 35.16 93.4645 35.16ZM91.5765 29.928H95.0485C95.0165 29.3413 94.8405 28.904 94.5205 28.616C94.2005 28.328 93.8058 28.184 93.3365 28.184C92.8672 28.184 92.4672 28.3387 92.1365 28.648C91.8058 28.9467 91.6192 29.3733 91.5765 29.928Z" fill="#171212"/>
<defs>
<clipPath id="clip0_317_678">
<rect width="24" height="24" fill="white" transform="translate(16 17)"/>
</clipPath>
</defs>
</svg>
