<svg width="176" height="58" viewBox="0 0 176 58" fill="none" xmlns="http://www.w3.org/2000/svg">
<rect x="0.5" y="0.5" width="175" height="57" rx="7.5" fill="white"/>
<rect x="0.5" y="0.5" width="175" height="57" rx="7.5" stroke="#D9D9D9"/>
<g clip-path="url(#clip0_317_705)">
<path fill-rule="evenodd" clip-rule="evenodd" d="M34.75 20.75C34.3358 20.75 34 21.0858 34 21.5C34 21.9142 34.3358 22.25 34.75 22.25C35.5784 22.25 36.25 22.9216 36.25 23.75V29H19.75V23.75C19.75 22.9216 20.4216 22.25 21.25 22.25C21.6642 22.25 22 21.9142 22 21.5C22 21.0858 21.6642 20.75 21.25 20.75C19.5931 20.75 18.25 22.0931 18.25 23.75V32.375C18.25 34.6532 20.0968 36.5 22.375 36.5C24.6532 36.5 26.5 34.6532 26.5 32.375V30.5H29.5V32.375C29.5 34.6532 31.3468 36.5 33.625 36.5C35.9032 36.5 37.75 34.6532 37.75 32.375V23.75C37.75 22.0931 36.4069 20.75 34.75 20.75ZM35.9341 33.6228L32.8103 30.5H36.25V32.375C36.2507 32.8108 36.142 33.2398 35.9341 33.6228ZM19.75 32.375V30.8103L23.6228 34.6841C22.8094 35.1235 21.8248 35.1027 21.0307 34.6293C20.2366 34.1558 19.7501 33.2995 19.75 32.375ZM25 32.375C25.0007 32.8108 24.892 33.2398 24.6841 33.6228L21.5603 30.5H25V32.375ZM31 32.375V30.8103L34.8728 34.6841C34.0594 35.1235 33.0748 35.1027 32.2807 34.6293C31.4866 34.1558 31.0001 33.2995 31 32.375Z" fill="#171212"/>
</g>
<path d="M54.352 35.16C53.8933 35.16 53.4933 35.1333 53.152 35.08C52.8107 35.0373 52.64 35.016 52.64 35.016V32.952C52.64 32.952 52.7733 32.968 53.04 33C53.3067 33.0213 53.5947 33.032 53.904 33.032C54.64 33.032 55.2267 32.856 55.664 32.504C56.1013 32.152 56.32 31.5227 56.32 30.616V23.16H58.768V30.664C58.768 31.5067 58.6187 32.2693 58.32 32.952C58.0213 33.624 57.5467 34.1627 56.896 34.568C56.256 34.9627 55.408 35.16 54.352 35.16ZM65.0114 35.16C64.2647 35.16 63.6194 35.0373 63.0754 34.792C62.5314 34.536 62.0834 34.2 61.7314 33.784C61.3794 33.3573 61.1127 32.8827 60.9314 32.36C60.7607 31.8373 60.6754 31.2987 60.6754 30.744C60.6754 30.2107 60.7554 29.688 60.9154 29.176C61.086 28.6533 61.342 28.1787 61.6834 27.752C62.0354 27.3253 62.478 26.9893 63.0114 26.744C63.5554 26.488 64.1954 26.36 64.9314 26.36C65.71 26.36 66.398 26.5307 66.9954 26.872C67.6034 27.2133 68.078 27.72 68.4194 28.392C68.7607 29.0533 68.9314 29.8587 68.9314 30.808V31.4H63.1234C63.1554 31.912 63.3314 32.3547 63.6514 32.728C63.982 33.1013 64.4354 33.288 65.0114 33.288C65.342 33.288 65.6087 33.24 65.8114 33.144C66.0247 33.0373 66.19 32.92 66.3074 32.792C66.4247 32.6533 66.5047 32.5307 66.5474 32.424C66.59 32.3173 66.6114 32.264 66.6114 32.264H68.8514C68.8514 32.264 68.8247 32.3653 68.7714 32.568C68.7287 32.76 68.6327 33 68.4834 33.288C68.334 33.576 68.1154 33.864 67.8274 34.152C67.55 34.44 67.182 34.68 66.7234 34.872C66.2647 35.064 65.694 35.16 65.0114 35.16ZM63.1234 29.928H66.5954C66.5634 29.3413 66.3874 28.904 66.0674 28.616C65.7474 28.328 65.3527 28.184 64.8834 28.184C64.414 28.184 64.014 28.3387 63.6834 28.648C63.3527 28.9467 63.166 29.3733 63.1234 29.928ZM72.3201 35L69.6961 26.52H72.1281L73.6481 32.024L75.2961 26.52H77.5041L79.1521 32.024L80.6721 26.52H83.1041L80.4801 35H77.9041L76.4001 30.04L74.8961 35H72.3201ZM88.1989 35.16C87.4522 35.16 86.8069 35.0373 86.2629 34.792C85.7189 34.536 85.2709 34.2 84.9189 33.784C84.5669 33.3573 84.3002 32.8827 84.1189 32.36C83.9482 31.8373 83.8629 31.2987 83.8629 30.744C83.8629 30.2107 83.9429 29.688 84.1029 29.176C84.2735 28.6533 84.5295 28.1787 84.8709 27.752C85.2229 27.3253 85.6655 26.9893 86.1989 26.744C86.7429 26.488 87.3829 26.36 88.1189 26.36C88.8975 26.36 89.5855 26.5307 90.1829 26.872C90.7909 27.2133 91.2655 27.72 91.6069 28.392C91.9482 29.0533 92.1189 29.8587 92.1189 30.808V31.4H86.3109C86.3429 31.912 86.5189 32.3547 86.8389 32.728C87.1695 33.1013 87.6229 33.288 88.1989 33.288C88.5295 33.288 88.7962 33.24 88.9989 33.144C89.2122 33.0373 89.3775 32.92 89.4949 32.792C89.6122 32.6533 89.6922 32.5307 89.7349 32.424C89.7775 32.3173 89.7989 32.264 89.7989 32.264H92.0389C92.0389 32.264 92.0122 32.3653 91.9589 32.568C91.9162 32.76 91.8202 33 91.6709 33.288C91.5215 33.576 91.3029 33.864 91.0149 34.152C90.7375 34.44 90.3695 34.68 89.9109 34.872C89.4522 35.064 88.8815 35.16 88.1989 35.16ZM86.3109 29.928H89.7829C89.7509 29.3413 89.5749 28.904 89.2549 28.616C88.9349 28.328 88.5402 28.184 88.0709 28.184C87.6015 28.184 87.2015 28.3387 86.8709 28.648C86.5402 28.9467 86.3535 29.3733 86.3109 29.928ZM93.9318 35V22.84H96.3638V35H93.9318ZM98.3811 35V26.52H100.797V27.752H100.877C100.973 27.528 101.106 27.3093 101.277 27.096C101.448 26.8827 101.682 26.7067 101.981 26.568C102.28 26.4293 102.664 26.36 103.133 26.36C103.368 26.36 103.554 26.376 103.693 26.408C103.832 26.4293 103.901 26.44 103.901 26.44V28.84C103.901 28.84 103.821 28.824 103.661 28.792C103.512 28.76 103.314 28.744 103.069 28.744C102.312 28.744 101.746 28.952 101.373 29.368C101 29.7733 100.813 30.44 100.813 31.368V35H98.3811ZM106.022 38.12C105.734 38.12 105.505 38.1093 105.334 38.088C105.164 38.0667 105.078 38.056 105.078 38.056V36.104C105.078 36.104 105.148 36.1093 105.286 36.12C105.436 36.1307 105.617 36.136 105.83 36.136C106.342 36.136 106.764 36.0613 107.094 35.912C107.425 35.7733 107.713 35.496 107.958 35.08L104.822 26.52H107.254L109.222 32.264L111.142 26.52H113.59L110.55 34.664C110.273 35.4427 109.937 36.088 109.542 36.6C109.158 37.112 108.684 37.4907 108.118 37.736C107.553 37.992 106.854 38.12 106.022 38.12Z" fill="#171212"/>
<defs>
<clipPath id="clip0_317_705">
<rect width="24" height="24" fill="white" transform="translate(16 17)"/>
</clipPath>
</defs>
</svg>
