<svg width="176" height="58" viewBox="0 0 176 58" fill="none" xmlns="http://www.w3.org/2000/svg">
<rect x="0.5" y="0.5" width="175" height="57" rx="7.5" fill="white"/>
<rect x="0.5" y="0.5" width="175" height="57" rx="7.5" stroke="#D9D9D9"/>
<g clip-path="url(#clip0_317_660)">
<path fill-rule="evenodd" clip-rule="evenodd" d="M39.0306 20.9694L36.0306 17.9694C35.768 17.7071 35.353 17.6764 35.0546 17.8971C34.7562 18.1179 34.6642 18.5237 34.8381 18.8516L29.1737 24.515C27.0372 23.4031 24.6447 23.4959 23.1953 24.9444C22.8128 25.3285 22.5132 25.787 22.315 26.2916C22.1906 26.571 21.9131 26.7508 21.6072 26.75C20.2394 26.7959 19.0516 27.2862 18.1713 28.1666C17.0388 29.3019 16.5625 30.9312 16.8194 32.7566C17.0688 34.5031 17.9753 36.2328 19.375 37.625C20.7747 39.0172 22.5006 39.9275 24.25 40.1769C24.5635 40.2237 24.8799 40.2482 25.1969 40.25C26.6331 40.25 27.8997 39.7597 28.8306 38.8288C29.7109 37.9484 30.2013 36.7606 30.2472 35.3928C30.2469 35.0863 30.4279 34.8085 30.7084 34.685C31.213 34.4869 31.6716 34.1873 32.0556 33.8047C33.5041 32.3553 33.5969 29.9609 32.485 27.8263L38.1484 22.1619C38.4763 22.3358 38.8821 22.2438 39.1029 21.9454C39.3236 21.647 39.2929 21.232 39.0306 20.9694ZM34.75 23.4387L33.5613 22.25L35.875 19.9353L37.0647 21.125L34.75 23.4387ZM31 32.7434C30.7609 32.9815 30.4753 33.1676 30.1609 33.29C29.3261 33.634 28.7741 34.4395 28.7547 35.3422C28.7209 36.3228 28.3797 37.1619 27.7769 37.7684C26.9856 38.5588 25.8081 38.8888 24.4619 38.6956C23.0312 38.4922 21.5997 37.7366 20.4316 36.5684C19.2634 35.4003 18.5078 33.9688 18.3044 32.5447C18.1169 31.1975 18.4413 30.0209 19.2316 29.2297C19.8381 28.625 20.6772 28.2856 21.6578 28.25C22.5606 28.231 23.3664 27.6789 23.71 26.8438C23.8319 26.5277 24.018 26.2404 24.2566 26C24.7712 25.4853 25.4753 25.2378 26.2609 25.2378C26.879 25.2477 27.4888 25.3813 28.0544 25.6306L26.1719 27.5178C24.6095 27.6898 23.4448 29.0386 23.5022 30.6094C23.5597 32.1802 24.8198 33.4403 26.3906 33.4978C27.9614 33.5552 29.3102 32.3905 29.4822 30.8281L31.3647 28.9456C31.9759 30.3791 31.8878 31.8509 31 32.7434ZM30.025 26.9797C30.2231 27.179 30.4088 27.3903 30.5809 27.6125L29.1353 29.0581C28.8595 28.5574 28.4473 28.1452 27.9466 27.8694L29.3922 26.4228C29.6128 26.5954 29.8225 26.7814 30.0203 26.9797H30.025ZM26.5 29C27.3284 29 28 29.6716 28 30.5C28 31.3284 27.3284 32 26.5 32C25.6716 32 25 31.3284 25 30.5C25 29.6716 25.6716 29 26.5 29ZM31.0797 25.9203C30.8807 25.7219 30.6713 25.5342 30.4525 25.3578L32.5 23.3103L33.6897 24.5L31.6431 26.5456C31.4665 26.3273 31.2788 26.1183 31.0806 25.9194L31.0797 25.9203ZM24.7797 35.2194C25.0727 35.5122 25.073 35.9871 24.7802 36.2802C24.4874 36.5732 24.0124 36.5734 23.7194 36.2806L20.7194 33.2806C20.4266 32.9876 20.4268 32.5126 20.7198 32.2198C21.0129 31.927 21.4878 31.9273 21.7806 32.2203L24.7797 35.2194Z" fill="#171212"/>
</g>
<path d="M53.088 35V23.16H56.416L59.12 29.256L61.904 23.16H65.12V35H62.688V26.936L60.256 32.232H57.968L55.52 26.904V35H53.088ZM69.7711 35.16C69.1738 35.16 68.6778 35.032 68.2831 34.776C67.8991 34.52 67.6111 34.1787 67.4191 33.752C67.2271 33.3147 67.1311 32.824 67.1311 32.28V26.52H69.5471V31.8C69.5471 32.2053 69.6538 32.536 69.8671 32.792C70.0805 33.0373 70.3951 33.16 70.8111 33.16C71.1631 33.16 71.4405 33.0747 71.6431 32.904C71.8565 32.7333 72.0111 32.5147 72.1071 32.248C72.2031 31.9813 72.2511 31.6987 72.2511 31.4V26.52H74.6831V35H72.2511V33.8H72.1551C71.9738 34.1307 71.6911 34.44 71.3071 34.728C70.9338 35.016 70.4218 35.16 69.7711 35.16ZM80.1054 35.16C79.4014 35.16 78.82 35.064 78.3614 34.872C77.9027 34.68 77.5347 34.4453 77.2574 34.168C76.9907 33.88 76.788 33.5973 76.6494 33.32C76.5214 33.032 76.436 32.792 76.3934 32.6C76.3614 32.408 76.3454 32.312 76.3454 32.312H78.6014C78.6014 32.312 78.6174 32.3653 78.6494 32.472C78.6814 32.5787 78.7507 32.7013 78.8574 32.84C78.9747 32.9787 79.14 33.1013 79.3534 33.208C79.5667 33.3147 79.8547 33.368 80.2174 33.368C80.6654 33.368 80.9694 33.2773 81.1294 33.096C81.3 32.9147 81.3854 32.7333 81.3854 32.552C81.3854 32.168 81.0707 31.912 80.4414 31.784L79.2894 31.56C78.7987 31.464 78.3347 31.3253 77.8974 31.144C77.4707 30.952 77.124 30.6907 76.8574 30.36C76.6014 30.0187 76.4734 29.5813 76.4734 29.048C76.4734 28.536 76.6067 28.0773 76.8734 27.672C77.14 27.2667 77.5187 26.9467 78.0094 26.712C78.5107 26.4773 79.108 26.36 79.8014 26.36C80.452 26.36 80.9907 26.4507 81.4174 26.632C81.8547 26.8027 82.2014 27.0213 82.4574 27.288C82.7134 27.544 82.9054 27.8053 83.0334 28.072C83.1614 28.328 83.2414 28.5467 83.2734 28.728C83.316 28.8987 83.3374 28.984 83.3374 28.984H81.1614C81.1614 28.984 81.1294 28.9147 81.0654 28.776C81.0014 28.6267 80.868 28.4827 80.6654 28.344C80.4734 28.1947 80.1747 28.12 79.7694 28.12C79.3534 28.12 79.0654 28.2053 78.9054 28.376C78.7454 28.536 78.6654 28.7067 78.6654 28.888C78.6654 29.1013 78.756 29.2613 78.9374 29.368C79.1294 29.4747 79.3747 29.56 79.6734 29.624L80.7774 29.848C81.588 30.008 82.2547 30.2907 82.7774 30.696C83.3 31.0907 83.5614 31.6667 83.5614 32.424C83.5614 32.936 83.428 33.4 83.1614 33.816C82.8947 34.232 82.5054 34.5627 81.9934 34.808C81.4814 35.0427 80.852 35.16 80.1054 35.16ZM86.5711 25.368C86.1445 25.368 85.7978 25.2347 85.5311 24.968C85.2645 24.6907 85.1311 24.3653 85.1311 23.992C85.1311 23.5973 85.2645 23.2667 85.5311 23C85.7978 22.7227 86.1445 22.584 86.5711 22.584C86.9765 22.584 87.3178 22.7227 87.5951 23C87.8725 23.2667 88.0111 23.5973 88.0111 23.992C88.0111 24.3653 87.8725 24.6907 87.5951 24.968C87.3178 25.2347 86.9765 25.368 86.5711 25.368ZM85.3551 35V26.52H87.7871V35H85.3551ZM94.1695 35.16C93.4228 35.16 92.7722 35.0373 92.2175 34.792C91.6628 34.536 91.2042 34.2 90.8415 33.784C90.4788 33.368 90.2068 32.8987 90.0255 32.376C89.8442 31.8427 89.7535 31.304 89.7535 30.76C89.7535 30.216 89.8442 29.6827 90.0255 29.16C90.2068 28.6373 90.4788 28.168 90.8415 27.752C91.2042 27.3253 91.6628 26.9893 92.2175 26.744C92.7722 26.488 93.4228 26.36 94.1695 26.36C94.9268 26.36 95.5508 26.472 96.0415 26.696C96.5322 26.9093 96.9215 27.1813 97.2095 27.512C97.5082 27.832 97.7268 28.1573 97.8655 28.488C98.0042 28.808 98.0895 29.08 98.1215 29.304C98.1642 29.5173 98.1855 29.624 98.1855 29.624H95.9135C95.9135 29.624 95.8922 29.56 95.8495 29.432C95.8175 29.2933 95.7428 29.1387 95.6255 28.968C95.5188 28.7867 95.3535 28.632 95.1295 28.504C94.9055 28.3653 94.6068 28.296 94.2335 28.296C93.7748 28.296 93.3908 28.4133 93.0815 28.648C92.7828 28.872 92.5588 29.1707 92.4095 29.544C92.2602 29.9173 92.1855 30.3227 92.1855 30.76C92.1855 31.1973 92.2602 31.6027 92.4095 31.976C92.5588 32.3493 92.7828 32.6533 93.0815 32.888C93.3908 33.112 93.7748 33.224 94.2335 33.224C94.6068 33.224 94.9055 33.16 95.1295 33.032C95.3535 32.8933 95.5188 32.7387 95.6255 32.568C95.7428 32.3867 95.8175 32.232 95.8495 32.104C95.8922 31.9653 95.9135 31.896 95.9135 31.896H98.1855C98.1855 31.896 98.1642 32.008 98.1215 32.232C98.0895 32.4453 98.0042 32.7173 97.8655 33.048C97.7268 33.368 97.5082 33.6933 97.2095 34.024C96.9215 34.344 96.5322 34.616 96.0415 34.84C95.5508 35.0533 94.9268 35.16 94.1695 35.16Z" fill="#171212"/>
<defs>
<clipPath id="clip0_317_660">
<rect width="24" height="24" fill="white" transform="translate(16 17)"/>
</clipPath>
</defs>
</svg>
