<svg width="176" height="58" viewBox="0 0 176 58" fill="none" xmlns="http://www.w3.org/2000/svg">
<rect x="0.5" y="0.5" width="175" height="57" rx="7.5" fill="white"/>
<rect x="0.5" y="0.5" width="175" height="57" rx="7.5" stroke="#D9D9D9"/>
<g clip-path="url(#clip0_317_696)">
<path fill-rule="evenodd" clip-rule="evenodd" d="M36.1253 23.75H34.75V20.75C34.75 20.3358 34.4142 20 34 20H22C21.5858 20 21.25 20.3358 21.25 20.75V23.75H19.8747C18.565 23.75 17.5 24.7597 17.5 26V33.5C17.5 33.9142 17.8358 34.25 18.25 34.25H21.25V37.25C21.25 37.6642 21.5858 38 22 38H34C34.4142 38 34.75 37.6642 34.75 37.25V34.25H37.75C38.1642 34.25 38.5 33.9142 38.5 33.5V26C38.5 24.7597 37.435 23.75 36.1253 23.75ZM22.75 21.5H33.25V23.75H22.75V21.5ZM33.25 36.5H22.75V32H33.25V36.5ZM37 32.75H34.75V31.25C34.75 30.8358 34.4142 30.5 34 30.5H22C21.5858 30.5 21.25 30.8358 21.25 31.25V32.75H19V26C19 25.5866 19.3928 25.25 19.8747 25.25H36.1253C36.6072 25.25 37 25.5866 37 26V32.75ZM34.75 27.875C34.75 28.4963 34.2463 29 33.625 29C33.0037 29 32.5 28.4963 32.5 27.875C32.5 27.2537 33.0037 26.75 33.625 26.75C34.2463 26.75 34.75 27.2537 34.75 27.875Z" fill="#171212"/>
</g>
<path d="M53.088 35V23.16H57.968C58.9387 23.16 59.744 23.352 60.384 23.736C61.0347 24.12 61.52 24.616 61.84 25.224C62.1707 25.8213 62.336 26.4453 62.336 27.096C62.336 27.768 62.1707 28.408 61.84 29.016C61.52 29.6133 61.0347 30.104 60.384 30.488C59.744 30.872 58.9387 31.064 57.968 31.064H55.552V35H53.088ZM57.968 25.32H55.552V28.92H57.968C58.384 28.92 58.7307 28.8347 59.008 28.664C59.2853 28.4827 59.4933 28.2587 59.632 27.992C59.7813 27.7147 59.856 27.4213 59.856 27.112C59.856 26.8133 59.7813 26.5253 59.632 26.248C59.4933 25.9707 59.2853 25.7467 59.008 25.576C58.7307 25.4053 58.384 25.32 57.968 25.32ZM63.7874 35V26.52H66.2034V27.752H66.2834C66.3794 27.528 66.5127 27.3093 66.6834 27.096C66.854 26.8827 67.0887 26.7067 67.3874 26.568C67.686 26.4293 68.07 26.36 68.5394 26.36C68.774 26.36 68.9607 26.376 69.0994 26.408C69.238 26.4293 69.3074 26.44 69.3074 26.44V28.84C69.3074 28.84 69.2274 28.824 69.0674 28.792C68.918 28.76 68.7207 28.744 68.4754 28.744C67.718 28.744 67.1527 28.952 66.7794 29.368C66.406 29.7733 66.2194 30.44 66.2194 31.368V35H63.7874ZM72.3055 25.368C71.8788 25.368 71.5322 25.2347 71.2655 24.968C70.9988 24.6907 70.8655 24.3653 70.8655 23.992C70.8655 23.5973 70.9988 23.2667 71.2655 23C71.5322 22.7227 71.8788 22.584 72.3055 22.584C72.7108 22.584 73.0522 22.7227 73.3295 23C73.6068 23.2667 73.7455 23.5973 73.7455 23.992C73.7455 24.3653 73.6068 24.6907 73.3295 24.968C73.0522 25.2347 72.7108 25.368 72.3055 25.368ZM71.0895 35V26.52H73.5215V35H71.0895ZM75.5999 35V26.52H78.0319V27.736H78.1119C78.2079 27.5653 78.3465 27.3733 78.5279 27.16C78.7199 26.9467 78.9705 26.76 79.2799 26.6C79.5999 26.44 80.0052 26.36 80.4959 26.36C81.1572 26.36 81.6959 26.5147 82.1119 26.824C82.5279 27.1227 82.8319 27.512 83.0239 27.992C83.2159 28.4613 83.3119 28.9573 83.3119 29.48V35H80.8799V29.896C80.8799 29.4907 80.7679 29.1333 80.5439 28.824C80.3305 28.5147 79.9839 28.36 79.5039 28.36C79.1412 28.36 78.8532 28.4453 78.6399 28.616C78.4265 28.7867 78.2719 29.0053 78.1759 29.272C78.0799 29.5387 78.0319 29.8213 78.0319 30.12V35H75.5999ZM88.9894 35.16C88.328 35.16 87.8 35.064 87.4054 34.872C87.0107 34.6693 86.712 34.4187 86.5094 34.12C86.3067 33.8107 86.1734 33.4853 86.1094 33.144C86.0454 32.8027 86.0134 32.488 86.0134 32.2V28.456H84.5734V26.52H86.0134V24.424H88.4454V26.52H90.2534V28.456H88.4454V32.136C88.4454 32.488 88.536 32.76 88.7174 32.952C88.9094 33.144 89.224 33.24 89.6614 33.24C89.8534 33.24 90.0294 33.224 90.1894 33.192C90.3494 33.16 90.4294 33.144 90.4294 33.144V35.016C90.4294 35.016 90.2854 35.0373 89.9974 35.08C89.7094 35.1333 89.3734 35.16 88.9894 35.16ZM96.152 35.16C95.4053 35.16 94.76 35.0373 94.216 34.792C93.672 34.536 93.224 34.2 92.872 33.784C92.52 33.3573 92.2533 32.8827 92.072 32.36C91.9013 31.8373 91.816 31.2987 91.816 30.744C91.816 30.2107 91.896 29.688 92.056 29.176C92.2267 28.6533 92.4827 28.1787 92.824 27.752C93.176 27.3253 93.6187 26.9893 94.152 26.744C94.696 26.488 95.336 26.36 96.072 26.36C96.8507 26.36 97.5387 26.5307 98.136 26.872C98.744 27.2133 99.2187 27.72 99.56 28.392C99.9013 29.0533 100.072 29.8587 100.072 30.808V31.4H94.264C94.296 31.912 94.472 32.3547 94.792 32.728C95.1227 33.1013 95.576 33.288 96.152 33.288C96.4827 33.288 96.7493 33.24 96.952 33.144C97.1653 33.0373 97.3307 32.92 97.448 32.792C97.5653 32.6533 97.6453 32.5307 97.688 32.424C97.7307 32.3173 97.752 32.264 97.752 32.264H99.992C99.992 32.264 99.9653 32.3653 99.912 32.568C99.8693 32.76 99.7733 33 99.624 33.288C99.4747 33.576 99.256 33.864 98.968 34.152C98.6907 34.44 98.3227 34.68 97.864 34.872C97.4053 35.064 96.8347 35.16 96.152 35.16ZM94.264 29.928H97.736C97.704 29.3413 97.528 28.904 97.208 28.616C96.888 28.328 96.4933 28.184 96.024 28.184C95.5547 28.184 95.1547 28.3387 94.824 28.648C94.4933 28.9467 94.3067 29.3733 94.264 29.928ZM101.819 35V26.52H104.235V27.752H104.315C104.411 27.528 104.544 27.3093 104.715 27.096C104.885 26.8827 105.12 26.7067 105.419 26.568C105.717 26.4293 106.101 26.36 106.571 26.36C106.805 26.36 106.992 26.376 107.131 26.408C107.269 26.4293 107.339 26.44 107.339 26.44V28.84C107.339 28.84 107.259 28.824 107.099 28.792C106.949 28.76 106.752 28.744 106.507 28.744C105.749 28.744 105.184 28.952 104.811 29.368C104.437 29.7733 104.251 30.44 104.251 31.368V35H101.819Z" fill="#171212"/>
<defs>
<clipPath id="clip0_317_696">
<rect width="24" height="24" fill="white" transform="translate(16 17)"/>
</clipPath>
</defs>
</svg>
