<svg width="176" height="74" viewBox="0 0 176 74" fill="none" xmlns="http://www.w3.org/2000/svg">
<rect x="0.5" y="0.5" width="175" height="73" rx="7.5" fill="white"/>
<rect x="0.5" y="0.5" width="175" height="73" rx="7.5" stroke="#D9D9D9"/>
<g clip-path="url(#clip0_317_588)">
<path fill-rule="evenodd" clip-rule="evenodd" d="M32.5 26.5H23.5C22.2574 26.5 21.25 27.5074 21.25 28.75V45.25C21.25 46.4926 22.2574 47.5 23.5 47.5H32.5C33.7426 47.5 34.75 46.4926 34.75 45.25V28.75C34.75 27.5074 33.7426 26.5 32.5 26.5ZM22.75 31H33.25V43H22.75V31ZM23.5 28H32.5C32.9142 28 33.25 28.3358 33.25 28.75V29.5H22.75V28.75C22.75 28.3358 23.0858 28 23.5 28ZM32.5 46H23.5C23.0858 46 22.75 45.6642 22.75 45.25V44.5H33.25V45.25C33.25 45.6642 32.9142 46 32.5 46Z" fill="#171212"/>
</g>
<path d="M57.504 33.16C56.736 33.16 56.08 33.0693 55.536 32.888C55.0027 32.696 54.5547 32.456 54.192 32.168C53.84 31.8693 53.5573 31.56 53.344 31.24C53.1307 30.9093 52.9707 30.6 52.864 30.312C52.768 30.0133 52.704 29.7733 52.672 29.592C52.6507 29.4 52.64 29.304 52.64 29.304H55.136C55.136 29.304 55.1573 29.3947 55.2 29.576C55.2533 29.7573 55.36 29.9707 55.52 30.216C55.68 30.4507 55.9253 30.6587 56.256 30.84C56.5867 31.0107 57.0347 31.096 57.6 31.096C58.2933 31.096 58.8053 30.952 59.136 30.664C59.4667 30.3653 59.632 30.0133 59.632 29.608C59.632 29.2453 59.504 28.9573 59.248 28.744C59.0027 28.5307 58.6187 28.3707 58.096 28.264L56.512 27.96C55.872 27.8427 55.2747 27.656 54.72 27.4C54.176 27.144 53.7333 26.792 53.392 26.344C53.0507 25.8853 52.88 25.2987 52.88 24.584C52.88 23.8587 53.0613 23.2293 53.424 22.696C53.7867 22.152 54.2933 21.736 54.944 21.448C55.6053 21.1493 56.3787 21 57.264 21C58.096 21 58.784 21.1227 59.328 21.368C59.8827 21.6027 60.32 21.896 60.64 22.248C60.9707 22.5893 61.2107 22.936 61.36 23.288C61.52 23.64 61.6213 23.9333 61.664 24.168C61.7173 24.4027 61.744 24.52 61.744 24.52H59.312C59.312 24.52 59.2907 24.4453 59.248 24.296C59.216 24.1467 59.1307 23.976 58.992 23.784C58.8533 23.592 58.64 23.4213 58.352 23.272C58.0747 23.1227 57.6907 23.048 57.2 23.048C56.528 23.048 56.0427 23.1973 55.744 23.496C55.4453 23.784 55.296 24.0987 55.296 24.44C55.296 24.792 55.4453 25.064 55.744 25.256C56.0427 25.448 56.432 25.592 56.912 25.688L58.592 26.024C59.232 26.1413 59.8187 26.3387 60.352 26.616C60.8853 26.8933 61.3067 27.2667 61.616 27.736C61.936 28.1947 62.096 28.7653 62.096 29.448C62.096 30.152 61.92 30.7867 61.568 31.352C61.216 31.9067 60.6987 32.3493 60.016 32.68C59.3333 33 58.496 33.16 57.504 33.16ZM63.5843 33V24.52H66.0163V25.672H66.0963C66.2776 25.3627 66.5496 25.0693 66.9123 24.792C67.2749 24.504 67.7709 24.36 68.4003 24.36C69.0403 24.36 69.5523 24.5093 69.9363 24.808C70.3309 25.1067 70.6189 25.4747 70.8003 25.912H70.8323C70.9709 25.6667 71.1523 25.4267 71.3763 25.192C71.6109 24.9467 71.8989 24.7493 72.2403 24.6C72.5923 24.44 73.0029 24.36 73.4723 24.36C74.0589 24.36 74.5443 24.4933 74.9283 24.76C75.3123 25.0267 75.5949 25.3787 75.7763 25.816C75.9683 26.2427 76.0643 26.7013 76.0643 27.192V33H73.6323V27.8C73.6323 27.384 73.5256 27.0427 73.3123 26.776C73.1096 26.4987 72.8003 26.36 72.3843 26.36C72.0643 26.36 71.8029 26.44 71.6003 26.6C71.4083 26.76 71.2643 26.968 71.1683 27.224C71.0829 27.4693 71.0403 27.7253 71.0403 27.992V33H68.6083V27.8C68.6083 27.384 68.5016 27.0427 68.2883 26.776C68.0856 26.4987 67.7763 26.36 67.3602 26.36C67.0402 26.36 66.7789 26.44 66.5763 26.6C66.3843 26.76 66.2403 26.968 66.1443 27.224C66.0589 27.4693 66.0163 27.7253 66.0163 27.992V33H63.5843ZM81.4503 24.36C81.9943 24.36 82.4423 24.4507 82.7943 24.632C83.1463 24.8027 83.4129 24.9893 83.5943 25.192C83.7863 25.3947 83.9036 25.5333 83.9463 25.608H84.0743V24.52H86.5063V33H84.0743V31.912H83.9463C83.9036 31.9867 83.7863 32.1253 83.5943 32.328C83.4129 32.5307 83.1463 32.7227 82.7943 32.904C82.4423 33.0747 81.9943 33.16 81.4503 33.16C80.8209 33.16 80.2716 33.0373 79.8023 32.792C79.3436 32.536 78.9596 32.2 78.6503 31.784C78.3409 31.3573 78.1063 30.8827 77.9463 30.36C77.7969 29.8373 77.7223 29.304 77.7223 28.76C77.7223 28.216 77.7969 27.6827 77.9463 27.16C78.1063 26.6373 78.3409 26.168 78.6503 25.752C78.9596 25.3253 79.3436 24.9893 79.8023 24.744C80.2716 24.488 80.8209 24.36 81.4503 24.36ZM82.1543 26.328C81.7169 26.328 81.3489 26.4507 81.0503 26.696C80.7623 26.9307 80.5436 27.2347 80.3943 27.608C80.2556 27.9813 80.1863 28.3653 80.1863 28.76C80.1863 29.1547 80.2556 29.5387 80.3943 29.912C80.5436 30.2853 80.7623 30.5947 81.0503 30.84C81.3489 31.0747 81.7169 31.192 82.1543 31.192C82.5916 31.192 82.9543 31.0747 83.2423 30.84C83.5409 30.5947 83.7596 30.2853 83.8983 29.912C84.0476 29.5387 84.1223 29.1547 84.1223 28.76C84.1223 28.3653 84.0476 27.9813 83.8983 27.608C83.7596 27.2347 83.5409 26.9307 83.2423 26.696C82.9543 26.4507 82.5916 26.328 82.1543 26.328ZM88.3655 33V24.52H90.7815V25.752H90.8615C90.9575 25.528 91.0908 25.3093 91.2615 25.096C91.4322 24.8827 91.6668 24.7067 91.9655 24.568C92.2642 24.4293 92.6482 24.36 93.1175 24.36C93.3522 24.36 93.5388 24.376 93.6775 24.408C93.8162 24.4293 93.8855 24.44 93.8855 24.44V26.84C93.8855 26.84 93.8055 26.824 93.6455 26.792C93.4962 26.76 93.2988 26.744 93.0535 26.744C92.2962 26.744 91.7308 26.952 91.3575 27.368C90.9842 27.7733 90.7975 28.44 90.7975 29.368V33H88.3655ZM99.2706 33.16C98.6093 33.16 98.0813 33.064 97.6866 32.872C97.292 32.6693 96.9933 32.4187 96.7906 32.12C96.588 31.8107 96.4546 31.4853 96.3906 31.144C96.3266 30.8027 96.2946 30.488 96.2946 30.2V26.456H94.8546V24.52H96.2946V22.424H98.7266V24.52H100.535V26.456H98.7266V30.136C98.7266 30.488 98.8173 30.76 98.9986 30.952C99.1906 31.144 99.5053 31.24 99.9426 31.24C100.135 31.24 100.311 31.224 100.471 31.192C100.631 31.16 100.711 31.144 100.711 31.144V33.016C100.711 33.016 100.567 33.0373 100.279 33.08C99.9906 33.1333 99.6546 33.16 99.2706 33.16ZM53.088 53V41.16H57.968C58.9387 41.16 59.744 41.352 60.384 41.736C61.0347 42.12 61.52 42.616 61.84 43.224C62.1707 43.8213 62.336 44.4453 62.336 45.096C62.336 45.768 62.1707 46.408 61.84 47.016C61.52 47.6133 61.0347 48.104 60.384 48.488C59.744 48.872 58.9387 49.064 57.968 49.064H55.552V53H53.088ZM57.968 43.32H55.552V46.92H57.968C58.384 46.92 58.7307 46.8347 59.008 46.664C59.2853 46.4827 59.4933 46.2587 59.632 45.992C59.7813 45.7147 59.856 45.4213 59.856 45.112C59.856 44.8133 59.7813 44.5253 59.632 44.248C59.4933 43.9707 59.2853 43.7467 59.008 43.576C58.7307 43.4053 58.384 43.32 57.968 43.32ZM63.9474 53V40.84H66.3794V45.736H66.4594C66.5554 45.5653 66.694 45.3733 66.8754 45.16C67.0674 44.9467 67.318 44.76 67.6274 44.6C67.9474 44.44 68.3527 44.36 68.8434 44.36C69.5047 44.36 70.0434 44.5147 70.4594 44.824C70.8754 45.1227 71.1794 45.512 71.3714 45.992C71.5634 46.4613 71.6594 46.9573 71.6594 47.48V53H69.2274V47.896C69.2274 47.4907 69.1154 47.1333 68.8914 46.824C68.678 46.5147 68.3314 46.36 67.8514 46.36C67.4887 46.36 67.2007 46.4453 66.9874 46.616C66.774 46.7867 66.6194 47.0053 66.5234 47.272C66.4274 47.5387 66.3794 47.8213 66.3794 48.12V53H63.9474ZM77.764 53.16C76.8147 53.16 76.0093 52.9573 75.348 52.552C74.6867 52.136 74.18 51.5973 73.828 50.936C73.4867 50.264 73.316 49.5387 73.316 48.76C73.316 47.9813 73.4867 47.2613 73.828 46.6C74.18 45.928 74.6867 45.3893 75.348 44.984C76.0093 44.568 76.8147 44.36 77.764 44.36C78.7133 44.36 79.5187 44.568 80.18 44.984C80.8413 45.3893 81.3427 45.928 81.684 46.6C82.036 47.2613 82.212 47.9813 82.212 48.76C82.212 49.5387 82.036 50.264 81.684 50.936C81.3427 51.5973 80.8413 52.136 80.18 52.552C79.5187 52.9573 78.7133 53.16 77.764 53.16ZM77.764 51.176C78.1907 51.176 78.548 51.064 78.836 50.84C79.1347 50.616 79.364 50.3227 79.524 49.96C79.684 49.5867 79.764 49.1867 79.764 48.76C79.764 48.3227 79.684 47.9227 79.524 47.56C79.364 47.1973 79.1347 46.904 78.836 46.68C78.548 46.456 78.1907 46.344 77.764 46.344C77.3373 46.344 76.9747 46.456 76.676 46.68C76.3773 46.904 76.148 47.1973 75.988 47.56C75.8387 47.9227 75.764 48.3227 75.764 48.76C75.764 49.1867 75.8387 49.5867 75.988 49.96C76.148 50.3227 76.3773 50.616 76.676 50.84C76.9747 51.064 77.3373 51.176 77.764 51.176ZM83.8655 53V44.52H86.2975V45.736H86.3775C86.4735 45.5653 86.6122 45.3733 86.7935 45.16C86.9855 44.9467 87.2362 44.76 87.5455 44.6C87.8655 44.44 88.2708 44.36 88.7615 44.36C89.4228 44.36 89.9615 44.5147 90.3775 44.824C90.7935 45.1227 91.0975 45.512 91.2895 45.992C91.4815 46.4613 91.5775 46.9573 91.5775 47.48V53H89.1455V47.896C89.1455 47.4907 89.0335 47.1333 88.8095 46.824C88.5962 46.5147 88.2495 46.36 87.7695 46.36C87.4068 46.36 87.1188 46.4453 86.9055 46.616C86.6922 46.7867 86.5375 47.0053 86.4415 47.272C86.3455 47.5387 86.2975 47.8213 86.2975 48.12V53H83.8655ZM97.5583 53.16C96.8116 53.16 96.1663 53.0373 95.6223 52.792C95.0783 52.536 94.6303 52.2 94.2783 51.784C93.9263 51.3573 93.6596 50.8827 93.4783 50.36C93.3076 49.8373 93.2223 49.2987 93.2223 48.744C93.2223 48.2107 93.3023 47.688 93.4622 47.176C93.6329 46.6533 93.8889 46.1787 94.2303 45.752C94.5823 45.3253 95.0249 44.9893 95.5583 44.744C96.1023 44.488 96.7423 44.36 97.4783 44.36C98.2569 44.36 98.9449 44.5307 99.5423 44.872C100.15 45.2133 100.625 45.72 100.966 46.392C101.308 47.0533 101.478 47.8587 101.478 48.808V49.4H95.6703C95.7023 49.912 95.8783 50.3547 96.1983 50.728C96.5289 51.1013 96.9823 51.288 97.5583 51.288C97.8889 51.288 98.1556 51.24 98.3583 51.144C98.5716 51.0373 98.7369 50.92 98.8543 50.792C98.9716 50.6533 99.0516 50.5307 99.0943 50.424C99.1369 50.3173 99.1583 50.264 99.1583 50.264H101.398C101.398 50.264 101.372 50.3653 101.318 50.568C101.276 50.76 101.18 51 101.03 51.288C100.881 51.576 100.662 51.864 100.374 52.152C100.097 52.44 99.7289 52.68 99.2703 52.872C98.8116 53.064 98.2409 53.16 97.5583 53.16ZM95.6703 47.928H99.1423C99.1103 47.3413 98.9343 46.904 98.6143 46.616C98.2943 46.328 97.8996 46.184 97.4303 46.184C96.9609 46.184 96.5609 46.3387 96.2303 46.648C95.8996 46.9467 95.7129 47.3733 95.6703 47.928ZM106.793 53.16C106.089 53.16 105.508 53.064 105.049 52.872C104.59 52.68 104.222 52.4453 103.945 52.168C103.678 51.88 103.476 51.5973 103.337 51.32C103.209 51.032 103.124 50.792 103.081 50.6C103.049 50.408 103.033 50.312 103.033 50.312H105.289C105.289 50.312 105.305 50.3653 105.337 50.472C105.369 50.5787 105.438 50.7013 105.545 50.84C105.662 50.9787 105.828 51.1013 106.041 51.208C106.254 51.3147 106.542 51.368 106.905 51.368C107.353 51.368 107.657 51.2773 107.817 51.096C107.988 50.9147 108.073 50.7333 108.073 50.552C108.073 50.168 107.758 49.912 107.129 49.784L105.977 49.56C105.486 49.464 105.022 49.3253 104.585 49.144C104.158 48.952 103.812 48.6907 103.545 48.36C103.289 48.0187 103.161 47.5813 103.161 47.048C103.161 46.536 103.294 46.0773 103.561 45.672C103.828 45.2667 104.206 44.9467 104.697 44.712C105.198 44.4773 105.796 44.36 106.489 44.36C107.14 44.36 107.678 44.4507 108.105 44.632C108.542 44.8027 108.889 45.0213 109.145 45.288C109.401 45.544 109.593 45.8053 109.721 46.072C109.849 46.328 109.929 46.5467 109.961 46.728C110.004 46.8987 110.025 46.984 110.025 46.984H107.849C107.849 46.984 107.817 46.9147 107.753 46.776C107.689 46.6267 107.556 46.4827 107.353 46.344C107.161 46.1947 106.862 46.12 106.457 46.12C106.041 46.12 105.753 46.2053 105.593 46.376C105.433 46.536 105.353 46.7067 105.353 46.888C105.353 47.1013 105.444 47.2613 105.625 47.368C105.817 47.4747 106.062 47.56 106.361 47.624L107.465 47.848C108.276 48.008 108.942 48.2907 109.465 48.696C109.988 49.0907 110.249 49.6667 110.249 50.424C110.249 50.936 110.116 51.4 109.849 51.816C109.582 52.232 109.193 52.5627 108.681 52.808C108.169 53.0427 107.54 53.16 106.793 53.16Z" fill="#171212"/>
<defs>
<clipPath id="clip0_317_588">
<rect width="24" height="24" fill="white" transform="translate(16 25)"/>
</clipPath>
</defs>
</svg>
