<svg width="176" height="58" viewBox="0 0 176 58" fill="none" xmlns="http://www.w3.org/2000/svg">
<rect x="0.5" y="0.5" width="175" height="57" rx="7.5" fill="white"/>
<rect x="0.5" y="0.5" width="175" height="57" rx="7.5" stroke="#D9D9D9"/>
<g clip-path="url(#clip0_317_714)">
<path fill-rule="evenodd" clip-rule="evenodd" d="M37.75 32.75H37V23.75C37 22.5074 35.9926 21.5 34.75 21.5H21.25C20.0074 21.5 19 22.5074 19 23.75V32.75H18.25C17.8358 32.75 17.5 33.0858 17.5 33.5V35C17.5 36.2426 18.5074 37.25 19.75 37.25H36.25C37.4926 37.25 38.5 36.2426 38.5 35V33.5C38.5 33.0858 38.1642 32.75 37.75 32.75ZM20.5 23.75C20.5 23.3358 20.8358 23 21.25 23H34.75C35.1642 23 35.5 23.3358 35.5 23.75V32.75H20.5V23.75ZM37 35C37 35.4142 36.6642 35.75 36.25 35.75H19.75C19.3358 35.75 19 35.4142 19 35V34.25H37V35ZM30.25 25.25C30.25 25.6642 29.9142 26 29.5 26H26.5C26.0858 26 25.75 25.6642 25.75 25.25C25.75 24.8358 26.0858 24.5 26.5 24.5H29.5C29.9142 24.5 30.25 24.8358 30.25 25.25Z" fill="#171212"/>
</g>
<path d="M56.256 35V25.304H52.624V23.16H62.352V25.304H58.72V35H56.256ZM66.4958 35.16C65.7491 35.16 65.1038 35.0373 64.5598 34.792C64.0158 34.536 63.5678 34.2 63.2158 33.784C62.8638 33.3573 62.5971 32.8827 62.4158 32.36C62.2451 31.8373 62.1598 31.2987 62.1598 30.744C62.1598 30.2107 62.2398 29.688 62.3997 29.176C62.5704 28.6533 62.8264 28.1787 63.1678 27.752C63.5198 27.3253 63.9624 26.9893 64.4958 26.744C65.0398 26.488 65.6798 26.36 66.4158 26.36C67.1944 26.36 67.8824 26.5307 68.4798 26.872C69.0878 27.2133 69.5624 27.72 69.9038 28.392C70.2451 29.0533 70.4158 29.8587 70.4158 30.808V31.4H64.6078C64.6398 31.912 64.8158 32.3547 65.1358 32.728C65.4664 33.1013 65.9198 33.288 66.4958 33.288C66.8264 33.288 67.0931 33.24 67.2958 33.144C67.5091 33.0373 67.6744 32.92 67.7918 32.792C67.9091 32.6533 67.9891 32.5307 68.0318 32.424C68.0744 32.3173 68.0958 32.264 68.0958 32.264H70.3358C70.3358 32.264 70.3091 32.3653 70.2558 32.568C70.2131 32.76 70.1171 33 69.9678 33.288C69.8184 33.576 69.5998 33.864 69.3118 34.152C69.0344 34.44 68.6664 34.68 68.2078 34.872C67.7491 35.064 67.1784 35.16 66.4958 35.16ZM64.6078 29.928H68.0798C68.0478 29.3413 67.8718 28.904 67.5518 28.616C67.2318 28.328 66.8371 28.184 66.3678 28.184C65.8984 28.184 65.4984 28.3387 65.1678 28.648C64.8371 28.9467 64.6504 29.3733 64.6078 29.928ZM76.3883 35.16C75.6416 35.16 74.9909 35.0373 74.4363 34.792C73.8816 34.536 73.4229 34.2 73.0603 33.784C72.6976 33.368 72.4256 32.8987 72.2443 32.376C72.0629 31.8427 71.9723 31.304 71.9723 30.76C71.9723 30.216 72.0629 29.6827 72.2443 29.16C72.4256 28.6373 72.6976 28.168 73.0603 27.752C73.4229 27.3253 73.8816 26.9893 74.4363 26.744C74.9909 26.488 75.6416 26.36 76.3883 26.36C77.1456 26.36 77.7696 26.472 78.2603 26.696C78.7509 26.9093 79.1403 27.1813 79.4283 27.512C79.7269 27.832 79.9456 28.1573 80.0843 28.488C80.2229 28.808 80.3083 29.08 80.3403 29.304C80.3829 29.5173 80.4043 29.624 80.4043 29.624H78.1323C78.1323 29.624 78.1109 29.56 78.0683 29.432C78.0363 29.2933 77.9616 29.1387 77.8443 28.968C77.7376 28.7867 77.5723 28.632 77.3483 28.504C77.1243 28.3653 76.8256 28.296 76.4523 28.296C75.9936 28.296 75.6096 28.4133 75.3003 28.648C75.0016 28.872 74.7776 29.1707 74.6283 29.544C74.4789 29.9173 74.4043 30.3227 74.4043 30.76C74.4043 31.1973 74.4789 31.6027 74.6283 31.976C74.7776 32.3493 75.0016 32.6533 75.3003 32.888C75.6096 33.112 75.9936 33.224 76.4523 33.224C76.8256 33.224 77.1243 33.16 77.3483 33.032C77.5723 32.8933 77.7376 32.7387 77.8443 32.568C77.9616 32.3867 78.0363 32.232 78.0683 32.104C78.1109 31.9653 78.1323 31.896 78.1323 31.896H80.4043C80.4043 31.896 80.3829 32.008 80.3403 32.232C80.3083 32.4453 80.2229 32.7173 80.0843 33.048C79.9456 33.368 79.7269 33.6933 79.4283 34.024C79.1403 34.344 78.7509 34.616 78.2603 34.84C77.7696 35.0533 77.1456 35.16 76.3883 35.16ZM82.3068 35V22.84H84.7388V27.736H84.8188C84.9148 27.5653 85.0534 27.3733 85.2348 27.16C85.4268 26.9467 85.6774 26.76 85.9868 26.6C86.3068 26.44 86.7121 26.36 87.2028 26.36C87.8641 26.36 88.4028 26.5147 88.8188 26.824C89.2348 27.1227 89.5388 27.512 89.7308 27.992C89.9228 28.4613 90.0188 28.9573 90.0188 29.48V35H87.5868V29.896C87.5868 29.4907 87.4748 29.1333 87.2508 28.824C87.0374 28.5147 86.6908 28.36 86.2108 28.36C85.8481 28.36 85.5601 28.4453 85.3468 28.616C85.1334 28.7867 84.9788 29.0053 84.8828 29.272C84.7868 29.5387 84.7388 29.8213 84.7388 30.12V35H82.3068Z" fill="#171212"/>
<defs>
<clipPath id="clip0_317_714">
<rect width="24" height="24" fill="white" transform="translate(16 17)"/>
</clipPath>
</defs>
</svg>
