<svg width="176" height="58" viewBox="0 0 176 58" fill="none" xmlns="http://www.w3.org/2000/svg">
<rect x="0.5" y="0.5" width="175" height="57" rx="7.5" fill="white"/>
<rect x="0.5" y="0.5" width="175" height="57" rx="7.5" stroke="#D9D9D9"/>
<g clip-path="url(#clip0_317_633)">
<path fill-rule="evenodd" clip-rule="evenodd" d="M31.75 20H24.25C21.3518 20.0031 19.0031 22.3518 19 25.25V32.75C19.0031 35.6482 21.3518 37.9969 24.25 38H28.75C28.8306 37.9999 28.9107 37.9869 28.9872 37.9616C31.4462 37.1413 36.1413 32.4462 36.9616 29.9872C36.9869 29.9107 36.9999 29.8306 37 29.75V25.25C36.9969 22.3518 34.6482 20.0031 31.75 20ZM20.5 32.75V25.25C20.5 23.1789 22.1789 21.5 24.25 21.5H31.75C33.8211 21.5 35.5 23.1789 35.5 25.25V29H33.25C30.3518 29.0031 28.0031 31.3518 28 34.25V36.5H24.25C22.1789 36.5 20.5 34.8211 20.5 32.75ZM29.5 36.0444V34.25C29.5 32.1789 31.1789 30.5 33.25 30.5H35.0444C33.9062 32.3281 31.3281 34.9062 29.5 36.0444Z" fill="#171212"/>
</g>
<path d="M56.256 35V25.304H52.624V23.16H62.352V25.304H58.72V35H56.256ZM66.6078 35.16C65.6584 35.16 64.8531 34.9573 64.1918 34.552C63.5304 34.136 63.0238 33.5973 62.6718 32.936C62.3304 32.264 62.1598 31.5387 62.1598 30.76C62.1598 29.9813 62.3304 29.2613 62.6718 28.6C63.0238 27.928 63.5304 27.3893 64.1918 26.984C64.8531 26.568 65.6584 26.36 66.6078 26.36C67.5571 26.36 68.3624 26.568 69.0238 26.984C69.6851 27.3893 70.1864 27.928 70.5278 28.6C70.8798 29.2613 71.0558 29.9813 71.0558 30.76C71.0558 31.5387 70.8798 32.264 70.5278 32.936C70.1864 33.5973 69.6851 34.136 69.0238 34.552C68.3624 34.9573 67.5571 35.16 66.6078 35.16ZM66.6078 33.176C67.0344 33.176 67.3918 33.064 67.6798 32.84C67.9784 32.616 68.2078 32.3227 68.3678 31.96C68.5278 31.5867 68.6078 31.1867 68.6078 30.76C68.6078 30.3227 68.5278 29.9227 68.3678 29.56C68.2078 29.1973 67.9784 28.904 67.6798 28.68C67.3918 28.456 67.0344 28.344 66.6078 28.344C66.1811 28.344 65.8184 28.456 65.5198 28.68C65.2211 28.904 64.9918 29.1973 64.8318 29.56C64.6824 29.9227 64.6078 30.3227 64.6078 30.76C64.6078 31.1867 64.6824 31.5867 64.8318 31.96C64.9918 32.3227 65.2211 32.616 65.5198 32.84C65.8184 33.064 66.1811 33.176 66.6078 33.176ZM73.0223 38.12C72.7343 38.12 72.5049 38.1093 72.3343 38.088C72.1636 38.0667 72.0783 38.056 72.0783 38.056V36.104C72.0783 36.104 72.1476 36.1093 72.2863 36.12C72.4356 36.1307 72.6169 36.136 72.8303 36.136C73.3423 36.136 73.7636 36.0613 74.0943 35.912C74.4249 35.7733 74.7129 35.496 74.9583 35.08L71.8223 26.52H74.2543L76.2223 32.264L78.1423 26.52H80.5903L77.5503 34.664C77.2729 35.4427 76.9369 36.088 76.5423 36.6C76.1583 37.112 75.6836 37.4907 75.1183 37.736C74.5529 37.992 73.8543 38.12 73.0223 38.12ZM85.0898 35.16C84.3858 35.16 83.8044 35.064 83.3458 34.872C82.8871 34.68 82.5191 34.4453 82.2418 34.168C81.9751 33.88 81.7724 33.5973 81.6338 33.32C81.5058 33.032 81.4204 32.792 81.3778 32.6C81.3458 32.408 81.3298 32.312 81.3298 32.312H83.5858C83.5858 32.312 83.6018 32.3653 83.6338 32.472C83.6658 32.5787 83.7351 32.7013 83.8418 32.84C83.9591 32.9787 84.1244 33.1013 84.3378 33.208C84.5511 33.3147 84.8391 33.368 85.2018 33.368C85.6498 33.368 85.9538 33.2773 86.1138 33.096C86.2844 32.9147 86.3698 32.7333 86.3698 32.552C86.3698 32.168 86.0551 31.912 85.4258 31.784L84.2738 31.56C83.7831 31.464 83.3191 31.3253 82.8818 31.144C82.4551 30.952 82.1084 30.6907 81.8418 30.36C81.5858 30.0187 81.4578 29.5813 81.4578 29.048C81.4578 28.536 81.5911 28.0773 81.8578 27.672C82.1244 27.2667 82.5031 26.9467 82.9938 26.712C83.4951 26.4773 84.0924 26.36 84.7858 26.36C85.4364 26.36 85.9751 26.4507 86.4018 26.632C86.8391 26.8027 87.1858 27.0213 87.4418 27.288C87.6978 27.544 87.8898 27.8053 88.0178 28.072C88.1458 28.328 88.2258 28.5467 88.2578 28.728C88.3004 28.8987 88.3218 28.984 88.3218 28.984H86.1458C86.1458 28.984 86.1138 28.9147 86.0498 28.776C85.9858 28.6267 85.8524 28.4827 85.6498 28.344C85.4578 28.1947 85.1591 28.12 84.7538 28.12C84.3378 28.12 84.0498 28.2053 83.8898 28.376C83.7298 28.536 83.6498 28.7067 83.6498 28.888C83.6498 29.1013 83.7404 29.2613 83.9218 29.368C84.1138 29.4747 84.3591 29.56 84.6578 29.624L85.7618 29.848C86.5724 30.008 87.2391 30.2907 87.7618 30.696C88.2844 31.0907 88.5458 31.6667 88.5458 32.424C88.5458 32.936 88.4124 33.4 88.1458 33.816C87.8791 34.232 87.4898 34.5627 86.9778 34.808C86.4658 35.0427 85.8364 35.16 85.0898 35.16Z" fill="#171212"/>
<defs>
<clipPath id="clip0_317_633">
<rect width="24" height="24" fill="white" transform="translate(16 17)"/>
</clipPath>
</defs>
</svg>
