<svg width="176" height="58" viewBox="0 0 176 58" fill="none" xmlns="http://www.w3.org/2000/svg">
<rect x="0.5" y="0.5" width="175" height="57" rx="7.5" fill="white"/>
<rect x="0.5" y="0.5" width="175" height="57" rx="7.5" stroke="#D9D9D9"/>
<g clip-path="url(#clip0_317_669)">
<path fill-rule="evenodd" clip-rule="evenodd" d="M35.5 29C35.4994 26.612 34.3608 24.3671 32.4344 22.9559L31.8494 19.7328C31.7202 19.0192 31.099 18.5002 30.3737 18.5H25.6263C24.901 18.5002 24.2798 19.0192 24.1506 19.7328L23.5656 22.9559C21.6386 24.3667 20.4998 26.6118 20.4998 29C20.4998 31.3882 21.6386 33.6333 23.5656 35.0441L24.1506 38.2672C24.2798 38.9808 24.901 39.4998 25.6263 39.5H30.3737C31.099 39.4998 31.7202 38.9808 31.8494 38.2672L32.4344 35.0441C34.3608 33.6329 35.4994 31.388 35.5 29ZM25.6263 20H30.3737L30.7403 22.0203C28.9793 21.3266 27.0207 21.3266 25.2597 22.0203L25.6263 20ZM22 29C22 25.6863 24.6863 23 28 23C31.3137 23 34 25.6863 34 29C34 32.3137 31.3137 35 28 35C24.6878 34.9964 22.0036 32.3122 22 29ZM30.3737 38H25.6263L25.2597 35.9797C27.0207 36.6734 28.9793 36.6734 30.7403 35.9797L30.3737 38ZM27.25 29V25.25C27.25 24.8358 27.5858 24.5 28 24.5C28.4142 24.5 28.75 24.8358 28.75 25.25V28.25H31.75C32.1642 28.25 32.5 28.5858 32.5 29C32.5 29.4142 32.1642 29.75 31.75 29.75H28C27.5858 29.75 27.25 29.4142 27.25 29Z" fill="#171212"/>
</g>
<path d="M55.392 35L52.448 23.16H54.912L57.008 31.752L59.2 23.16H61.712L63.904 31.736L65.984 23.16H68.464L65.504 35H62.368L60.448 27.464L58.544 35H55.392ZM72.4971 26.36C73.0411 26.36 73.4891 26.4507 73.8411 26.632C74.1931 26.8027 74.4598 26.9893 74.6411 27.192C74.8331 27.3947 74.9505 27.5333 74.9931 27.608H75.1211V26.52H77.5531V35H75.1211V33.912H74.9931C74.9505 33.9867 74.8331 34.1253 74.6411 34.328C74.4598 34.5307 74.1931 34.7227 73.8411 34.904C73.4891 35.0747 73.0411 35.16 72.4971 35.16C71.8678 35.16 71.3185 35.0373 70.8491 34.792C70.3905 34.536 70.0065 34.2 69.6971 33.784C69.3878 33.3573 69.1531 32.8827 68.9931 32.36C68.8438 31.8373 68.7691 31.304 68.7691 30.76C68.7691 30.216 68.8438 29.6827 68.9931 29.16C69.1531 28.6373 69.3878 28.168 69.6971 27.752C70.0065 27.3253 70.3905 26.9893 70.8491 26.744C71.3185 26.488 71.8678 26.36 72.4971 26.36ZM73.2011 28.328C72.7638 28.328 72.3958 28.4507 72.0971 28.696C71.8091 28.9307 71.5905 29.2347 71.4411 29.608C71.3025 29.9813 71.2331 30.3653 71.2331 30.76C71.2331 31.1547 71.3025 31.5387 71.4411 31.912C71.5905 32.2853 71.8091 32.5947 72.0971 32.84C72.3958 33.0747 72.7638 33.192 73.2011 33.192C73.6385 33.192 74.0011 33.0747 74.2891 32.84C74.5878 32.5947 74.8065 32.2853 74.9451 31.912C75.0945 31.5387 75.1691 31.1547 75.1691 30.76C75.1691 30.3653 75.0945 29.9813 74.9451 29.608C74.8065 29.2347 74.5878 28.9307 74.2891 28.696C74.0011 28.4507 73.6385 28.328 73.2011 28.328ZM83.2394 35.16C82.578 35.16 82.05 35.064 81.6554 34.872C81.2607 34.6693 80.962 34.4187 80.7594 34.12C80.5567 33.8107 80.4234 33.4853 80.3594 33.144C80.2954 32.8027 80.2634 32.488 80.2634 32.2V28.456H78.8234V26.52H80.2634V24.424H82.6954V26.52H84.5034V28.456H82.6954V32.136C82.6954 32.488 82.786 32.76 82.9674 32.952C83.1594 33.144 83.474 33.24 83.9114 33.24C84.1034 33.24 84.2794 33.224 84.4394 33.192C84.5994 33.16 84.6794 33.144 84.6794 33.144V35.016C84.6794 35.016 84.5354 35.0373 84.2474 35.08C83.9594 35.1333 83.6234 35.16 83.2394 35.16ZM90.482 35.16C89.7353 35.16 89.0847 35.0373 88.53 34.792C87.9753 34.536 87.5167 34.2 87.154 33.784C86.7913 33.368 86.5193 32.8987 86.338 32.376C86.1567 31.8427 86.066 31.304 86.066 30.76C86.066 30.216 86.1567 29.6827 86.338 29.16C86.5193 28.6373 86.7913 28.168 87.154 27.752C87.5167 27.3253 87.9753 26.9893 88.53 26.744C89.0847 26.488 89.7353 26.36 90.482 26.36C91.2393 26.36 91.8633 26.472 92.354 26.696C92.8447 26.9093 93.234 27.1813 93.522 27.512C93.8207 27.832 94.0393 28.1573 94.178 28.488C94.3167 28.808 94.402 29.08 94.434 29.304C94.4767 29.5173 94.498 29.624 94.498 29.624H92.226C92.226 29.624 92.2047 29.56 92.162 29.432C92.13 29.2933 92.0553 29.1387 91.938 28.968C91.8313 28.7867 91.666 28.632 91.442 28.504C91.218 28.3653 90.9193 28.296 90.546 28.296C90.0873 28.296 89.7033 28.4133 89.394 28.648C89.0953 28.872 88.8713 29.1707 88.722 29.544C88.5727 29.9173 88.498 30.3227 88.498 30.76C88.498 31.1973 88.5727 31.6027 88.722 31.976C88.8713 32.3493 89.0953 32.6533 89.394 32.888C89.7033 33.112 90.0873 33.224 90.546 33.224C90.9193 33.224 91.218 33.16 91.442 33.032C91.666 32.8933 91.8313 32.7387 91.938 32.568C92.0553 32.3867 92.13 32.232 92.162 32.104C92.2047 31.9653 92.226 31.896 92.226 31.896H94.498C94.498 31.896 94.4767 32.008 94.434 32.232C94.402 32.4453 94.3167 32.7173 94.178 33.048C94.0393 33.368 93.8207 33.6933 93.522 34.024C93.234 34.344 92.8447 34.616 92.354 34.84C91.8633 35.0533 91.2393 35.16 90.482 35.16ZM96.4005 35V22.84H98.8325V27.736H98.9125C99.0085 27.5653 99.1472 27.3733 99.3285 27.16C99.5205 26.9467 99.7712 26.76 100.081 26.6C100.401 26.44 100.806 26.36 101.297 26.36C101.958 26.36 102.497 26.5147 102.913 26.824C103.329 27.1227 103.633 27.512 103.825 27.992C104.017 28.4613 104.113 28.9573 104.113 29.48V35H101.681V29.896C101.681 29.4907 101.569 29.1333 101.345 28.824C101.131 28.5147 100.785 28.36 100.305 28.36C99.9418 28.36 99.6538 28.4453 99.4405 28.616C99.2272 28.7867 99.0725 29.0053 98.9765 29.272C98.8805 29.5387 98.8325 29.8213 98.8325 30.12V35H96.4005ZM110.105 35.16C109.358 35.16 108.713 35.0373 108.169 34.792C107.625 34.536 107.177 34.2 106.825 33.784C106.473 33.3573 106.206 32.8827 106.025 32.36C105.854 31.8373 105.769 31.2987 105.769 30.744C105.769 30.2107 105.849 29.688 106.009 29.176C106.18 28.6533 106.436 28.1787 106.777 27.752C107.129 27.3253 107.572 26.9893 108.105 26.744C108.649 26.488 109.289 26.36 110.025 26.36C110.804 26.36 111.492 26.5307 112.089 26.872C112.697 27.2133 113.172 27.72 113.513 28.392C113.854 29.0533 114.025 29.8587 114.025 30.808V31.4H108.217C108.249 31.912 108.425 32.3547 108.745 32.728C109.076 33.1013 109.529 33.288 110.105 33.288C110.436 33.288 110.702 33.24 110.905 33.144C111.118 33.0373 111.284 32.92 111.401 32.792C111.518 32.6533 111.598 32.5307 111.641 32.424C111.684 32.3173 111.705 32.264 111.705 32.264H113.945C113.945 32.264 113.918 32.3653 113.865 32.568C113.822 32.76 113.726 33 113.577 33.288C113.428 33.576 113.209 33.864 112.921 34.152C112.644 34.44 112.276 34.68 111.817 34.872C111.358 35.064 110.788 35.16 110.105 35.16ZM108.217 29.928H111.689C111.657 29.3413 111.481 28.904 111.161 28.616C110.841 28.328 110.446 28.184 109.977 28.184C109.508 28.184 109.108 28.3387 108.777 28.648C108.446 28.9467 108.26 29.3733 108.217 29.928ZM119.34 35.16C118.636 35.16 118.054 35.064 117.596 34.872C117.137 34.68 116.769 34.4453 116.492 34.168C116.225 33.88 116.022 33.5973 115.884 33.32C115.756 33.032 115.67 32.792 115.628 32.6C115.596 32.408 115.58 32.312 115.58 32.312H117.836C117.836 32.312 117.852 32.3653 117.884 32.472C117.916 32.5787 117.985 32.7013 118.092 32.84C118.209 32.9787 118.374 33.1013 118.588 33.208C118.801 33.3147 119.089 33.368 119.452 33.368C119.9 33.368 120.204 33.2773 120.364 33.096C120.534 32.9147 120.62 32.7333 120.62 32.552C120.62 32.168 120.305 31.912 119.676 31.784L118.524 31.56C118.033 31.464 117.569 31.3253 117.132 31.144C116.705 30.952 116.358 30.6907 116.092 30.36C115.836 30.0187 115.708 29.5813 115.708 29.048C115.708 28.536 115.841 28.0773 116.108 27.672C116.374 27.2667 116.753 26.9467 117.244 26.712C117.745 26.4773 118.342 26.36 119.036 26.36C119.686 26.36 120.225 26.4507 120.652 26.632C121.089 26.8027 121.436 27.0213 121.692 27.288C121.948 27.544 122.14 27.8053 122.268 28.072C122.396 28.328 122.476 28.5467 122.508 28.728C122.55 28.8987 122.572 28.984 122.572 28.984H120.396C120.396 28.984 120.364 28.9147 120.3 28.776C120.236 28.6267 120.102 28.4827 119.9 28.344C119.708 28.1947 119.409 28.12 119.004 28.12C118.588 28.12 118.3 28.2053 118.14 28.376C117.98 28.536 117.9 28.7067 117.9 28.888C117.9 29.1013 117.99 29.2613 118.172 29.368C118.364 29.4747 118.609 29.56 118.908 29.624L120.012 29.848C120.822 30.008 121.489 30.2907 122.012 30.696C122.534 31.0907 122.796 31.6667 122.796 32.424C122.796 32.936 122.662 33.4 122.396 33.816C122.129 34.232 121.74 34.5627 121.228 34.808C120.716 35.0427 120.086 35.16 119.34 35.16Z" fill="#171212"/>
<defs>
<clipPath id="clip0_317_669">
<rect width="24" height="24" fill="white" transform="translate(16 17)"/>
</clipPath>
</defs>
</svg>
