<svg width="66" height="65" viewBox="0 0 66 65" fill="none" xmlns="http://www.w3.org/2000/svg">
<g filter="url(#filter0_b_317_520)">
<rect width="66" height="65" rx="8" fill="white"/>
<rect x="0.5" y="0.5" width="65" height="64" rx="7.5" stroke="#D9D9D9" stroke-opacity="0.8"/>
<path d="M43.7893 24.0223L43.7891 24.0232L39.6871 43.354C39.687 43.3546 39.6869 43.3552 39.6867 43.3559C39.5494 43.9767 39.327 44.2132 39.154 44.2914C38.9854 44.3677 38.6848 44.3742 38.189 44.0992L31.964 39.5108L31.6244 39.2605L31.3205 39.5532L28.3064 42.4564L28.3063 42.4564L28.2997 42.463C28.1487 42.614 28.0466 42.7131 27.9394 42.785L28.3215 37.3064L39.7497 26.9822C39.7506 26.9814 39.7515 26.9806 39.7524 26.9798C39.9111 26.8395 40.0937 26.622 40.104 26.3359C40.1169 25.9736 39.8609 25.7581 39.6401 25.6781C39.4343 25.6035 39.2074 25.6123 39.0076 25.6566C38.8006 25.7026 38.5828 25.7951 38.3716 25.935L24.2574 34.8209L18.3098 32.9647C18.3096 32.9647 18.3094 32.9646 18.3092 32.9645C18.0161 32.8719 17.8395 32.7653 17.7477 32.679C17.7039 32.6378 17.6866 32.608 17.6803 32.5939C17.6751 32.5824 17.6755 32.578 17.6758 32.5751L17.6758 32.575C17.6764 32.5677 17.6883 32.4888 17.8414 32.3542C17.9918 32.2221 18.2425 32.0702 18.6223 31.9218C18.6226 31.9217 18.623 31.9216 18.6233 31.9214L42.7187 22.6299C43.1569 22.4735 43.458 22.5601 43.6181 22.716C43.7847 22.8783 43.952 23.2631 43.7893 24.0223ZM32 6.5C17.9134 6.5 6.5 17.9134 6.5 32C6.5 46.0866 17.9134 57.5 32 57.5C46.0866 57.5 57.5 46.0866 57.5 32C57.5 17.9134 46.0866 6.5 32 6.5Z" fill="#34B0DF" stroke="white"/>
</g>
<defs>
<filter id="filter0_b_317_520" x="-4" y="-4" width="74" height="73" filterUnits="userSpaceOnUse" color-interpolation-filters="sRGB">
<feFlood flood-opacity="0" result="BackgroundImageFix"/>
<feGaussianBlur in="BackgroundImageFix" stdDeviation="2"/>
<feComposite in2="SourceAlpha" operator="in" result="effect1_backgroundBlur_317_520"/>
<feBlend mode="normal" in="SourceGraphic" in2="effect1_backgroundBlur_317_520" result="shape"/>
</filter>
</defs>
</svg>
