<svg width="20" height="20" viewBox="0 0 20 20" fill="none" xmlns="http://www.w3.org/2000/svg">
<g clip-path="url(#clip0_361_208)">
<path fill-rule="evenodd" clip-rule="evenodd" d="M18.4047 10.0656L12.5 7.11406V3.75C12.5 2.36929 11.3807 1.25 10 1.25C8.61929 1.25 7.5 2.36929 7.5 3.75V7.11406L1.59531 10.0656C1.38353 10.1716 1.24983 10.3882 1.25 10.625V13.125C1.2501 13.3122 1.33411 13.4895 1.47892 13.6081C1.62373 13.7268 1.8141 13.7742 1.99766 13.7375L7.5 12.6375V14.1164L6.43281 15.1828C6.31563 15.3001 6.24987 15.4592 6.25 15.625V18.125C6.24964 18.333 6.35279 18.5276 6.52517 18.644C6.69754 18.7604 6.91654 18.7835 7.10938 18.7055L10 17.5484L12.8906 18.7055C13.0835 18.7835 13.3025 18.7604 13.4748 18.644C13.6472 18.5276 13.7504 18.333 13.75 18.125V15.625C13.7501 15.4592 13.6844 15.3001 13.5672 15.1828L12.5 14.1164V12.6375L18.0023 13.7375C18.1859 13.7742 18.3763 13.7268 18.5211 13.6081C18.6659 13.4895 18.7499 13.3122 18.75 13.125V10.625C18.7502 10.3882 18.6165 10.1716 18.4047 10.0656ZM17.5 12.3625L11.9977 11.2625C11.8141 11.2258 11.6237 11.2732 11.4789 11.3919C11.3341 11.5105 11.2501 11.6878 11.25 11.875V14.375C11.2499 14.5408 11.3156 14.6999 11.4328 14.8172L12.5 15.8836V17.2016L10.2344 16.2945C10.0854 16.235 9.91927 16.235 9.77031 16.2945L7.5 17.2016V15.8836L8.56719 14.8172C8.68437 14.6999 8.75013 14.5408 8.75 14.375V11.875C8.7499 11.6878 8.66589 11.5105 8.52108 11.3919C8.37627 11.2732 8.1859 11.2258 8.00234 11.2625L2.5 12.3625V11.0109L8.40469 8.05937C8.61647 7.9534 8.75017 7.73682 8.75 7.5V3.75C8.75 3.05964 9.30964 2.5 10 2.5C10.6904 2.5 11.25 3.05964 11.25 3.75V7.5C11.2498 7.73682 11.3835 7.9534 11.5953 8.05937L17.5 11.0109V12.3625Z" fill="#171412"/>
</g>
<defs>
<clipPath id="clip0_361_208">
<rect width="20" height="20" fill="white"/>
</clipPath>
</defs>
</svg>
