<svg width="20" height="20" viewBox="0 0 20 20" fill="none" xmlns="http://www.w3.org/2000/svg">
<g clip-path="url(#clip0_361_264)">
<path fill-rule="evenodd" clip-rule="evenodd" d="M18.125 6.875H16.875V5C16.875 4.30964 16.3154 3.75 15.625 3.75H3.75C3.05964 3.75 2.5 4.30964 2.5 5V6.875H1.25C0.904822 6.875 0.625 7.15482 0.625 7.5C0.625 7.84518 0.904822 8.125 1.25 8.125H2.5V10C2.5 10.6904 3.05964 11.25 3.75 11.25H15.625C16.3154 11.25 16.875 10.6904 16.875 10V8.125H18.125V12.0312L10.2812 14.2695C9.74681 14.4243 9.37797 14.9124 9.375 15.4688V18.125C9.375 18.4702 9.65482 18.75 10 18.75C10.3452 18.75 10.625 18.4702 10.625 18.125V15.4688L18.4688 13.2281C19.0024 13.0736 19.371 12.5868 19.375 12.0312V8.125C19.375 7.43464 18.8154 6.875 18.125 6.875ZM15.625 10H3.75V5H15.625V10Z" fill="#171412"/>
</g>
<defs>
<clipPath id="clip0_361_264">
<rect width="20" height="20" fill="white"/>
</clipPath>
</defs>
</svg>
