<svg width="20" height="20" viewBox="0 0 20 20" fill="none" xmlns="http://www.w3.org/2000/svg">
<g clip-path="url(#clip0_361_200)">
<path fill-rule="evenodd" clip-rule="evenodd" d="M16.25 4.375H14.0844L13.0195 2.77813C12.9037 2.60447 12.7088 2.50013 12.5 2.5H7.5C7.29124 2.50013 7.09633 2.60447 6.98047 2.77813L5.91484 4.375H3.75C2.71447 4.375 1.875 5.21447 1.875 6.25V15C1.875 16.0355 2.71447 16.875 3.75 16.875H16.25C17.2855 16.875 18.125 16.0355 18.125 15V6.25C18.125 5.21447 17.2855 4.375 16.25 4.375ZM16.875 15C16.875 15.3452 16.5952 15.625 16.25 15.625H3.75C3.40482 15.625 3.125 15.3452 3.125 15V6.25C3.125 5.90482 3.40482 5.625 3.75 5.625H6.25C6.45903 5.62514 6.6543 5.52076 6.77031 5.34688L7.83437 3.75H12.1648L13.2297 5.34688C13.3457 5.52076 13.541 5.62514 13.75 5.625H16.25C16.5952 5.625 16.875 5.90482 16.875 6.25V15ZM10 6.875C8.10152 6.875 6.5625 8.41402 6.5625 10.3125C6.5625 12.211 8.10152 13.75 10 13.75C11.8985 13.75 13.4375 12.211 13.4375 10.3125C13.4353 8.41491 11.8976 6.87715 10 6.875ZM10 12.5C8.79188 12.5 7.8125 11.5206 7.8125 10.3125C7.8125 9.10438 8.79188 8.125 10 8.125C11.2081 8.125 12.1875 9.10438 12.1875 10.3125C12.1875 11.5206 11.2081 12.5 10 12.5Z" fill="#171412"/>
</g>
<defs>
<clipPath id="clip0_361_200">
<rect width="20" height="20" fill="white"/>
</clipPath>
</defs>
</svg>
