<svg width="20" height="20" viewBox="0 0 20 20" fill="none" xmlns="http://www.w3.org/2000/svg">
<g clip-path="url(#clip0_361_169)">
<path fill-rule="evenodd" clip-rule="evenodd" d="M18.75 8.75H17.9062L15.7359 3.86719C15.5353 3.41586 15.0877 3.12501 14.5938 3.125H5.40625C4.91232 3.12501 4.46472 3.41586 4.26406 3.86719L2.09375 8.75H1.25C0.904822 8.75 0.625 9.02982 0.625 9.375C0.625 9.72018 0.904822 10 1.25 10H1.875V16.25C1.875 16.9404 2.43464 17.5 3.125 17.5H5C5.69036 17.5 6.25 16.9404 6.25 16.25V15H13.75V16.25C13.75 16.9404 14.3096 17.5 15 17.5H16.875C17.5654 17.5 18.125 16.9404 18.125 16.25V10H18.75C19.0952 10 19.375 9.72018 19.375 9.375C19.375 9.02982 19.0952 8.75 18.75 8.75ZM5.40625 4.375H14.5938L16.5383 8.75H3.46172L5.40625 4.375ZM5 16.25H3.125V15H5V16.25ZM15 16.25V15H16.875V16.25H15ZM16.875 13.75H3.125V10H16.875V13.75ZM4.375 11.875C4.375 11.5298 4.65482 11.25 5 11.25H6.25C6.59518 11.25 6.875 11.5298 6.875 11.875C6.875 12.2202 6.59518 12.5 6.25 12.5H5C4.65482 12.5 4.375 12.2202 4.375 11.875ZM13.125 11.875C13.125 11.5298 13.4048 11.25 13.75 11.25H15C15.3452 11.25 15.625 11.5298 15.625 11.875C15.625 12.2202 15.3452 12.5 15 12.5H13.75C13.4048 12.5 13.125 12.2202 13.125 11.875Z" fill="#171412"/>
</g>
<defs>
<clipPath id="clip0_361_169">
<rect width="20" height="20" fill="white"/>
</clipPath>
</defs>
</svg>
