<svg width="18" height="17" viewBox="0 0 18 17" fill="none" xmlns="http://www.w3.org/2000/svg">
<path fill-rule="evenodd" clip-rule="evenodd" d="M6.5 8.93745C6.5 9.45521 6.08027 9.87495 5.5625 9.87495C5.04473 9.87495 4.625 9.45521 4.625 8.93745C4.625 8.41968 5.04473 7.99995 5.5625 7.99995C6.08027 7.99995 6.5 8.41968 6.5 8.93745ZM12.4375 7.99995C11.9197 7.99995 11.5 8.41968 11.5 8.93745C11.5 9.45521 11.9197 9.87495 12.4375 9.87495C12.9553 9.87495 13.375 9.45521 13.375 8.93745C13.375 8.41968 12.9553 7.99995 12.4375 7.99995ZM17.125 1.74995V8.62495C17.125 12.7601 13.4805 16.1249 9 16.1249C4.51953 16.1249 0.875 12.7601 0.875 8.62495V1.74995C0.875234 1.24455 1.17978 0.789019 1.64672 0.595643C2.11366 0.402267 2.65111 0.509099 3.00859 0.866352C3.01953 0.877289 3.02891 0.887445 3.03828 0.898383L4.39062 2.45307C7.21213 0.68532 10.7957 0.68532 13.6172 2.45307L14.9617 0.898383C14.9711 0.887445 14.9805 0.877289 14.9914 0.866352C15.3489 0.509099 15.8863 0.402267 16.3533 0.595643C16.8202 0.789019 17.1248 1.24455 17.125 1.74995ZM15.875 1.74995L14.1906 3.68745C13.9769 3.93468 13.6088 3.97554 13.3461 3.7812C12.9648 3.49924 12.5556 3.25709 12.125 3.05854V4.87495C12.125 5.22012 11.8452 5.49995 11.5 5.49995C11.1548 5.49995 10.875 5.22012 10.875 4.87495V2.61323C10.465 2.50775 10.0469 2.43667 9.625 2.40073V4.87495C9.625 5.22012 9.34518 5.49995 9 5.49995C8.65482 5.49995 8.375 5.22012 8.375 4.87495V2.40073C7.95315 2.43667 7.53503 2.50775 7.125 2.61323V4.87495C7.125 5.22012 6.84518 5.49995 6.5 5.49995C6.15482 5.49995 5.875 5.22012 5.875 4.87495V3.05854C5.44436 3.25709 5.03519 3.49924 4.65391 3.7812C4.39177 3.97611 4.02374 3.93628 3.80937 3.68979L2.125 1.74995V8.62495C2.125 11.8796 4.87578 14.5624 8.375 14.8492V13.2585L7.30781 12.1914C7.06382 11.9471 7.06399 11.5514 7.3082 11.3074C7.55242 11.0634 7.94819 11.0635 8.19219 11.3078L9 12.1156L9.80781 11.3078C10.0518 11.0635 10.4476 11.0634 10.6918 11.3074C10.936 11.5514 10.9362 11.9471 10.6922 12.1914L9.625 13.2585V14.8492C13.1242 14.5609 15.875 11.8804 15.875 8.62495V1.74995Z" fill="#171412"/>
</svg>
