<svg width="20" height="17" viewBox="0 0 20 17" fill="none" xmlns="http://www.w3.org/2000/svg">
<path fill-rule="evenodd" clip-rule="evenodd" d="M18.75 15.25H17.5V8.02734C17.5001 7.67757 17.3536 7.34378 17.0961 7.10703L10.8461 1.21016C10.843 1.20749 10.8402 1.20462 10.8375 1.20156C10.3607 0.767918 9.6323 0.767918 9.15547 1.20156L9.14688 1.21016L2.90391 7.10703C2.64644 7.34378 2.49995 7.67757 2.5 8.02734V15.25H1.25C0.904822 15.25 0.625 15.5298 0.625 15.875C0.625 16.2202 0.904822 16.5 1.25 16.5H18.75C19.0952 16.5 19.375 16.2202 19.375 15.875C19.375 15.5298 19.0952 15.25 18.75 15.25ZM3.75 8.02734L3.75859 8.01953L10 2.125L16.2422 8.01797L16.2508 8.02578V15.25H12.5V11.5C12.5 10.8096 11.9404 10.25 11.25 10.25H8.75C8.05964 10.25 7.5 10.8096 7.5 11.5V15.25H3.75V8.02734ZM11.25 15.25H8.75V11.5H11.25V15.25Z" fill="#171412"/>
</svg>
