<svg width="20" height="20" viewBox="0 0 20 20" fill="none" xmlns="http://www.w3.org/2000/svg">
<g clip-path="url(#clip0_361_121)">
<path fill-rule="evenodd" clip-rule="evenodd" d="M16.4297 4.40156L10.1797 2.52656C9.99048 2.46977 9.78555 2.50577 9.62703 2.62366C9.46851 2.74155 9.37506 2.92745 9.375 3.125V11.5828C8.05594 10.403 6.09162 10.306 4.66269 11.35C3.23377 12.394 2.72923 14.2949 3.45233 15.9102C4.17543 17.5254 5.92932 18.4152 7.65983 18.0449C9.39034 17.6745 10.6264 16.1447 10.625 14.375V3.96484L16.0703 5.59844C16.2859 5.66866 16.5226 5.61661 16.6889 5.46242C16.8551 5.30823 16.9248 5.07609 16.871 4.85583C16.8172 4.63556 16.6483 4.46172 16.4297 4.40156ZM6.875 16.875C5.49429 16.875 4.375 15.7557 4.375 14.375C4.375 12.9943 5.49429 11.875 6.875 11.875C8.25571 11.875 9.375 12.9943 9.375 14.375C9.375 15.7557 8.25571 16.875 6.875 16.875Z" fill="#171412"/>
</g>
<defs>
<clipPath id="clip0_361_121">
<rect width="20" height="20" fill="white"/>
</clipPath>
</defs>
</svg>
