<svg width="20" height="20" viewBox="0 0 20 20" fill="none" xmlns="http://www.w3.org/2000/svg">
<g clip-path="url(#clip0_361_128)">
<path fill-rule="evenodd" clip-rule="evenodd" d="M19.343 4.78281L15.2992 2.57812C15.2076 2.52743 15.1047 2.50057 15 2.5H12.5C12.1548 2.5 11.875 2.77982 11.875 3.125C11.875 4.16053 11.0355 5 10 5C8.96447 5 8.125 4.16053 8.125 3.125C8.125 2.77982 7.84518 2.5 7.5 2.5H5C4.89503 2.50043 4.79185 2.5273 4.7 2.57812L0.657031 4.78281C0.056968 5.09993 -0.173311 5.84283 0.142188 6.44375L1.64766 9.31953C1.87079 9.74098 2.30986 10.0033 2.78672 10H4.375V16.25C4.375 16.9404 4.93464 17.5 5.625 17.5H14.375C15.0654 17.5 15.625 16.9404 15.625 16.25V10H17.2141C17.6909 10.0033 18.13 9.74098 18.3531 9.31953L19.8586 6.44375C20.174 5.84263 19.9433 5.09965 19.343 4.78281ZM2.78672 8.75C2.77517 8.75055 2.76381 8.74694 2.75469 8.73984L1.25703 5.87969L4.375 4.17812V8.75H2.78672ZM14.375 16.25H5.625V3.75H6.9375C7.23477 5.20464 8.51451 6.2493 9.99922 6.2493C11.4839 6.2493 12.7637 5.20464 13.0609 3.75H14.375V16.25ZM17.2461 8.73906C17.2374 8.74694 17.2258 8.75089 17.2141 8.75H15.625V4.17812L18.7437 5.87969L17.2461 8.73906Z" fill="#171412"/>
</g>
<defs>
<clipPath id="clip0_361_128">
<rect width="20" height="20" fill="white"/>
</clipPath>
</defs>
</svg>
