<svg width="20" height="20" viewBox="0 0 20 20" fill="none" xmlns="http://www.w3.org/2000/svg">
<g clip-path="url(#clip0_361_176)">
<path fill-rule="evenodd" clip-rule="evenodd" d="M18.125 8.75C18.125 7.71447 17.2855 6.875 16.25 6.875H10.625V6.17188C11.7283 5.8853 12.4989 4.8899 12.5 3.75C12.5 1.5625 10.4344 0.163281 10.3469 0.104687C10.1369 -0.0354372 9.86315 -0.0354372 9.65312 0.104687C9.56563 0.163281 7.5 1.5625 7.5 3.75C7.50108 4.8899 8.27171 5.8853 9.375 6.17188V6.875H3.75C2.71447 6.875 1.875 7.71447 1.875 8.75V10.5727C1.87564 11.2545 2.09468 11.9181 2.5 12.4664V15.625C2.5 16.6605 3.33947 17.5 4.375 17.5H15.625C16.6605 17.5 17.5 16.6605 17.5 15.625V12.4664C17.9053 11.9181 18.1244 11.2545 18.125 10.5727V8.75ZM8.75 3.75C8.75 2.68984 9.53125 1.83906 10 1.42266C10.4688 1.83906 11.25 2.68984 11.25 3.75C11.25 4.44036 10.6904 5 10 5C9.30964 5 8.75 4.44036 8.75 3.75ZM3.125 8.75C3.125 8.40482 3.40482 8.125 3.75 8.125H16.25C16.5952 8.125 16.875 8.40482 16.875 8.75V10.5727C16.875 11.6078 16.0578 12.4719 15.0531 12.4992C14.5468 12.5136 14.0563 12.3225 13.6931 11.9695C13.3299 11.6164 13.125 11.1315 13.125 10.625C13.125 10.2798 12.8452 10 12.5 10C12.1548 10 11.875 10.2798 11.875 10.625C11.875 11.6605 11.0355 12.5 10 12.5C8.96447 12.5 8.125 11.6605 8.125 10.625C8.125 10.2798 7.84518 10 7.5 10C7.15482 10 6.875 10.2798 6.875 10.625C6.8752 11.1316 6.67038 11.6168 6.30718 11.97C5.94397 12.3232 5.4533 12.5144 4.94688 12.5C3.94219 12.4719 3.125 11.6078 3.125 10.5727V8.75ZM15.625 16.25H4.375C4.02982 16.25 3.75 15.9702 3.75 15.625V13.4812C4.11585 13.647 4.51101 13.7384 4.9125 13.75C5.75652 13.7763 6.57473 13.4571 7.17812 12.8664C7.29472 12.7528 7.40233 12.6303 7.5 12.5C8.09017 13.2869 9.01638 13.75 10 13.75C10.9836 13.75 11.9098 13.2869 12.5 12.5C12.598 12.6298 12.7059 12.7517 12.8227 12.8648C13.4041 13.4343 14.1862 13.7523 15 13.75C15.0297 13.75 15.0594 13.75 15.0891 13.75C15.49 13.7382 15.8846 13.6468 16.25 13.4812V15.625C16.25 15.9702 15.9702 16.25 15.625 16.25Z" fill="#171412"/>
</g>
<defs>
<clipPath id="clip0_361_176">
<rect width="20" height="20" fill="white"/>
</clipPath>
</defs>
</svg>
