<svg width="20" height="20" viewBox="0 0 20 20" fill="none" xmlns="http://www.w3.org/2000/svg">
<g clip-path="url(#clip0_361_256)">
<path fill-rule="evenodd" clip-rule="evenodd" d="M18.7273 9.76562L17.4445 2.89062C17.3812 2.55192 17.1808 2.25439 16.8908 2.06833C16.6008 1.88227 16.2468 1.82419 15.9125 1.90781L15.8883 1.91484L11.7852 3.125H8.21484L4.11172 1.91875L4.0875 1.91172C3.75322 1.8281 3.39925 1.88618 3.10922 2.07224C2.81919 2.25829 2.61882 2.55582 2.55547 2.89453L1.27266 9.76562C1.15964 10.3325 1.45596 10.9018 1.98516 11.1344C2.14966 11.2098 2.32839 11.2492 2.50938 11.25C2.72599 11.2499 2.93861 11.1916 3.125 11.0813V14.375C3.125 16.1009 4.52411 17.5 6.25 17.5H13.75C15.4759 17.5 16.875 16.1009 16.875 14.375V11.082C17.0612 11.1922 17.2735 11.2505 17.4898 11.2508C17.671 11.2503 17.85 11.2111 18.0148 11.1359C18.5447 10.9032 18.8412 10.333 18.7273 9.76562ZM2.5 10L3.78359 3.125L7.07031 4.09141L2.5 10ZM13.75 16.25H10.625V15.2586L11.6922 14.1922C11.9364 13.948 11.9364 13.552 11.6922 13.3078C11.448 13.0636 11.052 13.0636 10.8078 13.3078L10 14.1164L9.19219 13.3078C8.94797 13.0636 8.55203 13.0636 8.30781 13.3078C8.0636 13.552 8.0636 13.948 8.30781 14.1922L9.375 15.2586V16.25H6.25C5.21447 16.25 4.375 15.4105 4.375 14.375V9.61797L8.43125 4.375H11.568L15.625 9.61797V14.375C15.625 15.4105 14.7855 16.25 13.75 16.25ZM17.5 10L12.9297 4.09141L16.2164 3.125L17.5 10ZM8.125 10.9375C8.125 11.4553 7.70527 11.875 7.1875 11.875C6.66973 11.875 6.25 11.4553 6.25 10.9375C6.25 10.4197 6.66973 10 7.1875 10C7.70527 10 8.125 10.4197 8.125 10.9375ZM13.75 10.9375C13.75 11.4553 13.3303 11.875 12.8125 11.875C12.2947 11.875 11.875 11.4553 11.875 10.9375C11.875 10.4197 12.2947 10 12.8125 10C13.3303 10 13.75 10.4197 13.75 10.9375Z" fill="#171412"/>
</g>
<defs>
<clipPath id="clip0_361_256">
<rect width="20" height="20" fill="white"/>
</clipPath>
</defs>
</svg>
