<svg width="20" height="20" viewBox="0 0 20 20" fill="none" xmlns="http://www.w3.org/2000/svg">
<g clip-path="url(#clip0_361_248)">
<path fill-rule="evenodd" clip-rule="evenodd" d="M16.7734 16.3828C16.771 16.3761 16.7682 16.3696 16.7648 16.3633L13.2117 8.79609L14.8133 6.28203C14.8164 6.27752 14.8193 6.27283 14.8219 6.26797C15.0593 5.87219 15.0593 5.37781 14.8219 4.98203C14.8148 4.96953 14.8062 4.95703 14.7984 4.94531L13.125 2.55469V0.625C13.125 0.279822 12.8452 0 12.5 0C12.1548 0 11.875 0.279822 11.875 0.625V2.53281L11.4641 3.04688C11.1082 3.4916 10.5696 3.75049 10 3.75049C9.43044 3.75049 8.89176 3.4916 8.53594 3.04688L8.125 2.53281V0.625C8.125 0.279822 7.84518 0 7.5 0C7.15482 0 6.875 0.279822 6.875 0.625V2.55469L5.20156 4.94531C5.19375 4.95703 5.18516 4.96953 5.17812 4.98203C4.94073 5.37781 4.94073 5.87219 5.17812 6.26797C5.1807 6.27283 5.18357 6.27752 5.18672 6.28203L6.78828 8.79609L3.23516 16.3633C3.23182 16.3696 3.22895 16.3761 3.22656 16.3828C3.06117 16.7689 3.10076 17.2123 3.33194 17.563C3.56311 17.9137 3.95497 18.1248 4.375 18.125H15.625C16.0452 18.1251 16.4373 17.914 16.6686 17.5633C16.9 17.2126 16.9397 16.769 16.7742 16.3828H16.7734ZM6.25 5.625L7.53359 3.79453L7.55937 3.82734C8.1524 4.56895 9.05045 5.00068 10 5.00068C10.9496 5.00068 11.8476 4.56895 12.4406 3.82734L12.4664 3.79453L13.75 5.625L12.1578 8.125H7.84297L6.25 5.625ZM4.375 16.875L7.89609 9.375H12.1023L15.625 16.875H4.375Z" fill="#171412"/>
</g>
<defs>
<clipPath id="clip0_361_248">
<rect width="20" height="20" fill="white"/>
</clipPath>
</defs>
</svg>
