<svg width="20" height="20" viewBox="0 0 20 20" fill="none" xmlns="http://www.w3.org/2000/svg">
<g clip-path="url(#clip0_361_216)">
<path fill-rule="evenodd" clip-rule="evenodd" d="M19.375 9.375H18.75V6.875C18.75 6.18464 18.1904 5.625 17.5 5.625H16.25V5C16.25 4.30964 15.6904 3.75 15 3.75H13.125C12.4346 3.75 11.875 4.30964 11.875 5V9.375H8.125V5C8.125 4.30964 7.56536 3.75 6.875 3.75H5C4.30964 3.75 3.75 4.30964 3.75 5V5.625H2.5C1.80964 5.625 1.25 6.18464 1.25 6.875V9.375H0.625C0.279822 9.375 0 9.65482 0 10C0 10.3452 0.279822 10.625 0.625 10.625H1.25V13.125C1.25 13.8154 1.80964 14.375 2.5 14.375H3.75V15C3.75 15.6904 4.30964 16.25 5 16.25H6.875C7.56536 16.25 8.125 15.6904 8.125 15V10.625H11.875V15C11.875 15.6904 12.4346 16.25 13.125 16.25H15C15.6904 16.25 16.25 15.6904 16.25 15V14.375H17.5C18.1904 14.375 18.75 13.8154 18.75 13.125V10.625H19.375C19.7202 10.625 20 10.3452 20 10C20 9.65482 19.7202 9.375 19.375 9.375ZM2.5 13.125V6.875H3.75V13.125H2.5ZM6.875 15H5V5H6.875V15ZM15 15H13.125V5H15V13.7359C15 13.7406 15 13.7453 15 13.75C15 13.7547 15 13.7594 15 13.7641V15ZM17.5 13.125H16.25V6.875H17.5V13.125Z" fill="#171412"/>
</g>
<defs>
<clipPath id="clip0_361_216">
<rect width="20" height="20" fill="white"/>
</clipPath>
</defs>
</svg>
