<svg width="20" height="20" viewBox="0 0 20 20" fill="none" xmlns="http://www.w3.org/2000/svg">
<g clip-path="url(#clip0_361_225)">
<path fill-rule="evenodd" clip-rule="evenodd" d="M16.4336 10.1062C16.3703 10.0695 16.3008 10.0344 16.2289 10C16.3008 9.96562 16.3703 9.93047 16.4336 9.89375C17.4084 9.3395 18.0116 8.3054 18.014 7.18401C18.0165 6.06261 17.4179 5.02587 16.4455 4.46734C15.4731 3.9088 14.276 3.91411 13.3086 4.48125C13.2453 4.51797 13.1797 4.55937 13.1148 4.60547C13.1211 4.52734 13.125 4.44922 13.125 4.37109C13.125 2.6452 11.7259 1.24609 10 1.24609C8.27411 1.24609 6.875 2.6452 6.875 4.37109C6.875 4.44453 6.875 4.52266 6.88516 4.60547C6.82031 4.56094 6.75469 4.51797 6.69141 4.48125C5.724 3.91411 4.52688 3.9088 3.55448 4.46734C2.58208 5.02587 1.9835 6.06261 1.98596 7.18401C1.98843 8.3054 2.59156 9.3395 3.56641 9.89375C3.62969 9.93047 3.69922 9.96562 3.77109 10C3.69922 10.0344 3.62969 10.0695 3.56641 10.1062C2.59156 10.6605 1.98843 11.6946 1.98596 12.816C1.9835 13.9374 2.58208 14.9741 3.55448 15.5327C4.52688 16.0912 5.724 16.0859 6.69141 15.5188C6.75469 15.482 6.82031 15.4406 6.88516 15.3945C6.87891 15.4727 6.875 15.5508 6.875 15.625C6.875 17.3509 8.27411 18.75 10 18.75C11.7259 18.75 13.125 17.3509 13.125 15.625C13.125 15.5516 13.1211 15.4734 13.1148 15.3945C13.1797 15.4391 13.2453 15.482 13.3086 15.5188C13.782 15.793 14.3193 15.9374 14.8664 15.9375C15.1413 15.9371 15.415 15.9009 15.6805 15.8297C16.9014 15.5025 17.8049 14.472 17.9698 13.2188C18.1346 11.9656 17.5283 10.7365 16.4336 10.1047V10.1062ZM8.125 10C8.125 8.96447 8.96447 8.125 10 8.125C11.0355 8.125 11.875 8.96447 11.875 10C11.875 11.0355 11.0355 11.875 10 11.875C8.96447 11.875 8.125 11.0355 8.125 10ZM13.9336 5.56328C14.8304 5.04551 15.9772 5.35279 16.4949 6.24961C17.0127 7.14643 16.7054 8.29317 15.8086 8.81094C15.3188 9.09453 14.3547 9.28984 13.0617 9.37266C12.9253 8.71121 12.5783 8.11176 12.0727 7.66406C12.7914 6.58437 13.4438 5.84687 13.9336 5.56328ZM10 2.5C11.0355 2.5 11.875 3.33947 11.875 4.375C11.875 4.94063 11.5625 5.87422 10.9875 7.03594C10.3467 6.82136 9.65335 6.82136 9.0125 7.03594C8.4375 5.87422 8.125 4.94063 8.125 4.375C8.125 3.33947 8.96447 2.5 10 2.5ZM3.50469 6.25C3.75326 5.81916 4.16284 5.50474 4.64328 5.37595C5.12373 5.24715 5.63566 5.31454 6.06641 5.56328C6.55625 5.84687 7.20859 6.58437 7.92734 7.66406C7.42126 8.11237 7.07421 8.71271 6.93828 9.375C5.64531 9.29219 4.68125 9.09687 4.19141 8.81406C3.75993 8.56548 3.44505 8.15548 3.31622 7.67447C3.1874 7.19346 3.2552 6.68096 3.50469 6.25ZM6.06641 14.4367C5.16959 14.9545 4.02285 14.6472 3.50508 13.7504C2.98731 12.8536 3.29459 11.7068 4.19141 11.1891C4.68125 10.9055 5.64531 10.7102 6.93828 10.6273C7.07468 11.2888 7.42169 11.8882 7.92734 12.3359C7.20859 13.4156 6.55625 14.1531 6.06641 14.4367ZM10 17.5C8.96447 17.5 8.125 16.6605 8.125 15.625C8.125 15.0594 8.4375 14.1258 9.0125 12.9641C9.65335 13.1786 10.3467 13.1786 10.9875 12.9641C11.5625 14.1258 11.875 15.0594 11.875 15.625C11.875 16.6605 11.0355 17.5 10 17.5ZM16.4953 13.75C16.2467 14.1808 15.8372 14.4953 15.3567 14.6241C14.8763 14.7528 14.3643 14.6855 13.9336 14.4367C13.4438 14.1531 12.7914 13.4156 12.0727 12.3359C12.5787 11.8876 12.9258 11.2873 13.0617 10.625C14.3547 10.7078 15.3188 10.9031 15.8086 11.1859C16.2401 11.4345 16.5549 11.8445 16.6838 12.3255C16.8126 12.8065 16.7448 13.319 16.4953 13.75Z" fill="#171412"/>
</g>
<defs>
<clipPath id="clip0_361_225">
<rect width="20" height="20" fill="white"/>
</clipPath>
</defs>
</svg>
