<svg width="20" height="20" viewBox="0 0 20 20" fill="none" xmlns="http://www.w3.org/2000/svg">
<g clip-path="url(#clip0_361_153)">
<path fill-rule="evenodd" clip-rule="evenodd" d="M13.75 8.75H11.875C11.5298 8.75 11.25 8.47018 11.25 8.125C11.25 7.77982 11.5298 7.5 11.875 7.5H13.75C14.0952 7.5 14.375 7.77982 14.375 8.125C14.375 8.47018 14.0952 8.75 13.75 8.75ZM8.125 7.5H7.5V6.875C7.5 6.52982 7.22018 6.25 6.875 6.25C6.52982 6.25 6.25 6.52982 6.25 6.875V7.5H5.625C5.27982 7.5 5 7.77982 5 8.125C5 8.47018 5.27982 8.75 5.625 8.75H6.25V9.375C6.25 9.72018 6.52982 10 6.875 10C7.22018 10 7.5 9.72018 7.5 9.375V8.75H8.125C8.47018 8.75 8.75 8.47018 8.75 8.125C8.75 7.77982 8.47018 7.5 8.125 7.5ZM18.8656 15.6758C18.3888 16.3567 17.6352 16.7918 16.8071 16.8643C15.9791 16.9368 15.1613 16.6392 14.5734 16.0516C14.5641 16.0422 14.5547 16.0328 14.5461 16.0227L11.4438 12.5H8.55313L5.45391 16.0227L5.42656 16.0516C4.8986 16.5784 4.18335 16.8745 3.4375 16.875C2.60635 16.8747 1.81789 16.5068 1.28374 15.87C0.74959 15.2332 0.524452 14.3928 0.66875 13.5742C0.668374 13.5706 0.668374 13.5669 0.66875 13.5633L1.94766 6.99375C2.34055 4.75709 4.283 3.12564 6.55391 3.125H13.4375C15.7006 3.12861 17.6389 4.7466 18.0469 6.97266C18.0469 6.97734 18.0469 6.98203 18.0469 6.98672L19.3258 13.5625C19.3262 13.5661 19.3262 13.5698 19.3258 13.5734C19.4595 14.3076 19.2938 15.0646 18.8656 15.6758ZM13.4375 11.25C15.336 11.25 16.875 9.71098 16.875 7.8125C16.875 5.91402 15.336 4.375 13.4375 4.375H6.55391C4.88787 4.37649 3.46389 5.57506 3.17812 7.21641V7.22656L1.89844 13.7961C1.78239 14.4643 2.11066 15.1311 2.71103 15.4466C3.31139 15.7621 4.04674 15.6543 4.53125 15.1797L7.80625 11.4617C7.92487 11.3271 8.09561 11.25 8.275 11.25H13.4375ZM18.1016 13.7961L17.4188 10.2805C16.5649 11.6592 15.0592 12.4986 13.4375 12.5H13.1094L15.4688 15.1805C15.8296 15.5315 16.3369 15.6881 16.8328 15.6016C17.6807 15.4519 18.2478 14.6445 18.1008 13.7961H18.1016Z" fill="#171412"/>
</g>
<defs>
<clipPath id="clip0_361_153">
<rect width="20" height="20" fill="white"/>
</clipPath>
</defs>
</svg>
