<svg width="20" height="20" viewBox="0 0 20 20" fill="none" xmlns="http://www.w3.org/2000/svg">
<g clip-path="url(#clip0_361_193)">
<path fill-rule="evenodd" clip-rule="evenodd" d="M17.457 3.13047C17.4385 2.81397 17.186 2.56145 16.8695 2.54297C10.9219 2.19375 6.15781 3.98438 4.12656 7.34375C3.42247 8.4929 3.07551 9.82527 3.12969 11.1719C3.17422 12.4156 3.53672 13.6719 4.20703 14.9102L2.68281 16.4336C2.52483 16.5916 2.46314 16.8218 2.52096 17.0376C2.57878 17.2534 2.74735 17.422 2.96315 17.4798C3.17895 17.5376 3.40921 17.4759 3.56719 17.318L5.09062 15.7937C6.32812 16.4633 7.58516 16.8258 8.82812 16.8703C8.9151 16.8734 9.00182 16.875 9.08828 16.875C10.3475 16.8784 11.5828 16.5316 12.6562 15.8734C16.0156 13.8422 17.807 9.07891 17.457 3.13047ZM12.0117 14.8047C10.2344 15.8813 8.13047 15.8984 6.01875 14.8648L12.943 7.94141C13.1872 7.69719 13.1872 7.30124 12.943 7.05703C12.6988 6.81282 12.3028 6.81282 12.0586 7.05703L5.13516 13.9844C4.10469 11.875 4.11953 9.76562 5.19531 7.99141C6.92109 5.14219 11.0234 3.58203 16.2352 3.76797C16.4219 8.97578 14.8609 13.0789 12.0117 14.8047Z" fill="#171412"/>
</g>
<defs>
<clipPath id="clip0_361_193">
<rect width="20" height="20" fill="white"/>
</clipPath>
</defs>
</svg>
