<svg width="20" height="20" viewBox="0 0 20 20" fill="none" xmlns="http://www.w3.org/2000/svg">
<path fill-rule="evenodd" clip-rule="evenodd" d="M15.6852 4.21016C14.1724 2.71218 12.1289 1.87282 10 1.875H9.91641C5.46177 1.92084 1.87476 5.54513 1.875 10C1.875 13.3594 3.95156 16.1766 7.29375 17.357C8.05867 17.6267 8.90689 17.5086 9.56898 17.0401C10.2311 16.5716 10.6248 15.8111 10.625 15C10.625 14.3096 11.1846 13.75 11.875 13.75H15.4852C16.6536 13.7557 17.6681 12.9466 17.9227 11.8063C18.0624 11.1912 18.1303 10.562 18.125 9.93125C18.1089 7.7748 17.2303 5.71452 15.6852 4.21016ZM16.7008 11.5313C16.5729 12.0993 16.0674 12.5021 15.4852 12.5H11.875C10.4943 12.5 9.375 13.6193 9.375 15C9.37441 15.4051 9.17752 15.7849 8.84674 16.0188C8.51596 16.2527 8.09233 16.3118 7.71016 16.1773C4.88203 15.1797 3.125 12.8125 3.125 10C3.1248 6.23064 6.15974 3.16398 9.92891 3.125H9.99922C13.7673 3.13964 16.8273 6.17358 16.8742 9.94141C16.8789 10.4761 16.8217 11.0096 16.7039 11.5313H16.7008ZM10.9375 5.9375C10.9375 6.45527 10.5178 6.875 10 6.875C9.48223 6.875 9.0625 6.45527 9.0625 5.9375C9.0625 5.41974 9.48223 5 10 5C10.5178 5 10.9375 5.41974 10.9375 5.9375ZM7.5 7.8125C7.5 8.33027 7.08027 8.75 6.5625 8.75C6.04473 8.75 5.625 8.33027 5.625 7.8125C5.625 7.29474 6.04473 6.875 6.5625 6.875C7.08027 6.875 7.5 7.29474 7.5 7.8125ZM7.5 12.1875C7.5 12.7053 7.08027 13.125 6.5625 13.125C6.04473 13.125 5.625 12.7053 5.625 12.1875C5.625 11.6697 6.04473 11.25 6.5625 11.25C7.08027 11.25 7.5 11.6697 7.5 12.1875ZM14.375 7.8125C14.375 8.33027 13.9553 8.75 13.4375 8.75C12.9197 8.75 12.5 8.33027 12.5 7.8125C12.5 7.29474 12.9197 6.875 13.4375 6.875C13.9553 6.875 14.375 7.29474 14.375 7.8125Z" fill="#171412"/>
</svg>
