<svg width="20" height="20" viewBox="0 0 20 20" fill="none" xmlns="http://www.w3.org/2000/svg">
<g clip-path="url(#clip0_361_184)">
<path fill-rule="evenodd" clip-rule="evenodd" d="M18.125 2.5C18.125 2.15482 17.8452 1.875 17.5 1.875C14.0562 1.875 10.5227 5.75859 8.56016 8.33047C7.13884 7.89518 5.5953 8.15983 4.40017 9.04374C3.20504 9.92764 2.5 11.326 2.5 12.8125C2.5 15.225 0.973438 16.307 0.900781 16.357C0.673179 16.5107 0.572572 16.795 0.65282 17.0576C0.733068 17.3203 0.975368 17.4998 1.25 17.5H7.1875C8.67398 17.5 10.0724 16.795 10.9563 15.5998C11.8402 14.4047 12.1048 12.8612 11.6695 11.4398C14.2422 9.47734 18.125 5.94375 18.125 2.5ZM7.1875 16.25H2.70547C3.23281 15.5008 3.75 14.3687 3.75 12.8125C3.75 10.914 5.28902 9.375 7.1875 9.375C9.08598 9.375 10.625 10.914 10.625 12.8125C10.625 14.711 9.08598 16.25 7.1875 16.25ZM9.72031 8.87109C9.98802 8.52422 10.2508 8.1974 10.5086 7.89062C11.1396 8.31696 11.683 8.86037 12.1094 9.49141C11.8021 9.7487 11.4753 10.0115 11.1289 10.2797C10.7647 9.71548 10.2845 9.2353 9.72031 8.87109ZM13.0562 8.66172C12.5844 7.99594 12.0033 7.41481 11.3375 6.94297C13.8203 4.24531 15.693 3.42734 16.7984 3.2C16.5758 4.30625 15.7539 6.17891 13.0562 8.66172Z" fill="#171412"/>
</g>
<defs>
<clipPath id="clip0_361_184">
<rect width="20" height="20" fill="white"/>
</clipPath>
</defs>
</svg>
