<svg width="20" height="20" viewBox="0 0 20 20" fill="none" xmlns="http://www.w3.org/2000/svg">
<g clip-path="url(#clip0_361_232)">
<path fill-rule="evenodd" clip-rule="evenodd" d="M6.875 3.75V1.25C6.875 0.904822 7.15482 0.625 7.5 0.625C7.84518 0.625 8.125 0.904822 8.125 1.25V3.75C8.125 4.09518 7.84518 4.375 7.5 4.375C7.15482 4.375 6.875 4.09518 6.875 3.75ZM10 4.375C10.3452 4.375 10.625 4.09518 10.625 3.75V1.25C10.625 0.904822 10.3452 0.625 10 0.625C9.65482 0.625 9.375 0.904822 9.375 1.25V3.75C9.375 4.09518 9.65482 4.375 10 4.375ZM12.5 4.375C12.8452 4.375 13.125 4.09518 13.125 3.75V1.25C13.125 0.904822 12.8452 0.625 12.5 0.625C12.1548 0.625 11.875 0.904822 11.875 1.25V3.75C11.875 4.09518 12.1548 4.375 12.5 4.375ZM19.75 8L17.5 9.6875V14.375C17.5 15.7557 16.3807 16.875 15 16.875H5C3.61929 16.875 2.5 15.7557 2.5 14.375V9.6875L0.25 8C-0.0261424 7.79289 -0.0821068 7.40114 0.125 7.125C0.332107 6.84886 0.723858 6.79289 1 7L2.5 8.125V6.875C2.5 6.18464 3.05964 5.625 3.75 5.625H16.25C16.9404 5.625 17.5 6.18464 17.5 6.875V8.125L19 7C19.2761 6.79289 19.6679 6.84886 19.875 7.125C20.0821 7.40114 20.0261 7.79289 19.75 8ZM16.25 6.875H3.75V14.375C3.75 15.0654 4.30964 15.625 5 15.625H15C15.6904 15.625 16.25 15.0654 16.25 14.375V6.875Z" fill="#171412"/>
</g>
<defs>
<clipPath id="clip0_361_232">
<rect width="20" height="20" fill="white"/>
</clipPath>
</defs>
</svg>
