<svg width="20" height="20" viewBox="0 0 20 20" fill="none" xmlns="http://www.w3.org/2000/svg">
<g clip-path="url(#clip0_361_240)">
<path fill-rule="evenodd" clip-rule="evenodd" d="M18.75 8.29453V5.625C18.75 4.93464 18.1904 4.375 17.5 4.375H2.5C1.80964 4.375 1.25 4.93464 1.25 5.625V8.29453C0.863886 8.51745 0.625736 8.92916 0.625 9.375V13.125C0.625 13.8154 1.18464 14.375 1.875 14.375H2.5V15.625C2.5 15.9702 2.77982 16.25 3.125 16.25C3.47018 16.25 3.75 15.9702 3.75 15.625V14.375H16.25V15.625C16.25 15.9702 16.5298 16.25 16.875 16.25C17.2202 16.25 17.5 15.9702 17.5 15.625V14.375H18.125C18.8154 14.375 19.375 13.8154 19.375 13.125V9.375C19.3743 8.92916 19.1361 8.51745 18.75 8.29453ZM17.5 8.125H16.875C16.1846 8.125 15.625 8.68464 15.625 9.375V10.625H10.625V5.625H17.5V8.125ZM9.375 5.625V10.625H4.375V9.375C4.375 8.68464 3.81536 8.125 3.125 8.125H2.5V5.625H9.375ZM18.125 13.125H1.875V9.375H3.125V10.625C3.125 11.3154 3.68464 11.875 4.375 11.875H15.625C16.3154 11.875 16.875 11.3154 16.875 10.625V9.375H18.125V13.125Z" fill="#171412"/>
</g>
<defs>
<clipPath id="clip0_361_240">
<rect width="20" height="20" fill="white"/>
</clipPath>
</defs>
</svg>
