<svg width="176" height="58" viewBox="0 0 176 58" fill="none" xmlns="http://www.w3.org/2000/svg">
<rect x="0.5" y="0.5" width="175" height="57" rx="7.5" fill="white"/>
<rect x="0.5" y="0.5" width="175" height="57" rx="7.5" stroke="#D9D9D9"/>
<g clip-path="url(#clip0_317_615)">
<path fill-rule="evenodd" clip-rule="evenodd" d="M38.5 27.5H37.4875L34.8831 21.6406C34.6423 21.099 34.1052 20.75 33.5125 20.75H22.4875C21.8948 20.75 21.3577 21.099 21.1169 21.6406L18.5125 27.5H17.5C17.0858 27.5 16.75 27.8358 16.75 28.25C16.75 28.6642 17.0858 29 17.5 29H18.25V36.5C18.25 37.3284 18.9216 38 19.75 38H22C22.8284 38 23.5 37.3284 23.5 36.5V35H32.5V36.5C32.5 37.3284 33.1716 38 34 38H36.25C37.0784 38 37.75 37.3284 37.75 36.5V29H38.5C38.9142 29 39.25 28.6642 39.25 28.25C39.25 27.8358 38.9142 27.5 38.5 27.5ZM22.4875 22.25H33.5125L35.8459 27.5H20.1541L22.4875 22.25ZM22 36.5H19.75V35H22V36.5ZM34 36.5V35H36.25V36.5H34ZM36.25 33.5H19.75V29H36.25V33.5ZM21.25 31.25C21.25 30.8358 21.5858 30.5 22 30.5H23.5C23.9142 30.5 24.25 30.8358 24.25 31.25C24.25 31.6642 23.9142 32 23.5 32H22C21.5858 32 21.25 31.6642 21.25 31.25ZM31.75 31.25C31.75 30.8358 32.0858 30.5 32.5 30.5H34C34.4142 30.5 34.75 30.8358 34.75 31.25C34.75 31.6642 34.4142 32 34 32H32.5C32.0858 32 31.75 31.6642 31.75 31.25Z" fill="#171212"/>
</g>
<path d="M52.48 35L56.512 23.16H59.792L63.824 35H61.232L60.48 32.68H55.84L55.072 35H52.48ZM56.528 30.536H59.792L58.16 25.592L56.528 30.536ZM67.6461 35.16C67.0488 35.16 66.5528 35.032 66.1581 34.776C65.7741 34.52 65.4861 34.1787 65.2941 33.752C65.1021 33.3147 65.0061 32.824 65.0061 32.28V26.52H67.4221V31.8C67.4221 32.2053 67.5288 32.536 67.7421 32.792C67.9555 33.0373 68.2701 33.16 68.6861 33.16C69.0381 33.16 69.3155 33.0747 69.5181 32.904C69.7315 32.7333 69.8861 32.5147 69.9821 32.248C70.0781 31.9813 70.1261 31.6987 70.1261 31.4V26.52H72.5581V35H70.1261V33.8H70.0301C69.8488 34.1307 69.5661 34.44 69.1821 34.728C68.8088 35.016 68.2968 35.16 67.6461 35.16ZM78.3644 35.16C77.703 35.16 77.175 35.064 76.7804 34.872C76.3857 34.6693 76.087 34.4187 75.8844 34.12C75.6817 33.8107 75.5484 33.4853 75.4844 33.144C75.4204 32.8027 75.3884 32.488 75.3884 32.2V28.456H73.9484V26.52H75.3884V24.424H77.8204V26.52H79.6284V28.456H77.8204V32.136C77.8204 32.488 77.911 32.76 78.0924 32.952C78.2844 33.144 78.599 33.24 79.0364 33.24C79.2284 33.24 79.4044 33.224 79.5644 33.192C79.7244 33.16 79.8044 33.144 79.8044 33.144V35.016C79.8044 35.016 79.6604 35.0373 79.3724 35.08C79.0844 35.1333 78.7484 35.16 78.3644 35.16ZM85.639 35.16C84.6897 35.16 83.8843 34.9573 83.223 34.552C82.5617 34.136 82.055 33.5973 81.703 32.936C81.3617 32.264 81.191 31.5387 81.191 30.76C81.191 29.9813 81.3617 29.2613 81.703 28.6C82.055 27.928 82.5617 27.3893 83.223 26.984C83.8843 26.568 84.6897 26.36 85.639 26.36C86.5883 26.36 87.3937 26.568 88.055 26.984C88.7163 27.3893 89.2177 27.928 89.559 28.6C89.911 29.2613 90.087 29.9813 90.087 30.76C90.087 31.5387 89.911 32.264 89.559 32.936C89.2177 33.5973 88.7163 34.136 88.055 34.552C87.3937 34.9573 86.5883 35.16 85.639 35.16ZM85.639 33.176C86.0657 33.176 86.423 33.064 86.711 32.84C87.0097 32.616 87.239 32.3227 87.399 31.96C87.559 31.5867 87.639 31.1867 87.639 30.76C87.639 30.3227 87.559 29.9227 87.399 29.56C87.239 29.1973 87.0097 28.904 86.711 28.68C86.423 28.456 86.0657 28.344 85.639 28.344C85.2123 28.344 84.8497 28.456 84.551 28.68C84.2523 28.904 84.023 29.1973 83.863 29.56C83.7137 29.9227 83.639 30.3227 83.639 30.76C83.639 31.1867 83.7137 31.5867 83.863 31.96C84.023 32.3227 84.2523 32.616 84.551 32.84C84.8497 33.064 85.2123 33.176 85.639 33.176Z" fill="#171212"/>
<defs>
<clipPath id="clip0_317_615">
<rect width="24" height="24" fill="white" transform="translate(16 17)"/>
</clipPath>
</defs>
</svg>
