<svg width="176" height="58" viewBox="0 0 176 58" fill="none" xmlns="http://www.w3.org/2000/svg">
<rect x="0.5" y="0.5" width="175" height="57" rx="7.5" fill="white"/>
<rect x="0.5" y="0.5" width="175" height="57" rx="7.5" stroke="#D9D9D9"/>
<g clip-path="url(#clip0_317_642)">
<path fill-rule="evenodd" clip-rule="evenodd" d="M38.4897 35.5737L37.1528 24.3238C37.063 23.5648 36.417 22.9947 35.6528 23H32.5C32.5 20.5147 30.4853 18.5 28 18.5C25.5147 18.5 23.5 20.5147 23.5 23H20.3434C19.5792 22.9947 18.9332 23.5648 18.8434 24.3238L17.5066 35.5737C17.457 35.9984 17.591 36.4241 17.875 36.7437C18.161 37.0647 18.5701 37.2488 19 37.25H36.9925C37.425 37.251 37.8373 37.0667 38.125 36.7437C38.4076 36.4235 38.5403 35.9979 38.4897 35.5737ZM28 20C29.6569 20 31 21.3431 31 23H25C25 21.3431 26.3431 20 28 20ZM19 35.75L20.3434 24.5H23.5V26.75C23.5 27.1642 23.8358 27.5 24.25 27.5C24.6642 27.5 25 27.1642 25 26.75V24.5H31V26.75C31 27.1642 31.3358 27.5 31.75 27.5C32.1642 27.5 32.5 27.1642 32.5 26.75V24.5H35.6641L36.9925 35.75H19Z" fill="#171212"/>
</g>
<path d="M53.088 35V23.16H58.56C59.328 23.16 59.9733 23.2933 60.496 23.56C61.0293 23.8267 61.4347 24.184 61.712 24.632C61.9893 25.0693 62.128 25.5547 62.128 26.088C62.128 26.6107 62.032 27.048 61.84 27.4C61.648 27.7413 61.4133 28.0187 61.136 28.232C60.8693 28.4347 60.608 28.5733 60.352 28.648V28.776C60.64 28.84 60.96 28.9787 61.312 29.192C61.664 29.4053 61.968 29.7093 62.224 30.104C62.48 30.4987 62.608 31.0107 62.608 31.64C62.608 32.1947 62.4747 32.728 62.208 33.24C61.952 33.752 61.5307 34.1733 60.944 34.504C60.368 34.8347 59.616 35 58.688 35H53.088ZM58.144 25.224H55.552V27.976H58.144C58.6987 27.976 59.104 27.8427 59.36 27.576C59.616 27.3093 59.744 26.984 59.744 26.6C59.744 26.2267 59.616 25.9067 59.36 25.64C59.104 25.3627 58.6987 25.224 58.144 25.224ZM58.336 29.864H55.552V32.936H58.336C58.9653 32.936 59.4187 32.7867 59.696 32.488C59.984 32.1787 60.128 31.8107 60.128 31.384C60.128 30.968 59.984 30.6107 59.696 30.312C59.4187 30.0133 58.9653 29.864 58.336 29.864ZM68.4958 35.16C67.7491 35.16 67.1038 35.0373 66.5598 34.792C66.0158 34.536 65.5678 34.2 65.2158 33.784C64.8638 33.3573 64.5971 32.8827 64.4158 32.36C64.2451 31.8373 64.1598 31.2987 64.1598 30.744C64.1598 30.2107 64.2398 29.688 64.3997 29.176C64.5704 28.6533 64.8264 28.1787 65.1678 27.752C65.5198 27.3253 65.9624 26.9893 66.4958 26.744C67.0398 26.488 67.6798 26.36 68.4158 26.36C69.1944 26.36 69.8824 26.5307 70.4798 26.872C71.0878 27.2133 71.5624 27.72 71.9038 28.392C72.2451 29.0533 72.4158 29.8587 72.4158 30.808V31.4H66.6078C66.6398 31.912 66.8158 32.3547 67.1358 32.728C67.4664 33.1013 67.9198 33.288 68.4958 33.288C68.8264 33.288 69.0931 33.24 69.2958 33.144C69.5091 33.0373 69.6744 32.92 69.7918 32.792C69.9091 32.6533 69.9891 32.5307 70.0318 32.424C70.0744 32.3173 70.0958 32.264 70.0958 32.264H72.3358C72.3358 32.264 72.3091 32.3653 72.2558 32.568C72.2131 32.76 72.1171 33 71.9678 33.288C71.8184 33.576 71.5998 33.864 71.3118 34.152C71.0344 34.44 70.6664 34.68 70.2078 34.872C69.7491 35.064 69.1784 35.16 68.4958 35.16ZM66.6078 29.928H70.0798C70.0478 29.3413 69.8718 28.904 69.5518 28.616C69.2318 28.328 68.8371 28.184 68.3678 28.184C67.8984 28.184 67.4984 28.3387 67.1678 28.648C66.8371 28.9467 66.6504 29.3733 66.6078 29.928ZM77.7003 26.36C78.2443 26.36 78.6923 26.4507 79.0443 26.632C79.3963 26.8027 79.6629 26.9893 79.8443 27.192C80.0363 27.3947 80.1536 27.5333 80.1963 27.608H80.3243V26.52H82.7563V35H80.3243V33.912H80.1963C80.1536 33.9867 80.0363 34.1253 79.8443 34.328C79.6629 34.5307 79.3963 34.7227 79.0443 34.904C78.6923 35.0747 78.2443 35.16 77.7003 35.16C77.0709 35.16 76.5216 35.0373 76.0523 34.792C75.5936 34.536 75.2096 34.2 74.9003 33.784C74.5909 33.3573 74.3563 32.8827 74.1963 32.36C74.0469 31.8373 73.9723 31.304 73.9723 30.76C73.9723 30.216 74.0469 29.6827 74.1963 29.16C74.3563 28.6373 74.5909 28.168 74.9003 27.752C75.2096 27.3253 75.5936 26.9893 76.0523 26.744C76.5216 26.488 77.0709 26.36 77.7003 26.36ZM78.4043 28.328C77.9669 28.328 77.5989 28.4507 77.3003 28.696C77.0123 28.9307 76.7936 29.2347 76.6443 29.608C76.5056 29.9813 76.4363 30.3653 76.4363 30.76C76.4363 31.1547 76.5056 31.5387 76.6443 31.912C76.7936 32.2853 77.0123 32.5947 77.3003 32.84C77.5989 33.0747 77.9669 33.192 78.4043 33.192C78.8416 33.192 79.2043 33.0747 79.4923 32.84C79.7909 32.5947 80.0096 32.2853 80.1483 31.912C80.2976 31.5387 80.3723 31.1547 80.3723 30.76C80.3723 30.3653 80.2976 29.9813 80.1483 29.608C80.0096 29.2347 79.7909 28.9307 79.4923 28.696C79.2043 28.4507 78.8416 28.328 78.4043 28.328ZM87.3493 35.16C86.7519 35.16 86.2559 35.032 85.8613 34.776C85.4773 34.52 85.1893 34.1787 84.9973 33.752C84.8053 33.3147 84.7093 32.824 84.7093 32.28V26.52H87.1253V31.8C87.1253 32.2053 87.2319 32.536 87.4453 32.792C87.6586 33.0373 87.9733 33.16 88.3893 33.16C88.7413 33.16 89.0186 33.0747 89.2213 32.904C89.4346 32.7333 89.5893 32.5147 89.6853 32.248C89.7813 31.9813 89.8293 31.6987 89.8293 31.4V26.52H92.2613V35H89.8293V33.8H89.7333C89.5519 34.1307 89.2693 34.44 88.8853 34.728C88.5119 35.016 87.9999 35.16 87.3493 35.16ZM98.0675 35.16C97.4062 35.16 96.8782 35.064 96.4835 34.872C96.0888 34.6693 95.7902 34.4187 95.5875 34.12C95.3848 33.8107 95.2515 33.4853 95.1875 33.144C95.1235 32.8027 95.0915 32.488 95.0915 32.2V28.456H93.6515V26.52H95.0915V24.424H97.5235V26.52H99.3315V28.456H97.5235V32.136C97.5235 32.488 97.6142 32.76 97.7955 32.952C97.9875 33.144 98.3022 33.24 98.7395 33.24C98.9315 33.24 99.1075 33.224 99.2675 33.192C99.4275 33.16 99.5075 33.144 99.5075 33.144V35.016C99.5075 35.016 99.3635 35.0373 99.0755 35.08C98.7875 35.1333 98.4515 35.16 98.0675 35.16ZM101.757 38.12C101.469 38.12 101.239 38.1093 101.069 38.088C100.898 38.0667 100.813 38.056 100.813 38.056V36.104C100.813 36.104 100.882 36.1093 101.021 36.12C101.17 36.1307 101.351 36.136 101.565 36.136C102.077 36.136 102.498 36.0613 102.829 35.912C103.159 35.7733 103.447 35.496 103.693 35.08L100.557 26.52H102.989L104.957 32.264L106.877 26.52H109.325L106.285 34.664C106.007 35.4427 105.671 36.088 105.277 36.6C104.893 37.112 104.418 37.4907 103.853 37.736C103.287 37.992 102.589 38.12 101.757 38.12Z" fill="#171212"/>
<defs>
<clipPath id="clip0_317_642">
<rect width="24" height="24" fill="white" transform="translate(16 17)"/>
</clipPath>
</defs>
</svg>
