<svg width="176" height="74" viewBox="0 0 176 74" fill="none" xmlns="http://www.w3.org/2000/svg">
<rect x="0.5" y="0.5" width="175" height="73" rx="7.5" fill="white"/>
<rect x="0.5" y="0.5" width="175" height="73" rx="7.5" stroke="#D9D9D9"/>
<g clip-path="url(#clip0_317_597)">
<path fill-rule="evenodd" clip-rule="evenodd" d="M38.5 34.9534V31.75C38.5 30.9216 37.8284 30.25 37 30.25H19C18.1716 30.25 17.5 30.9216 17.5 31.75V34.9534C17.0367 35.2209 16.7509 35.715 16.75 36.25V40.75C16.75 41.5784 17.4216 42.25 18.25 42.25H19V43.75C19 44.1642 19.3358 44.5 19.75 44.5C20.1642 44.5 20.5 44.1642 20.5 43.75V42.25H35.5V43.75C35.5 44.1642 35.8358 44.5 36.25 44.5C36.6642 44.5 37 44.1642 37 43.75V42.25H37.75C38.5784 42.25 39.25 41.5784 39.25 40.75V36.25C39.2491 35.715 38.9633 35.2209 38.5 34.9534ZM37 34.75H36.25C35.4216 34.75 34.75 35.4216 34.75 36.25V37.75H28.75V31.75H37V34.75ZM27.25 31.75V37.75H21.25V36.25C21.25 35.4216 20.5784 34.75 19.75 34.75H19V31.75H27.25ZM37.75 40.75H18.25V36.25H19.75V37.75C19.75 38.5784 20.4216 39.25 21.25 39.25H34.75C35.5784 39.25 36.25 38.5784 36.25 37.75V36.25H37.75V40.75Z" fill="#171212"/>
</g>
<path d="M53.088 43V31.16H61.36V33.304H55.552V36.408H60.624V38.472H55.552V43H53.088ZM65.8649 43.16C65.2675 43.16 64.7715 43.032 64.3769 42.776C63.9929 42.52 63.7049 42.1787 63.5129 41.752C63.3209 41.3147 63.2249 40.824 63.2249 40.28V34.52H65.6409V39.8C65.6409 40.2053 65.7475 40.536 65.9609 40.792C66.1742 41.0373 66.4889 41.16 66.9049 41.16C67.2569 41.16 67.5342 41.0747 67.7369 40.904C67.9502 40.7333 68.1049 40.5147 68.2009 40.248C68.2969 39.9813 68.3449 39.6987 68.3449 39.4V34.52H70.7769V43H68.3449V41.8H68.2489C68.0675 42.1307 67.7849 42.44 67.4009 42.728C67.0275 43.016 66.5155 43.16 65.8649 43.16ZM72.6311 43V34.52H75.0471V35.752H75.1271C75.2231 35.528 75.3565 35.3093 75.5271 35.096C75.6978 34.8827 75.9325 34.7067 76.2311 34.568C76.5298 34.4293 76.9138 34.36 77.3831 34.36C77.6178 34.36 77.8045 34.376 77.9431 34.408C78.0818 34.4293 78.1511 34.44 78.1511 34.44V36.84C78.1511 36.84 78.0711 36.824 77.9111 36.792C77.7618 36.76 77.5645 36.744 77.3191 36.744C76.5618 36.744 75.9965 36.952 75.6231 37.368C75.2498 37.7733 75.0631 38.44 75.0631 39.368V43H72.6311ZM79.4905 43V34.52H81.9225V35.736H82.0025C82.0985 35.5653 82.2372 35.3733 82.4185 35.16C82.6105 34.9467 82.8612 34.76 83.1705 34.6C83.4905 34.44 83.8958 34.36 84.3865 34.36C85.0478 34.36 85.5865 34.5147 86.0025 34.824C86.4185 35.1227 86.7225 35.512 86.9145 35.992C87.1065 36.4613 87.2025 36.9573 87.2025 37.48V43H84.7705V37.896C84.7705 37.4907 84.6585 37.1333 84.4345 36.824C84.2212 36.5147 83.8745 36.36 83.3945 36.36C83.0318 36.36 82.7438 36.4453 82.5305 36.616C82.3172 36.7867 82.1625 37.0053 82.0665 37.272C81.9705 37.5387 81.9225 37.8213 81.9225 38.12V43H79.4905ZM90.493 33.368C90.0663 33.368 89.7197 33.2347 89.453 32.968C89.1863 32.6907 89.053 32.3653 89.053 31.992C89.053 31.5973 89.1863 31.2667 89.453 31C89.7197 30.7227 90.0663 30.584 90.493 30.584C90.8983 30.584 91.2397 30.7227 91.517 31C91.7943 31.2667 91.933 31.5973 91.933 31.992C91.933 32.3653 91.7943 32.6907 91.517 32.968C91.2397 33.2347 90.8983 33.368 90.493 33.368ZM89.277 43V34.52H91.709V43H89.277ZM97.7394 43.16C97.078 43.16 96.55 43.064 96.1554 42.872C95.7607 42.6693 95.462 42.4187 95.2594 42.12C95.0567 41.8107 94.9234 41.4853 94.8594 41.144C94.7954 40.8027 94.7634 40.488 94.7634 40.2V36.456H93.3234V34.52H94.7634V32.424H97.1954V34.52H99.0034V36.456H97.1954V40.136C97.1954 40.488 97.286 40.76 97.4674 40.952C97.6594 41.144 97.974 41.24 98.4114 41.24C98.6034 41.24 98.7794 41.224 98.9394 41.192C99.0994 41.16 99.1794 41.144 99.1794 41.144V43.016C99.1794 43.016 99.0354 43.0373 98.7474 43.08C98.4594 43.1333 98.1234 43.16 97.7394 43.16ZM103.443 43.16C102.846 43.16 102.35 43.032 101.955 42.776C101.571 42.52 101.283 42.1787 101.091 41.752C100.899 41.3147 100.803 40.824 100.803 40.28V34.52H103.219V39.8C103.219 40.2053 103.326 40.536 103.539 40.792C103.752 41.0373 104.067 41.16 104.483 41.16C104.835 41.16 105.112 41.0747 105.315 40.904C105.528 40.7333 105.683 40.5147 105.779 40.248C105.875 39.9813 105.923 39.6987 105.923 39.4V34.52H108.355V43H105.923V41.8H105.827C105.646 42.1307 105.363 42.44 104.979 42.728C104.606 43.016 104.094 43.16 103.443 43.16ZM110.209 43V34.52H112.625V35.752H112.705C112.801 35.528 112.935 35.3093 113.105 35.096C113.276 34.8827 113.511 34.7067 113.809 34.568C114.108 34.4293 114.492 34.36 114.961 34.36C115.196 34.36 115.383 34.376 115.521 34.408C115.66 34.4293 115.729 34.44 115.729 34.44V36.84C115.729 36.84 115.649 36.824 115.489 36.792C115.34 36.76 115.143 36.744 114.897 36.744C114.14 36.744 113.575 36.952 113.201 37.368C112.828 37.7733 112.641 38.44 112.641 39.368V43H110.209ZM120.933 43.16C120.187 43.16 119.541 43.0373 118.997 42.792C118.453 42.536 118.005 42.2 117.653 41.784C117.301 41.3573 117.035 40.8827 116.853 40.36C116.683 39.8373 116.597 39.2987 116.597 38.744C116.597 38.2107 116.677 37.688 116.837 37.176C117.008 36.6533 117.264 36.1787 117.605 35.752C117.957 35.3253 118.4 34.9893 118.933 34.744C119.477 34.488 120.117 34.36 120.853 34.36C121.632 34.36 122.32 34.5307 122.917 34.872C123.525 35.2133 124 35.72 124.341 36.392C124.683 37.0533 124.853 37.8587 124.853 38.808V39.4H119.045C119.077 39.912 119.253 40.3547 119.573 40.728C119.904 41.1013 120.357 41.288 120.933 41.288C121.264 41.288 121.531 41.24 121.733 41.144C121.947 41.0373 122.112 40.92 122.229 40.792C122.347 40.6533 122.427 40.5307 122.469 40.424C122.512 40.3173 122.533 40.264 122.533 40.264H124.773C124.773 40.264 124.747 40.3653 124.693 40.568C124.651 40.76 124.555 41 124.405 41.288C124.256 41.576 124.037 41.864 123.749 42.152C123.472 42.44 123.104 42.68 122.645 42.872C122.187 43.064 121.616 43.16 120.933 43.16ZM119.045 37.928H122.517C122.485 37.3413 122.309 36.904 121.989 36.616C121.669 36.328 121.275 36.184 120.805 36.184C120.336 36.184 119.936 36.3387 119.605 36.648C119.275 36.9467 119.088 37.3733 119.045 37.928ZM130.168 43.16C129.464 43.16 128.883 43.064 128.424 42.872C127.965 42.68 127.597 42.4453 127.32 42.168C127.053 41.88 126.851 41.5973 126.712 41.32C126.584 41.032 126.499 40.792 126.456 40.6C126.424 40.408 126.408 40.312 126.408 40.312H128.664C128.664 40.312 128.68 40.3653 128.712 40.472C128.744 40.5787 128.813 40.7013 128.92 40.84C129.037 40.9787 129.203 41.1013 129.416 41.208C129.629 41.3147 129.917 41.368 130.28 41.368C130.728 41.368 131.032 41.2773 131.192 41.096C131.363 40.9147 131.448 40.7333 131.448 40.552C131.448 40.168 131.133 39.912 130.504 39.784L129.352 39.56C128.861 39.464 128.397 39.3253 127.96 39.144C127.533 38.952 127.187 38.6907 126.92 38.36C126.664 38.0187 126.536 37.5813 126.536 37.048C126.536 36.536 126.669 36.0773 126.936 35.672C127.203 35.2667 127.581 34.9467 128.072 34.712C128.573 34.4773 129.171 34.36 129.864 34.36C130.515 34.36 131.053 34.4507 131.48 34.632C131.917 34.8027 132.264 35.0213 132.52 35.288C132.776 35.544 132.968 35.8053 133.096 36.072C133.224 36.328 133.304 36.5467 133.336 36.728C133.379 36.8987 133.4 36.984 133.4 36.984H131.224C131.224 36.984 131.192 36.9147 131.128 36.776C131.064 36.6267 130.931 36.4827 130.728 36.344C130.536 36.1947 130.237 36.12 129.832 36.12C129.416 36.12 129.128 36.2053 128.968 36.376C128.808 36.536 128.728 36.7067 128.728 36.888C128.728 37.1013 128.819 37.2613 129 37.368C129.192 37.4747 129.437 37.56 129.736 37.624L130.84 37.848C131.651 38.008 132.317 38.2907 132.84 38.696C133.363 39.0907 133.624 39.6667 133.624 40.424C133.624 40.936 133.491 41.4 133.224 41.816C132.957 42.232 132.568 42.5627 132.056 42.808C131.544 43.0427 130.915 43.16 130.168 43.16Z" fill="#171212"/>
<defs>
<clipPath id="clip0_317_597">
<rect width="24" height="24" fill="white" transform="translate(16 25)"/>
</clipPath>
</defs>
</svg>
