<svg width="176" height="74" viewBox="0 0 176 74" fill="none" xmlns="http://www.w3.org/2000/svg">
<rect x="0.5" y="0.5" width="175" height="73" rx="7.5" fill="white"/>
<rect x="0.5" y="0.5" width="175" height="73" rx="7.5" stroke="#D9D9D9"/>
<g clip-path="url(#clip0_317_570)">
<path fill-rule="evenodd" clip-rule="evenodd" d="M39.2116 30.7394L34.3591 28.0938C34.2491 28.0329 34.1257 28.0007 34 28H31C30.5858 28 30.25 28.3358 30.25 28.75C30.25 29.9926 29.2426 31 28 31C26.7574 31 25.75 29.9926 25.75 28.75C25.75 28.3358 25.4142 28 25 28H22C21.874 28.0005 21.7502 28.0328 21.64 28.0938L16.7884 30.7394C16.0684 31.1199 15.792 32.0114 16.1706 32.7325L17.9772 36.1834C18.2449 36.6892 18.7718 37.0039 19.3441 37H21.25V44.5C21.25 45.3284 21.9216 46 22.75 46H33.25C34.0784 46 34.75 45.3284 34.75 44.5V37H36.6569C37.2291 37.0039 37.756 36.6892 38.0238 36.1834L39.8303 32.7325C40.2088 32.0112 39.932 31.1196 39.2116 30.7394ZM19.3441 35.5C19.3302 35.5007 19.3166 35.4963 19.3056 35.4878L17.5084 32.0556L21.25 30.0138V35.5H19.3441ZM33.25 44.5H22.75V29.5H24.325C24.6817 31.2456 26.2174 32.4992 27.9991 32.4992C29.7807 32.4992 31.3164 31.2456 31.6731 29.5H33.25V44.5ZM36.6953 35.4869C36.6848 35.4963 36.6709 35.5011 36.6569 35.5H34.75V30.0138L38.4925 32.0556L36.6953 35.4869Z" fill="#171212"/>
</g>
<path d="M53.088 33V21.16H56.416L59.12 27.256L61.904 21.16H65.12V33H62.688V24.936L60.256 30.232H57.968L55.52 24.904V33H53.088ZM71.2614 33.16C70.5147 33.16 69.8694 33.0373 69.3254 32.792C68.7814 32.536 68.3334 32.2 67.9814 31.784C67.6294 31.3573 67.3627 30.8827 67.1814 30.36C67.0107 29.8373 66.9254 29.2987 66.9254 28.744C66.9254 28.2107 67.0054 27.688 67.1654 27.176C67.336 26.6533 67.592 26.1787 67.9334 25.752C68.2854 25.3253 68.728 24.9893 69.2614 24.744C69.8054 24.488 70.4454 24.36 71.1814 24.36C71.96 24.36 72.648 24.5307 73.2454 24.872C73.8534 25.2133 74.328 25.72 74.6694 26.392C75.0107 27.0533 75.1814 27.8587 75.1814 28.808V29.4H69.3734C69.4054 29.912 69.5814 30.3547 69.9014 30.728C70.232 31.1013 70.6854 31.288 71.2614 31.288C71.592 31.288 71.8587 31.24 72.0614 31.144C72.2747 31.0373 72.44 30.92 72.5574 30.792C72.6747 30.6533 72.7547 30.5307 72.7974 30.424C72.84 30.3173 72.8614 30.264 72.8614 30.264H75.1014C75.1014 30.264 75.0747 30.3653 75.0214 30.568C74.9787 30.76 74.8827 31 74.7334 31.288C74.584 31.576 74.3654 31.864 74.0774 32.152C73.8 32.44 73.432 32.68 72.9734 32.872C72.5147 33.064 71.944 33.16 71.2614 33.16ZM69.3734 27.928H72.8454C72.8134 27.3413 72.6374 26.904 72.3174 26.616C71.9974 26.328 71.6027 26.184 71.1334 26.184C70.664 26.184 70.264 26.3387 69.9334 26.648C69.6027 26.9467 69.416 27.3733 69.3734 27.928ZM76.8343 33V24.52H79.2663V25.736H79.3463C79.4423 25.5653 79.5809 25.3733 79.7623 25.16C79.9543 24.9467 80.2049 24.76 80.5143 24.6C80.8343 24.44 81.2396 24.36 81.7303 24.36C82.3916 24.36 82.9303 24.5147 83.3463 24.824C83.7623 25.1227 84.0663 25.512 84.2583 25.992C84.4503 26.4613 84.5463 26.9573 84.5463 27.48V33H82.1143V27.896C82.1143 27.4907 82.0023 27.1333 81.7783 26.824C81.5649 26.5147 81.2183 26.36 80.7383 26.36C80.3756 26.36 80.0876 26.4453 79.8743 26.616C79.6609 26.7867 79.5063 27.0053 79.4103 27.272C79.3143 27.5387 79.2663 27.8213 79.2663 28.12V33H76.8343ZM86.4288 24.76L86.5888 21.16H88.6048L87.7888 24.76H86.4288ZM93.5116 33.16C92.8076 33.16 92.2263 33.064 91.7676 32.872C91.309 32.68 90.941 32.4453 90.6636 32.168C90.397 31.88 90.1943 31.5973 90.0556 31.32C89.9276 31.032 89.8423 30.792 89.7996 30.6C89.7676 30.408 89.7516 30.312 89.7516 30.312H92.0076C92.0076 30.312 92.0236 30.3653 92.0556 30.472C92.0876 30.5787 92.157 30.7013 92.2636 30.84C92.381 30.9787 92.5463 31.1013 92.7596 31.208C92.973 31.3147 93.261 31.368 93.6236 31.368C94.0716 31.368 94.3756 31.2773 94.5356 31.096C94.7063 30.9147 94.7916 30.7333 94.7916 30.552C94.7916 30.168 94.477 29.912 93.8476 29.784L92.6956 29.56C92.205 29.464 91.741 29.3253 91.3036 29.144C90.877 28.952 90.5303 28.6907 90.2636 28.36C90.0076 28.0187 89.8796 27.5813 89.8796 27.048C89.8796 26.536 90.013 26.0773 90.2796 25.672C90.5463 25.2667 90.925 24.9467 91.4156 24.712C91.917 24.4773 92.5143 24.36 93.2076 24.36C93.8583 24.36 94.397 24.4507 94.8236 24.632C95.261 24.8027 95.6076 25.0213 95.8636 25.288C96.1196 25.544 96.3116 25.8053 96.4396 26.072C96.5676 26.328 96.6476 26.5467 96.6796 26.728C96.7223 26.8987 96.7436 26.984 96.7436 26.984H94.5676C94.5676 26.984 94.5356 26.9147 94.4716 26.776C94.4076 26.6267 94.2743 26.4827 94.0716 26.344C93.8796 26.1947 93.581 26.12 93.1756 26.12C92.7596 26.12 92.4716 26.2053 92.3116 26.376C92.1516 26.536 92.0716 26.7067 92.0716 26.888C92.0716 27.1013 92.1623 27.2613 92.3436 27.368C92.5356 27.4747 92.781 27.56 93.0796 27.624L94.1836 27.848C94.9943 28.008 95.661 28.2907 96.1836 28.696C96.7063 29.0907 96.9676 29.6667 96.9676 30.424C96.9676 30.936 96.8343 31.4 96.5676 31.816C96.301 32.232 95.9116 32.5627 95.3996 32.808C94.8876 33.0427 94.2583 33.16 93.5116 33.16ZM58.512 53.16C57.5307 53.16 56.672 52.9893 55.936 52.648C55.2107 52.296 54.6027 51.832 54.112 51.256C53.6213 50.6693 53.2533 50.0133 53.008 49.288C52.7627 48.5627 52.64 47.8213 52.64 47.064C52.64 46.3173 52.7627 45.5813 53.008 44.856C53.2533 44.1307 53.6213 43.48 54.112 42.904C54.6027 42.3173 55.2107 41.8533 55.936 41.512C56.672 41.1707 57.5307 41 58.512 41C59.3333 41 60.032 41.1067 60.608 41.32C61.1947 41.5227 61.68 41.7893 62.064 42.12C62.4587 42.44 62.7733 42.7867 63.008 43.16C63.2533 43.5227 63.4347 43.8693 63.552 44.2C63.6693 44.52 63.744 44.7867 63.776 45C63.8187 45.2027 63.84 45.304 63.84 45.304H61.392C61.392 45.304 61.3707 45.2347 61.328 45.096C61.296 44.9467 61.2267 44.7707 61.12 44.568C61.0133 44.3547 60.8533 44.1467 60.64 43.944C60.4373 43.7413 60.16 43.5707 59.808 43.432C59.4667 43.2827 59.04 43.208 58.528 43.208C57.792 43.208 57.1733 43.4 56.672 43.784C56.1813 44.1573 55.808 44.6373 55.552 45.224C55.3067 45.8107 55.184 46.424 55.184 47.064C55.184 47.704 55.3067 48.3227 55.552 48.92C55.808 49.5067 56.1813 49.992 56.672 50.376C57.1733 50.7493 57.792 50.936 58.528 50.936C59.04 50.936 59.4667 50.8667 59.808 50.728C60.16 50.5893 60.4373 50.4187 60.64 50.216C60.8533 50.0027 61.0133 49.7947 61.12 49.592C61.2267 49.3787 61.296 49.2027 61.328 49.064C61.3707 48.9253 61.392 48.856 61.392 48.856H63.84C63.84 48.856 63.8187 48.9627 63.776 49.176C63.744 49.3787 63.6693 49.6453 63.552 49.976C63.4347 50.296 63.2533 50.6427 63.008 51.016C62.7733 51.3787 62.4587 51.7253 62.064 52.056C61.68 52.376 61.1947 52.6427 60.608 52.856C60.032 53.0587 59.3333 53.16 58.512 53.16ZM65.5724 53V40.84H68.0044V53H65.5724ZM74.264 53.16C73.3147 53.16 72.5093 52.9573 71.848 52.552C71.1867 52.136 70.68 51.5973 70.328 50.936C69.9867 50.264 69.816 49.5387 69.816 48.76C69.816 47.9813 69.9867 47.2613 70.328 46.6C70.68 45.928 71.1867 45.3893 71.848 44.984C72.5093 44.568 73.3147 44.36 74.264 44.36C75.2133 44.36 76.0187 44.568 76.68 44.984C77.3413 45.3893 77.8427 45.928 78.184 46.6C78.536 47.2613 78.712 47.9813 78.712 48.76C78.712 49.5387 78.536 50.264 78.184 50.936C77.8427 51.5973 77.3413 52.136 76.68 52.552C76.0187 52.9573 75.2133 53.16 74.264 53.16ZM74.264 51.176C74.6907 51.176 75.048 51.064 75.336 50.84C75.6347 50.616 75.864 50.3227 76.024 49.96C76.184 49.5867 76.264 49.1867 76.264 48.76C76.264 48.3227 76.184 47.9227 76.024 47.56C75.864 47.1973 75.6347 46.904 75.336 46.68C75.048 46.456 74.6907 46.344 74.264 46.344C73.8373 46.344 73.4747 46.456 73.176 46.68C72.8773 46.904 72.648 47.1973 72.488 47.56C72.3387 47.9227 72.264 48.3227 72.264 48.76C72.264 49.1867 72.3387 49.5867 72.488 49.96C72.648 50.3227 72.8773 50.616 73.176 50.84C73.4747 51.064 73.8373 51.176 74.264 51.176ZM84.255 53.16C83.5937 53.16 83.0657 53.064 82.671 52.872C82.2763 52.6693 81.9777 52.4187 81.775 52.12C81.5723 51.8107 81.439 51.4853 81.375 51.144C81.311 50.8027 81.279 50.488 81.279 50.2V46.456H79.839V44.52H81.279V42.424H83.711V44.52H85.519V46.456H83.711V50.136C83.711 50.488 83.8017 50.76 83.983 50.952C84.175 51.144 84.4897 51.24 84.927 51.24C85.119 51.24 85.295 51.224 85.455 51.192C85.615 51.16 85.695 51.144 85.695 51.144V53.016C85.695 53.016 85.551 53.0373 85.263 53.08C84.975 53.1333 84.639 53.16 84.255 53.16ZM87.4786 53V40.84H89.9106V45.736H89.9906C90.0866 45.5653 90.2253 45.3733 90.4066 45.16C90.5986 44.9467 90.8493 44.76 91.1586 44.6C91.4786 44.44 91.884 44.36 92.3746 44.36C93.036 44.36 93.5746 44.5147 93.9906 44.824C94.4066 45.1227 94.7106 45.512 94.9026 45.992C95.0946 46.4613 95.1906 46.9573 95.1906 47.48V53H92.7586V47.896C92.7586 47.4907 92.6466 47.1333 92.4226 46.824C92.2093 46.5147 91.8626 46.36 91.3826 46.36C91.02 46.36 90.732 46.4453 90.5186 46.616C90.3053 46.7867 90.1506 47.0053 90.0546 47.272C89.9586 47.5387 89.9106 47.8213 89.9106 48.12V53H87.4786ZM98.493 43.368C98.0663 43.368 97.7197 43.2347 97.453 42.968C97.1863 42.6907 97.053 42.3653 97.053 41.992C97.053 41.5973 97.1863 41.2667 97.453 41C97.7197 40.7227 98.0663 40.584 98.493 40.584C98.8983 40.584 99.2397 40.7227 99.517 41C99.7943 41.2667 99.933 41.5973 99.933 41.992C99.933 42.3653 99.7943 42.6907 99.517 42.968C99.2397 43.2347 98.8983 43.368 98.493 43.368ZM97.277 53V44.52H99.709V53H97.277ZM101.787 53V44.52H104.219V45.736H104.299C104.395 45.5653 104.534 45.3733 104.715 45.16C104.907 44.9467 105.158 44.76 105.467 44.6C105.787 44.44 106.193 44.36 106.683 44.36C107.345 44.36 107.883 44.5147 108.299 44.824C108.715 45.1227 109.019 45.512 109.211 45.992C109.403 46.4613 109.499 46.9573 109.499 47.48V53H107.067V47.896C107.067 47.4907 106.955 47.1333 106.731 46.824C106.518 46.5147 106.171 46.36 105.691 46.36C105.329 46.36 105.041 46.4453 104.827 46.616C104.614 46.7867 104.459 47.0053 104.363 47.272C104.267 47.5387 104.219 47.8213 104.219 48.12V53H101.787ZM115.608 56.392C114.819 56.392 114.168 56.296 113.656 56.104C113.155 55.912 112.755 55.6667 112.456 55.368C112.157 55.08 111.939 54.792 111.8 54.504C111.661 54.216 111.571 53.9707 111.528 53.768C111.496 53.576 111.48 53.48 111.48 53.48H113.848C113.848 53.48 113.864 53.528 113.896 53.624C113.939 53.7307 114.019 53.848 114.136 53.976C114.253 54.1147 114.424 54.232 114.648 54.328C114.883 54.4347 115.192 54.488 115.576 54.488C116.237 54.488 116.723 54.3013 117.032 53.928C117.352 53.5547 117.512 53.064 117.512 52.456V51.56H117.4C117.293 51.7307 117.133 51.9173 116.92 52.12C116.707 52.3227 116.435 52.4933 116.104 52.632C115.773 52.7707 115.373 52.84 114.904 52.84C114.275 52.84 113.725 52.7227 113.256 52.488C112.787 52.2427 112.392 51.9173 112.072 51.512C111.763 51.1067 111.528 50.6533 111.368 50.152C111.219 49.6507 111.144 49.1333 111.144 48.6C111.144 48.0773 111.219 47.5653 111.368 47.064C111.528 46.552 111.763 46.0933 112.072 45.688C112.392 45.2827 112.787 44.9627 113.256 44.728C113.725 44.4827 114.275 44.36 114.904 44.36C115.373 44.36 115.773 44.4347 116.104 44.584C116.435 44.7227 116.707 44.8933 116.92 45.096C117.144 45.288 117.304 45.4747 117.4 45.656H117.512V44.52H119.944V52.456C119.944 53.16 119.789 53.8107 119.48 54.408C119.171 55.0053 118.696 55.4853 118.056 55.848C117.416 56.2107 116.6 56.392 115.608 56.392ZM115.576 50.92C116.024 50.92 116.392 50.808 116.68 50.584C116.979 50.36 117.203 50.072 117.352 49.72C117.501 49.3573 117.576 48.984 117.576 48.6C117.576 48.2053 117.501 47.832 117.352 47.48C117.203 47.128 116.979 46.84 116.68 46.616C116.392 46.392 116.024 46.28 115.576 46.28C115.139 46.28 114.771 46.392 114.472 46.616C114.184 46.84 113.965 47.128 113.816 47.48C113.667 47.832 113.592 48.2053 113.592 48.6C113.592 48.984 113.667 49.3573 113.816 49.72C113.965 50.072 114.184 50.36 114.472 50.584C114.771 50.808 115.139 50.92 115.576 50.92Z" fill="#171212"/>
<defs>
<clipPath id="clip0_317_570">
<rect width="24" height="24" fill="white" transform="translate(16 25)"/>
</clipPath>
</defs>
</svg>
