<svg width="176" height="77" viewBox="0 0 176 77" fill="none" xmlns="http://www.w3.org/2000/svg">
<rect x="0.5" y="0.5" width="175" height="73" rx="7.5" fill="white"/>
<rect x="0.5" y="0.5" width="175" height="73" rx="7.5" stroke="#D9D9D9"/>
<g clip-path="url(#clip0_317_579)">
<path fill-rule="evenodd" clip-rule="evenodd" d="M37.4359 37.1041L31.7425 35.2066C31.1439 35.0066 30.6568 34.5644 30.4 33.9878L28.2241 28.9C28.2241 28.9 28.2241 28.8934 28.2241 28.8906C27.9025 28.1694 27.077 27.821 26.3359 28.0938L19.2372 30.6709C18.6453 30.8877 18.2512 31.4505 18.25 32.0809V43C18.25 43.8284 18.9216 44.5 19.75 44.5H38.5C39.3284 44.5 40 43.8284 40 43V40.6619C40.0001 39.0477 38.9673 37.6145 37.4359 37.1041ZM26.8488 29.5L27.5153 31.0591L25.4941 31.795C25.1518 31.9192 24.9482 32.2713 25.0113 32.6299C25.0744 32.9885 25.3859 33.25 25.75 33.25C25.8374 33.2499 25.924 33.2343 26.0059 33.2041L28.1059 32.4409L28.5503 33.4788L26.9941 34.0413C26.646 34.1616 26.4368 34.5169 26.5004 34.8797C26.5641 35.2425 26.8817 35.5053 27.25 35.5C27.3374 35.4999 27.424 35.4843 27.5059 35.4541L29.1559 34.8541C29.3452 35.2025 29.5882 35.5188 29.8759 35.7916L28.4941 36.2941C28.1504 36.4174 27.9454 36.7702 28.0087 37.1299C28.0719 37.4895 28.3849 37.7513 28.75 37.75C28.8373 37.7497 28.9238 37.7345 29.0059 37.705L31.6309 36.7506L36.9625 38.5272C37.6512 38.7575 38.1863 39.3059 38.3997 40H19.75V32.0809L26.8488 29.5ZM19.75 43V41.5H38.5V43H19.75Z" fill="#171212"/>
</g>
<path d="M57.504 43.16C56.736 43.16 56.08 43.0693 55.536 42.888C55.0027 42.696 54.5547 42.456 54.192 42.168C53.84 41.8693 53.5573 41.56 53.344 41.24C53.1307 40.9093 52.9707 40.6 52.864 40.312C52.768 40.0133 52.704 39.7733 52.672 39.592C52.6507 39.4 52.64 39.304 52.64 39.304H55.136C55.136 39.304 55.1573 39.3947 55.2 39.576C55.2533 39.7573 55.36 39.9707 55.52 40.216C55.68 40.4507 55.9253 40.6587 56.256 40.84C56.5867 41.0107 57.0347 41.096 57.6 41.096C58.2933 41.096 58.8053 40.952 59.136 40.664C59.4667 40.3653 59.632 40.0133 59.632 39.608C59.632 39.2453 59.504 38.9573 59.248 38.744C59.0027 38.5307 58.6187 38.3707 58.096 38.264L56.512 37.96C55.872 37.8427 55.2747 37.656 54.72 37.4C54.176 37.144 53.7333 36.792 53.392 36.344C53.0507 35.8853 52.88 35.2987 52.88 34.584C52.88 33.8587 53.0613 33.2293 53.424 32.696C53.7867 32.152 54.2933 31.736 54.944 31.448C55.6053 31.1493 56.3787 31 57.264 31C58.096 31 58.784 31.1227 59.328 31.368C59.8827 31.6027 60.32 31.896 60.64 32.248C60.9707 32.5893 61.2107 32.936 61.36 33.288C61.52 33.64 61.6213 33.9333 61.664 34.168C61.7173 34.4027 61.744 34.52 61.744 34.52H59.312C59.312 34.52 59.2907 34.4453 59.248 34.296C59.216 34.1467 59.1307 33.976 58.992 33.784C58.8533 33.592 58.64 33.4213 58.352 33.272C58.0747 33.1227 57.6907 33.048 57.2 33.048C56.528 33.048 56.0427 33.1973 55.744 33.496C55.4453 33.784 55.296 34.0987 55.296 34.44C55.296 34.792 55.4453 35.064 55.744 35.256C56.0427 35.448 56.432 35.592 56.912 35.688L58.592 36.024C59.232 36.1413 59.8187 36.3387 60.352 36.616C60.8853 36.8933 61.3067 37.2667 61.616 37.736C61.936 38.1947 62.096 38.7653 62.096 39.448C62.096 40.152 61.92 40.7867 61.568 41.352C61.216 41.9067 60.6987 42.3493 60.016 42.68C59.3333 43 58.496 43.16 57.504 43.16ZM63.7443 43V30.84H66.1763V35.736H66.2563C66.3523 35.5653 66.4909 35.3733 66.6723 35.16C66.8643 34.9467 67.1149 34.76 67.4243 34.6C67.7443 34.44 68.1496 34.36 68.6403 34.36C69.3016 34.36 69.8403 34.5147 70.2563 34.824C70.6723 35.1227 70.9763 35.512 71.1683 35.992C71.3603 36.4613 71.4563 36.9573 71.4563 37.48V43H69.0243V37.896C69.0243 37.4907 68.9123 37.1333 68.6883 36.824C68.4749 36.5147 68.1283 36.36 67.6483 36.36C67.2856 36.36 66.9976 36.4453 66.7843 36.616C66.5709 36.7867 66.4163 37.0053 66.3203 37.272C66.2243 37.5387 66.1763 37.8213 66.1763 38.12V43H63.7443ZM77.5609 43.16C76.6115 43.16 75.8062 42.9573 75.1449 42.552C74.4835 42.136 73.9769 41.5973 73.6249 40.936C73.2835 40.264 73.1129 39.5387 73.1129 38.76C73.1129 37.9813 73.2835 37.2613 73.6249 36.6C73.9769 35.928 74.4835 35.3893 75.1449 34.984C75.8062 34.568 76.6115 34.36 77.5609 34.36C78.5102 34.36 79.3155 34.568 79.9769 34.984C80.6382 35.3893 81.1395 35.928 81.4809 36.6C81.8329 37.2613 82.0089 37.9813 82.0089 38.76C82.0089 39.5387 81.8329 40.264 81.4809 40.936C81.1395 41.5973 80.6382 42.136 79.9769 42.552C79.3155 42.9573 78.5102 43.16 77.5609 43.16ZM77.5609 41.176C77.9875 41.176 78.3449 41.064 78.6329 40.84C78.9315 40.616 79.1609 40.3227 79.3209 39.96C79.4809 39.5867 79.5609 39.1867 79.5609 38.76C79.5609 38.3227 79.4809 37.9227 79.3209 37.56C79.1609 37.1973 78.9315 36.904 78.6329 36.68C78.3449 36.456 77.9875 36.344 77.5609 36.344C77.1342 36.344 76.7715 36.456 76.4729 36.68C76.1742 36.904 75.9449 37.1973 75.7849 37.56C75.6355 37.9227 75.5609 38.3227 75.5609 38.76C75.5609 39.1867 75.6355 39.5867 75.7849 39.96C75.9449 40.3227 76.1742 40.616 76.4729 40.84C76.7715 41.064 77.1342 41.176 77.5609 41.176ZM87.902 43.16C87.1553 43.16 86.51 43.0373 85.966 42.792C85.422 42.536 84.974 42.2 84.622 41.784C84.27 41.3573 84.0033 40.8827 83.822 40.36C83.6513 39.8373 83.566 39.2987 83.566 38.744C83.566 38.2107 83.646 37.688 83.806 37.176C83.9767 36.6533 84.2327 36.1787 84.574 35.752C84.926 35.3253 85.3687 34.9893 85.902 34.744C86.446 34.488 87.086 34.36 87.822 34.36C88.6007 34.36 89.2887 34.5307 89.886 34.872C90.494 35.2133 90.9687 35.72 91.31 36.392C91.6513 37.0533 91.822 37.8587 91.822 38.808V39.4H86.014C86.046 39.912 86.222 40.3547 86.542 40.728C86.8727 41.1013 87.326 41.288 87.902 41.288C88.2327 41.288 88.4993 41.24 88.702 41.144C88.9153 41.0373 89.0807 40.92 89.198 40.792C89.3153 40.6533 89.3953 40.5307 89.438 40.424C89.4807 40.3173 89.502 40.264 89.502 40.264H91.742C91.742 40.264 91.7153 40.3653 91.662 40.568C91.6193 40.76 91.5233 41 91.374 41.288C91.2247 41.576 91.006 41.864 90.718 42.152C90.4407 42.44 90.0727 42.68 89.614 42.872C89.1553 43.064 88.5847 43.16 87.902 43.16ZM86.014 37.928H89.486C89.454 37.3413 89.278 36.904 88.958 36.616C88.638 36.328 88.2433 36.184 87.774 36.184C87.3047 36.184 86.9047 36.3387 86.574 36.648C86.2433 36.9467 86.0567 37.3733 86.014 37.928ZM97.1366 43.16C96.4326 43.16 95.8513 43.064 95.3926 42.872C94.934 42.68 94.566 42.4453 94.2886 42.168C94.022 41.88 93.8193 41.5973 93.6806 41.32C93.5526 41.032 93.4673 40.792 93.4246 40.6C93.3926 40.408 93.3766 40.312 93.3766 40.312H95.6326C95.6326 40.312 95.6486 40.3653 95.6806 40.472C95.7126 40.5787 95.782 40.7013 95.8886 40.84C96.006 40.9787 96.1713 41.1013 96.3846 41.208C96.598 41.3147 96.886 41.368 97.2486 41.368C97.6966 41.368 98.0006 41.2773 98.1606 41.096C98.3313 40.9147 98.4166 40.7333 98.4166 40.552C98.4166 40.168 98.102 39.912 97.4726 39.784L96.3206 39.56C95.83 39.464 95.366 39.3253 94.9286 39.144C94.502 38.952 94.1553 38.6907 93.8886 38.36C93.6326 38.0187 93.5046 37.5813 93.5046 37.048C93.5046 36.536 93.638 36.0773 93.9046 35.672C94.1713 35.2667 94.55 34.9467 95.0406 34.712C95.542 34.4773 96.1393 34.36 96.8326 34.36C97.4833 34.36 98.022 34.4507 98.4486 34.632C98.886 34.8027 99.2326 35.0213 99.4886 35.288C99.7446 35.544 99.9366 35.8053 100.065 36.072C100.193 36.328 100.273 36.5467 100.305 36.728C100.347 36.8987 100.369 36.984 100.369 36.984H98.1926C98.1926 36.984 98.1606 36.9147 98.0966 36.776C98.0326 36.6267 97.8993 36.4827 97.6966 36.344C97.5046 36.1947 97.206 36.12 96.8006 36.12C96.3846 36.12 96.0966 36.2053 95.9366 36.376C95.7766 36.536 95.6966 36.7067 95.6966 36.888C95.6966 37.1013 95.7873 37.2613 95.9686 37.368C96.1606 37.4747 96.406 37.56 96.7046 37.624L97.8086 37.848C98.6193 38.008 99.286 38.2907 99.8086 38.696C100.331 39.0907 100.593 39.6667 100.593 40.424C100.593 40.936 100.459 41.4 100.193 41.816C99.926 42.232 99.5366 42.5627 99.0246 42.808C98.5126 43.0427 97.8833 43.16 97.1366 43.16Z" fill="#171212"/>
<defs>
<clipPath id="clip0_317_579">
<rect width="24" height="24" fill="white" transform="translate(16 25)"/>
</clipPath>
</defs>
</svg>
