<svg width="176" height="58" viewBox="0 0 176 58" fill="none" xmlns="http://www.w3.org/2000/svg">
<rect x="0.5" y="0.5" width="175" height="57" rx="7.5" fill="white"/>
<rect x="0.5" y="0.5" width="175" height="57" rx="7.5" stroke="#D9D9D9"/>
<g clip-path="url(#clip0_317_651)">
<path fill-rule="evenodd" clip-rule="evenodd" d="M35.5 27.5C34.9578 27.4998 34.42 27.5979 33.9128 27.7897L31.5559 23.75H34C34.4142 23.75 34.75 24.0858 34.75 24.5C34.75 24.9142 35.0858 25.25 35.5 25.25C35.9142 25.25 36.25 24.9142 36.25 24.5C36.25 23.2574 35.2426 22.25 34 22.25H30.25C29.9824 22.2506 29.7353 22.3938 29.6018 22.6257C29.4682 22.8577 29.4684 23.1432 29.6022 23.375L30.6944 25.25H25.3056L23.7728 22.625C23.6391 22.3935 23.3923 22.2506 23.125 22.25H20.5C20.0858 22.25 19.75 22.5858 19.75 23C19.75 23.4142 20.0858 23.75 20.5 23.75H22.6947L23.98 25.9541L22.5072 27.9744C20.4091 26.9244 17.8565 27.6575 16.6352 29.6607C15.414 31.6638 15.9315 34.2687 17.8259 35.6528C19.7202 37.0369 22.3592 36.7384 23.8965 34.9661C25.4337 33.1938 25.3563 30.5391 23.7184 28.8594L24.805 27.3687L27.7272 32.375C27.8516 32.6249 28.1046 32.7851 28.3837 32.7906C28.6629 32.7961 28.922 32.6461 29.0562 32.4013C29.1904 32.1565 29.1776 31.8574 29.0228 31.625L26.1803 26.75H31.5691L32.6181 28.5472C30.9416 29.9484 30.5139 32.3515 31.6041 34.2452C32.6942 36.1388 34.9872 36.9757 37.0408 36.2294C39.0945 35.4832 40.3153 33.3696 39.9355 31.2178C39.5557 29.066 37.685 27.4981 35.5 27.5ZM23.5 32C23.5004 33.3172 22.6414 34.4806 21.3825 34.8681C20.1235 35.2556 18.7591 34.7765 18.0187 33.687C17.2783 32.5975 17.3353 31.1525 18.1591 30.1247C18.9828 29.0968 20.3807 28.7266 21.6053 29.2119L19.8944 31.5556C19.7247 31.7714 19.6865 32.0625 19.7947 32.3148C19.9028 32.567 20.1401 32.74 20.4133 32.7659C20.6866 32.7917 20.9521 32.6662 21.1056 32.4388L22.8166 30.095C23.259 30.6312 23.5007 31.3048 23.5 32ZM35.5 35C34.2848 34.9991 33.1902 34.2651 32.7279 33.1413C32.2656 32.0175 32.5269 30.7258 33.3897 29.87L34.8522 32.375C34.9766 32.6249 35.2296 32.7851 35.5087 32.7906C35.7879 32.7961 36.047 32.6461 36.1812 32.4013C36.3154 32.1565 36.3026 31.8574 36.1478 31.625L34.6844 29.1134C35.8113 28.7944 37.0208 29.1604 37.7818 30.0505C38.5429 30.9407 38.7163 32.1924 38.226 33.256C37.7356 34.3196 36.6712 35.0006 35.5 35Z" fill="#171212"/>
</g>
<path d="M57.504 35.16C56.736 35.16 56.08 35.0693 55.536 34.888C55.0027 34.696 54.5547 34.456 54.192 34.168C53.84 33.8693 53.5573 33.56 53.344 33.24C53.1307 32.9093 52.9707 32.6 52.864 32.312C52.768 32.0133 52.704 31.7733 52.672 31.592C52.6507 31.4 52.64 31.304 52.64 31.304H55.136C55.136 31.304 55.1573 31.3947 55.2 31.576C55.2533 31.7573 55.36 31.9707 55.52 32.216C55.68 32.4507 55.9253 32.6587 56.256 32.84C56.5867 33.0107 57.0347 33.096 57.6 33.096C58.2933 33.096 58.8053 32.952 59.136 32.664C59.4667 32.3653 59.632 32.0133 59.632 31.608C59.632 31.2453 59.504 30.9573 59.248 30.744C59.0027 30.5307 58.6187 30.3707 58.096 30.264L56.512 29.96C55.872 29.8427 55.2747 29.656 54.72 29.4C54.176 29.144 53.7333 28.792 53.392 28.344C53.0507 27.8853 52.88 27.2987 52.88 26.584C52.88 25.8587 53.0613 25.2293 53.424 24.696C53.7867 24.152 54.2933 23.736 54.944 23.448C55.6053 23.1493 56.3787 23 57.264 23C58.096 23 58.784 23.1227 59.328 23.368C59.8827 23.6027 60.32 23.896 60.64 24.248C60.9707 24.5893 61.2107 24.936 61.36 25.288C61.52 25.64 61.6213 25.9333 61.664 26.168C61.7173 26.4027 61.744 26.52 61.744 26.52H59.312C59.312 26.52 59.2907 26.4453 59.248 26.296C59.216 26.1467 59.1307 25.976 58.992 25.784C58.8533 25.592 58.64 25.4213 58.352 25.272C58.0747 25.1227 57.6907 25.048 57.2 25.048C56.528 25.048 56.0427 25.1973 55.744 25.496C55.4453 25.784 55.296 26.0987 55.296 26.44C55.296 26.792 55.4453 27.064 55.744 27.256C56.0427 27.448 56.432 27.592 56.912 27.688L58.592 28.024C59.232 28.1413 59.8187 28.3387 60.352 28.616C60.8853 28.8933 61.3067 29.2667 61.616 29.736C61.936 30.1947 62.096 30.7653 62.096 31.448C62.096 32.152 61.92 32.7867 61.568 33.352C61.216 33.9067 60.6987 34.3493 60.016 34.68C59.3333 35 58.496 35.16 57.504 35.16ZM63.7443 38.12V26.52H66.1763V27.608H66.2883C66.3416 27.5333 66.4589 27.3947 66.6403 27.192C66.8323 26.9893 67.1043 26.8027 67.4563 26.632C67.8083 26.4507 68.2563 26.36 68.8003 26.36C69.4296 26.36 69.9736 26.488 70.4323 26.744C70.9016 26.9893 71.2909 27.3253 71.6003 27.752C71.9096 28.168 72.1389 28.6373 72.2883 29.16C72.4483 29.6827 72.5283 30.216 72.5283 30.76C72.5283 31.304 72.4483 31.8373 72.2883 32.36C72.1389 32.8827 71.9096 33.3573 71.6003 33.784C71.2909 34.2 70.9016 34.536 70.4323 34.792C69.9736 35.0373 69.4296 35.16 68.8003 35.16C68.2563 35.16 67.8083 35.0747 67.4563 34.904C67.1043 34.7227 66.8323 34.5307 66.6403 34.328C66.4589 34.1253 66.3416 33.9867 66.2883 33.912H66.1763V38.12H63.7443ZM66.1283 30.76C66.1283 31.1547 66.1976 31.5387 66.3363 31.912C66.4856 32.2853 66.7043 32.5947 66.9923 32.84C67.2909 33.0747 67.6589 33.192 68.0963 33.192C68.5336 33.192 68.8963 33.0747 69.1843 32.84C69.4829 32.5947 69.7016 32.2853 69.8403 31.912C69.9896 31.5387 70.0643 31.1547 70.0643 30.76C70.0643 30.3653 69.9896 29.9813 69.8403 29.608C69.7016 29.2347 69.4829 28.9307 69.1843 28.696C68.8963 28.4507 68.5336 28.328 68.0963 28.328C67.6589 28.328 67.2909 28.4507 66.9923 28.696C66.7043 28.9307 66.4856 29.2347 66.3363 29.608C66.1976 29.9813 66.1283 30.3653 66.1283 30.76ZM78.5296 35.16C77.5803 35.16 76.775 34.9573 76.1136 34.552C75.4523 34.136 74.9456 33.5973 74.5936 32.936C74.2523 32.264 74.0816 31.5387 74.0816 30.76C74.0816 29.9813 74.2523 29.2613 74.5936 28.6C74.9456 27.928 75.4523 27.3893 76.1136 26.984C76.775 26.568 77.5803 26.36 78.5296 26.36C79.479 26.36 80.2843 26.568 80.9456 26.984C81.607 27.3893 82.1083 27.928 82.4496 28.6C82.8016 29.2613 82.9776 29.9813 82.9776 30.76C82.9776 31.5387 82.8016 32.264 82.4496 32.936C82.1083 33.5973 81.607 34.136 80.9456 34.552C80.2843 34.9573 79.479 35.16 78.5296 35.16ZM78.5296 33.176C78.9563 33.176 79.3136 33.064 79.6016 32.84C79.9003 32.616 80.1296 32.3227 80.2896 31.96C80.4496 31.5867 80.5296 31.1867 80.5296 30.76C80.5296 30.3227 80.4496 29.9227 80.2896 29.56C80.1296 29.1973 79.9003 28.904 79.6016 28.68C79.3136 28.456 78.9563 28.344 78.5296 28.344C78.103 28.344 77.7403 28.456 77.4416 28.68C77.143 28.904 76.9136 29.1973 76.7536 29.56C76.6043 29.9227 76.5296 30.3227 76.5296 30.76C76.5296 31.1867 76.6043 31.5867 76.7536 31.96C76.9136 32.3227 77.143 32.616 77.4416 32.84C77.7403 33.064 78.103 33.176 78.5296 33.176ZM84.7249 35V26.52H87.1409V27.752H87.2209C87.3169 27.528 87.4502 27.3093 87.6209 27.096C87.7915 26.8827 88.0262 26.7067 88.3249 26.568C88.6235 26.4293 89.0075 26.36 89.4769 26.36C89.7115 26.36 89.8982 26.376 90.0369 26.408C90.1755 26.4293 90.2449 26.44 90.2449 26.44V28.84C90.2449 28.84 90.1649 28.824 90.0049 28.792C89.8555 28.76 89.6582 28.744 89.4129 28.744C88.6555 28.744 88.0902 28.952 87.7169 29.368C87.3435 29.7733 87.1569 30.44 87.1569 31.368V35H84.7249ZM95.63 35.16C94.9687 35.16 94.4407 35.064 94.046 34.872C93.6513 34.6693 93.3527 34.4187 93.15 34.12C92.9473 33.8107 92.814 33.4853 92.75 33.144C92.686 32.8027 92.654 32.488 92.654 32.2V28.456H91.214V26.52H92.654V24.424H95.086V26.52H96.894V28.456H95.086V32.136C95.086 32.488 95.1767 32.76 95.358 32.952C95.55 33.144 95.8647 33.24 96.302 33.24C96.494 33.24 96.67 33.224 96.83 33.192C96.99 33.16 97.07 33.144 97.07 33.144V35.016C97.07 35.016 96.926 35.0373 96.638 35.08C96.35 35.1333 96.014 35.16 95.63 35.16Z" fill="#171212"/>
<defs>
<clipPath id="clip0_317_651">
<rect width="24" height="24" fill="white" transform="translate(16 17)"/>
</clipPath>
</defs>
</svg>
