<svg width="176" height="58" viewBox="0 0 176 58" fill="none" xmlns="http://www.w3.org/2000/svg">
<rect x="0.5" y="0.5" width="175" height="57" rx="7.5" fill="white"/>
<rect x="0.5" y="0.5" width="175" height="57" rx="7.5" stroke="#D9D9D9"/>
<g clip-path="url(#clip0_317_687)">
<path fill-rule="evenodd" clip-rule="evenodd" d="M36.25 23H29.8103L33.0306 19.7806C33.2202 19.5911 33.2942 19.3147 33.2248 19.0558C33.1555 18.7968 32.9532 18.5945 32.6942 18.5252C32.4353 18.4558 32.1589 18.5298 31.9694 18.7194L28 22.6897L24.0306 18.7194C23.8411 18.5298 23.5647 18.4558 23.3058 18.5252C23.0468 18.5945 22.8445 18.7968 22.7752 19.0558C22.7058 19.3147 22.7798 19.5911 22.9694 19.7806L26.1897 23H19.75C18.9216 23 18.25 23.6716 18.25 24.5V35.75C18.25 36.5784 18.9216 37.25 19.75 37.25H36.25C37.0784 37.25 37.75 36.5784 37.75 35.75V24.5C37.75 23.6716 37.0784 23 36.25 23ZM19.75 24.5H29.5V35.75H19.75V24.5ZM36.25 35.75H31V24.5H36.25V35.75ZM34.75 27.875C34.75 28.4963 34.2463 29 33.625 29C33.0037 29 32.5 28.4963 32.5 27.875C32.5 27.2537 33.0037 26.75 33.625 26.75C34.2463 26.75 34.75 27.2537 34.75 27.875ZM34.75 32.375C34.75 32.9963 34.2463 33.5 33.625 33.5C33.0037 33.5 32.5 32.9963 32.5 32.375C32.5 31.7537 33.0037 31.25 33.625 31.25C34.2463 31.25 34.75 31.7537 34.75 32.375Z" fill="#171212"/>
</g>
<path d="M56.256 35V25.304H52.624V23.16H62.352V25.304H58.72V35H56.256ZM67.2888 35L63.2568 23.16H65.8488L68.9368 32.584L72.0087 23.16H74.6008L70.5688 35H67.2888Z" fill="#171212"/>
<defs>
<clipPath id="clip0_317_687">
<rect width="24" height="24" fill="white" transform="translate(16 17)"/>
</clipPath>
</defs>
</svg>
