<svg width="240" height="74" viewBox="0 0 240 74" fill="none" xmlns="http://www.w3.org/2000/svg">
<rect x="0.5" y="0.5" width="175" height="73" rx="7.5" fill="white"/>
<rect x="0.5" y="0.5" width="175" height="73" rx="7.5" stroke="#D9D9D9"/>
<g clip-path="url(#clip0_317_606)">
<path fill-rule="evenodd" clip-rule="evenodd" d="M36.1281 44.6594C36.1253 44.6513 36.1218 44.6435 36.1178 44.6359L31.8541 35.5553L33.7759 32.5384C33.7797 32.533 33.7832 32.5274 33.7862 32.5216C34.0711 32.0466 34.0711 31.4534 33.7862 30.9784C33.7778 30.9634 33.7675 30.9484 33.7581 30.9344L31.75 28.0656V25.75C31.75 25.3358 31.4142 25 31 25C30.5858 25 30.25 25.3358 30.25 25.75V28.0394L29.7569 28.6562C29.3299 29.1899 28.6835 29.5006 28 29.5006C27.3165 29.5006 26.6701 29.1899 26.2431 28.6562L25.75 28.0394V25.75C25.75 25.3358 25.4142 25 25 25C24.5858 25 24.25 25.3358 24.25 25.75V28.0656L22.2419 30.9344C22.2325 30.9484 22.2222 30.9634 22.2137 30.9784C21.9289 31.4534 21.9289 32.0466 22.2137 32.5216C22.2168 32.5274 22.2203 32.533 22.2241 32.5384L24.1459 35.5553L19.8822 44.6359C19.8782 44.6435 19.8747 44.6513 19.8719 44.6594C19.6734 45.1227 19.7209 45.6547 19.9983 46.0756C20.2757 46.4964 20.746 46.7498 21.25 46.75H34.75C35.2542 46.7501 35.7247 46.4968 36.0024 46.076C36.28 45.6551 36.3276 45.1229 36.1291 44.6594H36.1281ZM23.5 31.75L25.0403 29.5534L25.0712 29.5928C25.7829 30.4827 26.8605 31.0008 28 31.0008C29.1395 31.0008 30.2171 30.4827 30.9288 29.5928L30.9597 29.5534L32.5 31.75L30.5894 34.75H25.4116L23.5 31.75ZM21.25 45.25L25.4753 36.25H30.5228L34.75 45.25H21.25Z" fill="#171212"/>
</g>
<path d="M55.392 34.5L52.448 22.66H54.912L57.008 31.252L59.2 22.66H61.712L63.904 31.236L65.984 22.66H68.464L65.504 34.5H62.368L60.448 26.964L58.544 34.5H55.392ZM73.2171 34.66C72.2678 34.66 71.4625 34.4573 70.8011 34.052C70.1398 33.636 69.6331 33.0973 69.2811 32.436C68.9398 31.764 68.7691 31.0387 68.7691 30.26C68.7691 29.4813 68.9398 28.7613 69.2811 28.1C69.6331 27.428 70.1398 26.8893 70.8011 26.484C71.4625 26.068 72.2678 25.86 73.2171 25.86C74.1665 25.86 74.9718 26.068 75.6331 26.484C76.2945 26.8893 76.7958 27.428 77.1371 28.1C77.4891 28.7613 77.6651 29.4813 77.6651 30.26C77.6651 31.0387 77.4891 31.764 77.1371 32.436C76.7958 33.0973 76.2945 33.636 75.6331 34.052C74.9718 34.4573 74.1665 34.66 73.2171 34.66ZM73.2171 32.676C73.6438 32.676 74.0011 32.564 74.2891 32.34C74.5878 32.116 74.8171 31.8227 74.9771 31.46C75.1371 31.0867 75.2171 30.6867 75.2171 30.26C75.2171 29.8227 75.1371 29.4227 74.9771 29.06C74.8171 28.6973 74.5878 28.404 74.2891 28.18C74.0011 27.956 73.6438 27.844 73.2171 27.844C72.7905 27.844 72.4278 27.956 72.1291 28.18C71.8305 28.404 71.6011 28.6973 71.4411 29.06C71.2918 29.4227 71.2171 29.8227 71.2171 30.26C71.2171 30.6867 71.2918 31.0867 71.4411 31.46C71.6011 31.8227 71.8305 32.116 72.1291 32.34C72.4278 32.564 72.7905 32.676 73.2171 32.676ZM79.3186 34.5V26.02H81.7506V27.172H81.8306C82.012 26.8627 82.284 26.5693 82.6466 26.292C83.0093 26.004 83.5053 25.86 84.1346 25.86C84.7746 25.86 85.2866 26.0093 85.6706 26.308C86.0653 26.6067 86.3533 26.9747 86.5346 27.412H86.5666C86.7053 27.1667 86.8866 26.9267 87.1106 26.692C87.3453 26.4467 87.6333 26.2493 87.9746 26.1C88.3266 25.94 88.7373 25.86 89.2066 25.86C89.7933 25.86 90.2786 25.9933 90.6626 26.26C91.0466 26.5267 91.3293 26.8787 91.5106 27.316C91.7026 27.7427 91.7986 28.2013 91.7986 28.692V34.5H89.3666V29.3C89.3666 28.884 89.26 28.5427 89.0466 28.276C88.844 27.9987 88.5346 27.86 88.1186 27.86C87.7986 27.86 87.5373 27.94 87.3346 28.1C87.1426 28.26 86.9986 28.468 86.9026 28.724C86.8173 28.9693 86.7746 29.2253 86.7746 29.492V34.5H84.3426V29.3C84.3426 28.884 84.236 28.5427 84.0226 28.276C83.82 27.9987 83.5106 27.86 83.0946 27.86C82.7746 27.86 82.5133 27.94 82.3106 28.1C82.1186 28.26 81.9746 28.468 81.8786 28.724C81.7933 28.9693 81.7506 29.2253 81.7506 29.492V34.5H79.3186ZM97.7926 34.66C97.046 34.66 96.4006 34.5373 95.8566 34.292C95.3126 34.036 94.8646 33.7 94.5126 33.284C94.1606 32.8573 93.894 32.3827 93.7126 31.86C93.542 31.3373 93.4566 30.7987 93.4566 30.244C93.4566 29.7107 93.5366 29.188 93.6966 28.676C93.8673 28.1533 94.1233 27.6787 94.4646 27.252C94.8166 26.8253 95.2593 26.4893 95.7926 26.244C96.3366 25.988 96.9766 25.86 97.7126 25.86C98.4913 25.86 99.1793 26.0307 99.7766 26.372C100.385 26.7133 100.859 27.22 101.201 27.892C101.542 28.5533 101.713 29.3587 101.713 30.308V30.9H95.9046C95.9366 31.412 96.1126 31.8547 96.4326 32.228C96.7633 32.6013 97.2166 32.788 97.7926 32.788C98.1233 32.788 98.39 32.74 98.5926 32.644C98.806 32.5373 98.9713 32.42 99.0886 32.292C99.206 32.1533 99.286 32.0307 99.3286 31.924C99.3713 31.8173 99.3926 31.764 99.3926 31.764H101.633C101.633 31.764 101.606 31.8653 101.553 32.068C101.51 32.26 101.414 32.5 101.265 32.788C101.115 33.076 100.897 33.364 100.609 33.652C100.331 33.94 99.9633 34.18 99.5046 34.372C99.046 34.564 98.4753 34.66 97.7926 34.66ZM95.9046 29.428H99.3766C99.3446 28.8413 99.1686 28.404 98.8486 28.116C98.5286 27.828 98.134 27.684 97.6646 27.684C97.1953 27.684 96.7953 27.8387 96.4646 28.148C96.134 28.4467 95.9473 28.8733 95.9046 29.428ZM103.366 34.5V26.02H105.798V27.236H105.878C105.974 27.0653 106.112 26.8733 106.294 26.66C106.486 26.4467 106.736 26.26 107.046 26.1C107.366 25.94 107.771 25.86 108.262 25.86C108.923 25.86 109.462 26.0147 109.878 26.324C110.294 26.6227 110.598 27.012 110.79 27.492C110.982 27.9613 111.078 28.4573 111.078 28.98V34.5H108.646V29.396C108.646 28.9907 108.534 28.6333 108.31 28.324C108.096 28.0147 107.75 27.86 107.27 27.86C106.907 27.86 106.619 27.9453 106.406 28.116C106.192 28.2867 106.038 28.5053 105.942 28.772C105.846 29.0387 105.798 29.3213 105.798 29.62V34.5H103.366ZM112.96 26.26L113.12 22.66H115.136L114.32 26.26H112.96ZM120.043 34.66C119.339 34.66 118.758 34.564 118.299 34.372C117.84 34.18 117.472 33.9453 117.195 33.668C116.928 33.38 116.726 33.0973 116.587 32.82C116.459 32.532 116.374 32.292 116.331 32.1C116.299 31.908 116.283 31.812 116.283 31.812H118.539C118.539 31.812 118.555 31.8653 118.587 31.972C118.619 32.0787 118.688 32.2013 118.795 32.34C118.912 32.4787 119.078 32.6013 119.291 32.708C119.504 32.8147 119.792 32.868 120.155 32.868C120.603 32.868 120.907 32.7773 121.067 32.596C121.238 32.4147 121.323 32.2333 121.323 32.052C121.323 31.668 121.008 31.412 120.379 31.284L119.227 31.06C118.736 30.964 118.272 30.8253 117.835 30.644C117.408 30.452 117.062 30.1907 116.795 29.86C116.539 29.5187 116.411 29.0813 116.411 28.548C116.411 28.036 116.544 27.5773 116.811 27.172C117.078 26.7667 117.456 26.4467 117.947 26.212C118.448 25.9773 119.046 25.86 119.739 25.86C120.39 25.86 120.928 25.9507 121.355 26.132C121.792 26.3027 122.139 26.5213 122.395 26.788C122.651 27.044 122.843 27.3053 122.971 27.572C123.099 27.828 123.179 28.0467 123.211 28.228C123.254 28.3987 123.275 28.484 123.275 28.484H121.099C121.099 28.484 121.067 28.4147 121.003 28.276C120.939 28.1267 120.806 27.9827 120.603 27.844C120.411 27.6947 120.112 27.62 119.707 27.62C119.291 27.62 119.003 27.7053 118.843 27.876C118.683 28.036 118.603 28.2067 118.603 28.388C118.603 28.6013 118.694 28.7613 118.875 28.868C119.067 28.9747 119.312 29.06 119.611 29.124L120.715 29.348C121.526 29.508 122.192 29.7907 122.715 30.196C123.238 30.5907 123.499 31.1667 123.499 31.924C123.499 32.436 123.366 32.9 123.099 33.316C122.832 33.732 122.443 34.0627 121.931 34.308C121.419 34.5427 120.79 34.66 120.043 34.66ZM58.512 54.66C57.5307 54.66 56.672 54.4893 55.936 54.148C55.2107 53.796 54.6027 53.332 54.112 52.756C53.6213 52.1693 53.2533 51.5133 53.008 50.788C52.7627 50.0627 52.64 49.3213 52.64 48.564C52.64 47.8173 52.7627 47.0813 53.008 46.356C53.2533 45.6307 53.6213 44.98 54.112 44.404C54.6027 43.8173 55.2107 43.3533 55.936 43.012C56.672 42.6707 57.5307 42.5 58.512 42.5C59.3333 42.5 60.032 42.6067 60.608 42.82C61.1947 43.0227 61.68 43.2893 62.064 43.62C62.4587 43.94 62.7733 44.2867 63.008 44.66C63.2533 45.0227 63.4347 45.3693 63.552 45.7C63.6693 46.02 63.744 46.2867 63.776 46.5C63.8187 46.7027 63.84 46.804 63.84 46.804H61.392C61.392 46.804 61.3707 46.7347 61.328 46.596C61.296 46.4467 61.2267 46.2707 61.12 46.068C61.0133 45.8547 60.8533 45.6467 60.64 45.444C60.4373 45.2413 60.16 45.0707 59.808 44.932C59.4667 44.7827 59.04 44.708 58.528 44.708C57.792 44.708 57.1733 44.9 56.672 45.284C56.1813 45.6573 55.808 46.1373 55.552 46.724C55.3067 47.3107 55.184 47.924 55.184 48.564C55.184 49.204 55.3067 49.8227 55.552 50.42C55.808 51.0067 56.1813 51.492 56.672 51.876C57.1733 52.2493 57.792 52.436 58.528 52.436C59.04 52.436 59.4667 52.3667 59.808 52.228C60.16 52.0893 60.4373 51.9187 60.64 51.716C60.8533 51.5027 61.0133 51.2947 61.12 51.092C61.2267 50.8787 61.296 50.7027 61.328 50.564C61.3707 50.4253 61.392 50.356 61.392 50.356H63.84C63.84 50.356 63.8187 50.4627 63.776 50.676C63.744 50.8787 63.6693 51.1453 63.552 51.476C63.4347 51.796 63.2533 52.1427 63.008 52.516C62.7733 52.8787 62.4587 53.2253 62.064 53.556C61.68 53.876 61.1947 54.1427 60.608 54.356C60.032 54.5587 59.3333 54.66 58.512 54.66ZM65.5724 54.5V42.34H68.0044V54.5H65.5724ZM74.264 54.66C73.3147 54.66 72.5093 54.4573 71.848 54.052C71.1867 53.636 70.68 53.0973 70.328 52.436C69.9867 51.764 69.816 51.0387 69.816 50.26C69.816 49.4813 69.9867 48.7613 70.328 48.1C70.68 47.428 71.1867 46.8893 71.848 46.484C72.5093 46.068 73.3147 45.86 74.264 45.86C75.2133 45.86 76.0187 46.068 76.68 46.484C77.3413 46.8893 77.8427 47.428 78.184 48.1C78.536 48.7613 78.712 49.4813 78.712 50.26C78.712 51.0387 78.536 51.764 78.184 52.436C77.8427 53.0973 77.3413 53.636 76.68 54.052C76.0187 54.4573 75.2133 54.66 74.264 54.66ZM74.264 52.676C74.6907 52.676 75.048 52.564 75.336 52.34C75.6347 52.116 75.864 51.8227 76.024 51.46C76.184 51.0867 76.264 50.6867 76.264 50.26C76.264 49.8227 76.184 49.4227 76.024 49.06C75.864 48.6973 75.6347 48.404 75.336 48.18C75.048 47.956 74.6907 47.844 74.264 47.844C73.8373 47.844 73.4747 47.956 73.176 48.18C72.8773 48.404 72.648 48.6973 72.488 49.06C72.3387 49.4227 72.264 49.8227 72.264 50.26C72.264 50.6867 72.3387 51.0867 72.488 51.46C72.648 51.8227 72.8773 52.116 73.176 52.34C73.4747 52.564 73.8373 52.676 74.264 52.676ZM84.255 54.66C83.5937 54.66 83.0657 54.564 82.671 54.372C82.2763 54.1693 81.9777 53.9187 81.775 53.62C81.5723 53.3107 81.439 52.9853 81.375 52.644C81.311 52.3027 81.279 51.988 81.279 51.7V47.956H79.839V46.02H81.279V43.924H83.711V46.02H85.519V47.956H83.711V51.636C83.711 51.988 83.8017 52.26 83.983 52.452C84.175 52.644 84.4897 52.74 84.927 52.74C85.119 52.74 85.295 52.724 85.455 52.692C85.615 52.66 85.695 52.644 85.695 52.644V54.516C85.695 54.516 85.551 54.5373 85.263 54.58C84.975 54.6333 84.639 54.66 84.255 54.66ZM87.4786 54.5V42.34H89.9106V47.236H89.9906C90.0866 47.0653 90.2253 46.8733 90.4066 46.66C90.5986 46.4467 90.8493 46.26 91.1586 46.1C91.4786 45.94 91.884 45.86 92.3746 45.86C93.036 45.86 93.5746 46.0147 93.9906 46.324C94.4066 46.6227 94.7106 47.012 94.9026 47.492C95.0946 47.9613 95.1906 48.4573 95.1906 48.98V54.5H92.7586V49.396C92.7586 48.9907 92.6466 48.6333 92.4226 48.324C92.2093 48.0147 91.8626 47.86 91.3826 47.86C91.02 47.86 90.732 47.9453 90.5186 48.116C90.3053 48.2867 90.1506 48.5053 90.0546 48.772C89.9586 49.0387 89.9106 49.3213 89.9106 49.62V54.5H87.4786ZM98.493 44.868C98.0663 44.868 97.7197 44.7347 97.453 44.468C97.1863 44.1907 97.053 43.8653 97.053 43.492C97.053 43.0973 97.1863 42.7667 97.453 42.5C97.7197 42.2227 98.0663 42.084 98.493 42.084C98.8983 42.084 99.2397 42.2227 99.517 42.5C99.7943 42.7667 99.933 43.0973 99.933 43.492C99.933 43.8653 99.7943 44.1907 99.517 44.468C99.2397 44.7347 98.8983 44.868 98.493 44.868ZM97.277 54.5V46.02H99.709V54.5H97.277ZM101.787 54.5V46.02H104.219V47.236H104.299C104.395 47.0653 104.534 46.8733 104.715 46.66C104.907 46.4467 105.158 46.26 105.467 46.1C105.787 45.94 106.193 45.86 106.683 45.86C107.345 45.86 107.883 46.0147 108.299 46.324C108.715 46.6227 109.019 47.012 109.211 47.492C109.403 47.9613 109.499 48.4573 109.499 48.98V54.5H107.067V49.396C107.067 48.9907 106.955 48.6333 106.731 48.324C106.518 48.0147 106.171 47.86 105.691 47.86C105.329 47.86 105.041 47.9453 104.827 48.116C104.614 48.2867 104.459 48.5053 104.363 48.772C104.267 49.0387 104.219 49.3213 104.219 49.62V54.5H101.787ZM115.608 57.892C114.819 57.892 114.168 57.796 113.656 57.604C113.155 57.412 112.755 57.1667 112.456 56.868C112.157 56.58 111.939 56.292 111.8 56.004C111.661 55.716 111.571 55.4707 111.528 55.268C111.496 55.076 111.48 54.98 111.48 54.98H113.848C113.848 54.98 113.864 55.028 113.896 55.124C113.939 55.2307 114.019 55.348 114.136 55.476C114.253 55.6147 114.424 55.732 114.648 55.828C114.883 55.9347 115.192 55.988 115.576 55.988C116.237 55.988 116.723 55.8013 117.032 55.428C117.352 55.0547 117.512 54.564 117.512 53.956V53.06H117.4C117.293 53.2307 117.133 53.4173 116.92 53.62C116.707 53.8227 116.435 53.9933 116.104 54.132C115.773 54.2707 115.373 54.34 114.904 54.34C114.275 54.34 113.725 54.2227 113.256 53.988C112.787 53.7427 112.392 53.4173 112.072 53.012C111.763 52.6067 111.528 52.1533 111.368 51.652C111.219 51.1507 111.144 50.6333 111.144 50.1C111.144 49.5773 111.219 49.0653 111.368 48.564C111.528 48.052 111.763 47.5933 112.072 47.188C112.392 46.7827 112.787 46.4627 113.256 46.228C113.725 45.9827 114.275 45.86 114.904 45.86C115.373 45.86 115.773 45.9347 116.104 46.084C116.435 46.2227 116.707 46.3933 116.92 46.596C117.144 46.788 117.304 46.9747 117.4 47.156H117.512V46.02H119.944V53.956C119.944 54.66 119.789 55.3107 119.48 55.908C119.171 56.5053 118.696 56.9853 118.056 57.348C117.416 57.7107 116.6 57.892 115.608 57.892ZM115.576 52.42C116.024 52.42 116.392 52.308 116.68 52.084C116.979 51.86 117.203 51.572 117.352 51.22C117.501 50.8573 117.576 50.484 117.576 50.1C117.576 49.7053 117.501 49.332 117.352 48.98C117.203 48.628 116.979 48.34 116.68 48.116C116.392 47.892 116.024 47.78 115.576 47.78C115.139 47.78 114.771 47.892 114.472 48.116C114.184 48.34 113.965 48.628 113.816 48.98C113.667 49.332 113.592 49.7053 113.592 50.1C113.592 50.484 113.667 50.8573 113.816 51.22C113.965 51.572 114.184 51.86 114.472 52.084C114.771 52.308 115.139 52.42 115.576 52.42Z" fill="#171212"/>
<defs>
<clipPath id="clip0_317_606">
<rect width="24" height="24" fill="white" transform="translate(16 25)"/>
</clipPath>
</defs>
</svg>
